<svg width="16" height="16" viewBox="0 0 16 16" fill="none" xmlns="http://www.w3.org/2000/svg">
<g clip-path="url(#clip0_3_756)">
<mask id="mask0_3_756" style="mask-type:luminance" maskUnits="userSpaceOnUse" x="1" y="4" width="14" height="6">
<path d="M1.80695 4.25293H14.51V9.25331H1.80695V4.25293Z" fill="white"/>
</mask>
<g mask="url(#mask0_3_756)">
</g>
<path d="M8.00189 5.41339C7.51964 5.41339 7.06641 5.59914 6.72447 5.93862C6.38415 6.27809 6.19544 6.72806 6.19544 7.20685C6.19544 7.68564 6.38415 8.13561 6.72447 8.47508C7.06641 8.81296 7.51964 9.00031 8.00189 9.00031C8.48415 9.00031 8.93738 8.81296 9.27931 8.47508C9.62125 8.13561 9.80835 7.68564 9.80835 7.20685C9.80835 6.72806 9.62125 6.27809 9.27931 5.93862C8.93738 5.59914 8.48415 5.41339 8.00189 5.41339ZM13.5277 4.8065C13.2245 4.11153 12.7906 3.48862 12.239 2.95379C11.6874 2.41895 11.0471 2.00101 10.3325 1.70797C9.59383 1.40373 8.80996 1.25 8.00189 1.25C7.19383 1.25 6.40996 1.40373 5.67125 1.70637C4.95673 1.99941 4.31641 2.41895 3.7648 2.95219C3.21318 3.48702 2.77931 4.11153 2.47609 4.80489C2.16157 5.52548 2.00189 6.2909 2.00189 7.07875C2.00189 8.20927 2.27447 9.33498 2.80996 10.4207C3.2406 11.2934 3.84222 12.1437 4.60028 12.9523C5.89544 14.3327 7.25351 15.1765 7.63899 15.4023C7.75028 15.468 7.87609 15.5 8.00028 15.5C8.12609 15.5 8.25028 15.468 8.36157 15.4023C8.74705 15.1765 10.1051 14.3327 11.4003 12.9523C12.1583 12.1453 12.76 11.2934 13.1906 10.4207C13.7293 9.33658 14.0019 8.21247 14.0019 7.08035C14.0019 6.29251 13.8422 5.52708 13.5277 4.8065ZM8.00189 10.0251C6.43415 10.0251 5.16318 8.76332 5.16318 7.20685C5.16318 5.65038 6.43415 4.38856 8.00189 4.38856C9.56964 4.38856 10.8406 5.65038 10.8406 7.20685C10.8406 8.76332 9.56964 10.0251 8.00189 10.0251Z" fill="white"/>
</g>
<defs>
<clipPath id="clip0_3_756">
<rect width="15.6" height="15.6" fill="white" transform="translate(0.352936 0.352539)"/>
</clipPath>
</defs>
</svg>
