<svg width="313" height="169" viewBox="0 0 313 169" fill="none" xmlns="http://www.w3.org/2000/svg">
<path d="M300.729 168.33C297.604 168.33 294.608 167.089 292.398 164.881C290.189 162.673 288.948 159.677 288.948 156.554C288.948 121.483 275.008 87.8471 250.196 63.0476C225.384 38.2481 191.732 24.3158 156.642 24.3158C121.553 24.3158 87.9002 38.2481 63.0881 63.0476C38.276 87.8471 24.3368 121.483 24.3368 156.554C24.3368 159.677 23.0955 162.673 20.886 164.881C18.6766 167.089 15.68 168.33 12.5553 168.33C9.43072 168.33 6.43406 167.089 4.22462 164.881C2.01517 162.673 0.773926 159.677 0.773926 156.554C0.773927 115.275 17.1802 75.6872 46.3835 46.4987C75.5869 17.3101 115.195 0.912109 156.495 0.912109C197.795 0.912109 237.403 17.3101 266.606 46.4987C295.81 75.6872 312.216 115.275 312.216 156.554C312.217 159.627 311.016 162.578 308.87 164.778C306.724 166.979 303.802 168.253 300.729 168.33Z" fill="#FF7206"/>
</svg>
