<svg width="312" height="169" viewBox="0 0 312 169" fill="none" xmlns="http://www.w3.org/2000/svg">
<path d="M300.052 168.33C296.927 168.33 293.93 167.089 291.721 164.881C289.512 162.673 288.27 159.677 288.27 156.554C288.27 139.189 284.848 121.993 278.199 105.949C271.55 89.905 261.805 75.3271 249.519 63.0476C237.233 50.7681 222.648 41.0275 206.596 34.3819C190.544 27.7363 173.339 24.3159 155.965 24.3159C138.59 24.3159 121.386 27.7363 105.334 34.3819C89.2818 41.0275 74.6966 50.7681 62.4109 63.0476C50.1252 75.3271 40.3796 89.905 33.7306 105.949C27.0816 121.993 23.6595 139.189 23.6595 156.554C23.6595 159.677 22.4183 162.673 20.2088 164.881C17.9994 167.089 15.0027 168.33 11.8781 168.33C8.75348 168.33 5.75682 167.089 3.54737 164.881C1.33792 162.673 0.0966797 159.677 0.0966797 156.554C0.0966791 136.115 4.12448 115.876 11.9502 96.9927C19.7759 78.1093 31.2463 60.9514 45.7063 46.4987C60.1663 32.0459 77.3328 20.5814 96.2258 12.7597C115.119 4.93792 135.368 0.912109 155.818 0.912109C176.267 0.912109 196.517 4.93792 215.41 12.7597C234.302 20.5814 251.469 32.0459 265.929 46.4987C280.389 60.9514 291.859 78.1093 299.685 96.9927C307.511 115.876 311.539 136.115 311.539 156.554C311.54 159.627 310.339 162.578 308.193 164.779C306.047 166.979 303.125 168.253 300.052 168.33Z" fill="#6BA614"/>
</svg>
