<svg width="312" height="172" viewBox="0 0 312 172" fill="none" xmlns="http://www.w3.org/2000/svg">
<path d="M300.39 170.33C297.266 170.33 294.269 169.089 292.06 166.881C289.85 164.672 288.609 161.677 288.609 158.554C288.871 141.02 285.641 123.61 279.109 107.335C272.577 91.0597 262.872 76.2455 250.559 63.7537C238.246 51.2619 223.571 41.342 207.387 34.571C191.203 27.8 173.833 24.3131 156.289 24.3131C138.744 24.3131 121.375 27.8 105.191 34.571C89.0068 41.342 74.3315 51.2619 62.0185 63.7537C49.7054 76.2455 40.0006 91.0597 33.4683 107.335C26.9361 123.61 23.7069 141.02 23.9686 158.554C24.1726 160.21 24.0225 161.889 23.5281 163.482C23.0337 165.075 22.2064 166.545 21.1009 167.795C19.9953 169.044 18.6369 170.044 17.1154 170.73C15.594 171.415 13.9443 171.769 12.2756 171.769C10.6068 171.769 8.95713 171.415 7.43571 170.73C5.91428 170.044 4.55584 169.044 3.45033 167.795C2.34483 166.545 1.51747 165.075 1.02308 163.482C0.528677 161.889 0.378509 160.21 0.582504 158.554C0.29879 137.937 4.1167 117.469 11.8144 98.3384C19.512 79.2082 30.9361 61.7974 45.4229 47.1174C59.9097 32.4374 77.1705 20.7808 96.2027 12.8247C115.235 4.86855 135.659 0.771484 156.289 0.771484C176.919 0.771484 197.343 4.86855 216.375 12.8247C235.407 20.7808 252.668 32.4374 267.155 47.1174C281.641 61.7974 293.065 79.2082 300.763 98.3384C308.461 117.469 312.279 137.937 311.995 158.554C311.995 161.647 310.778 164.616 308.607 166.819C306.436 169.022 303.484 170.283 300.39 170.33Z" fill="#0078BD"/>
</svg>
