<svg width="312" height="171" viewBox="0 0 312 171" fill="none" xmlns="http://www.w3.org/2000/svg">
<path d="M300.038 170.33C296.914 170.33 293.917 169.089 291.708 166.881C289.498 164.672 288.257 161.677 288.257 158.554C288.519 141.02 285.29 123.61 278.757 107.335C272.225 91.0597 262.52 76.2455 250.207 63.7537C237.894 51.2619 223.219 41.342 207.035 34.571C190.851 27.8 173.481 24.3131 155.937 24.3131C138.392 24.3131 121.023 27.8 104.839 34.571C88.6549 41.342 73.9795 51.2619 61.6665 63.7537C49.3535 76.2455 39.6486 91.0597 33.1164 107.335C26.5841 123.61 23.3549 141.02 23.6167 158.554C23.2652 161.406 21.8823 164.032 19.7286 165.936C17.5748 167.839 14.7988 168.89 11.9236 168.89C9.0484 168.89 6.27244 167.839 4.11867 165.936C1.96491 164.032 0.582027 161.406 0.230548 158.554C-0.0531652 137.937 3.76469 117.469 11.4624 98.3384C19.16 79.2082 30.5841 61.7974 45.0709 47.1174C59.5577 32.4374 76.8185 20.7808 95.8507 12.8247C114.883 4.86855 135.307 0.771484 155.937 0.771484C176.567 0.771484 196.991 4.86855 216.023 12.8247C235.055 20.7808 252.316 32.4374 266.803 47.1174C281.29 61.7974 292.714 79.2082 300.411 98.3384C308.109 117.469 311.927 137.937 311.643 158.554C311.643 161.647 310.426 164.616 308.255 166.819C306.084 169.022 303.132 170.283 300.038 170.33Z" fill="#ED2F3C"/>
</svg>
