<svg width="10" height="9" viewBox="0 0 10 9" fill="none" xmlns="http://www.w3.org/2000/svg">
<path d="M9.85019 4.1941L4.71722 0.0492977C4.67782 0.0176966 4.62755 0 4.57457 0H3.37216C3.27162 0 3.22543 0.116292 3.30151 0.176966L8.0595 4.01966H0.108692C0.0489113 4.01966 0 4.06517 0 4.12079V4.87921C0 4.93483 0.0489113 4.98034 0.108692 4.98034H8.05814L3.30015 8.82303C3.22407 8.88497 3.27026 9 3.3708 9H4.61397C4.63978 9 4.6656 8.99115 4.68462 8.97472L9.85019 4.8059C9.89723 4.76785 9.93494 4.72085 9.96078 4.66808C9.98663 4.61531 10 4.55799 10 4.5C10 4.44201 9.98663 4.38469 9.96078 4.33192C9.93494 4.27915 9.89723 4.23215 9.85019 4.1941Z" fill="black"/>
</svg>
