<svg width="16" height="16" viewBox="0 0 16 16" fill="none" xmlns="http://www.w3.org/2000/svg">
<g clip-path="url(#clip0_3_734)">
<path d="M6.2706 2.7249C5.77883 2.02401 5.38437 1.79075 4.85583 1.88992C4.62778 1.93264 4.487 2.00952 4.22812 2.23312L4.03089 2.40621L3.64721 2.72452L3.54692 2.81218C3.49046 2.86418 3.44961 2.9069 3.39724 2.96632C2.42224 4.07021 2.15221 5.79661 2.71975 7.41975C3.12795 8.58604 3.85632 9.7449 4.89483 10.903C5.99611 12.1313 6.92171 12.9043 7.98622 13.4681C8.82194 13.9101 9.46191 14.104 10.2055 14.1266C11.1044 14.1545 11.8959 13.9513 12.5462 13.5301C12.6513 13.4607 12.7509 13.3833 12.8441 13.2987L12.9704 13.1836L13.2193 12.9518L13.3036 12.8768L13.47 12.733C13.8057 12.4337 13.9146 12.2465 13.9369 11.9504C13.9703 11.4988 13.766 11.147 13.1792 10.6449L12.7821 10.3124L12.5975 10.1512L12.4229 10.0016C11.8558 9.53318 11.4357 9.38164 10.8964 9.46298C10.5264 9.51833 10.3132 9.64795 9.93547 10.0435L9.7687 10.2211C9.49385 10.5108 9.33711 10.6211 9.10533 10.6675C8.76622 10.7355 8.42934 10.5602 7.8826 10.116C7.178 9.54395 6.59337 8.8869 6.09083 8.10578C5.74243 7.5609 5.605 7.1475 5.71086 6.77124C5.75394 6.61895 5.85831 6.51161 6.07746 6.34187L6.30589 6.16952L6.34266 6.14092L6.6892 5.85827C6.99563 5.60198 7.12005 5.42741 7.18543 5.15998C7.321 4.6099 7.19285 4.15341 6.69143 3.36784L6.45334 2.99864L6.36866 2.86864L6.2706 2.7249Z" fill="white"/>
</g>
<defs>
<clipPath id="clip0_3_734">
<rect width="15.6" height="15.6" fill="white" transform="translate(0.199097 0.200195)"/>
</clipPath>
</defs>
</svg>
