<svg width="60" height="61" viewBox="0 0 60 61" fill="none" xmlns="http://www.w3.org/2000/svg">
<g clip-path="url(#clip0_1_2201)">
<g clip-path="url(#clip1_1_2201)">
<path d="M25.6541 0.452866C25.7583 0.452061 25.8624 0.451257 25.9696 0.450428C26.3131 0.448287 26.6565 0.448737 27 0.449404C27.2392 0.448869 27.4784 0.448247 27.7176 0.447542C28.2187 0.446496 28.7198 0.44678 29.2209 0.447945C29.8626 0.449291 30.5042 0.446923 31.1459 0.443501C31.6398 0.44135 32.1337 0.441384 32.6276 0.442052C32.8642 0.44207 33.1007 0.441362 33.3373 0.439909C33.6683 0.438162 33.9991 0.439412 34.3301 0.441422C34.4275 0.440289 34.5249 0.439156 34.6252 0.437988C35.247 0.445878 35.5988 0.558733 36.0935 0.968966C36.446 1.41596 36.4922 1.7678 36.505 2.3299C36.5112 2.54913 36.5112 2.54913 36.5176 2.77278C36.5202 2.92437 36.5229 3.07596 36.5256 3.23215C36.5296 3.38601 36.5336 3.53986 36.5377 3.69838C36.5474 4.07763 36.5555 4.45684 36.5622 4.83615C36.6988 4.87331 36.8353 4.91048 36.976 4.94876C39.0969 5.54488 41.1994 6.29937 43.0533 7.50766C43.3431 7.68488 43.3431 7.68488 43.5867 7.56523C43.8438 7.40431 44.0316 7.23354 44.2417 7.01511C44.3552 6.89887 44.3552 6.89887 44.471 6.78028C44.5877 6.65905 44.5877 6.65905 44.7068 6.53537C44.8612 6.37491 45.0162 6.21498 45.1718 6.05564C45.2401 5.98471 45.3083 5.91379 45.3785 5.84072C45.7694 5.49304 46.1075 5.38622 46.6257 5.37815C46.7703 5.37316 46.7703 5.37316 46.9178 5.36807C47.6326 5.49323 48.1463 6.07362 48.6402 6.57131C48.741 6.67143 48.741 6.67143 48.8437 6.77359C49.0638 6.99267 49.2831 7.21259 49.5023 7.43259C49.6557 7.58584 49.8092 7.73907 49.9626 7.89225C50.2833 8.21261 50.6036 8.53338 50.9236 8.85446C51.3337 9.26587 51.7448 9.67621 52.1562 10.0862C52.4729 10.4021 52.7891 10.7185 53.105 11.0351C53.2564 11.1866 53.408 11.338 53.5597 11.4892C53.7715 11.7004 53.9825 11.9123 54.1933 12.1244C54.2874 12.2178 54.2874 12.2178 54.3834 12.313C54.8698 12.8051 55.111 13.1499 55.1218 13.8449C55.1251 13.9413 55.1284 14.0377 55.1319 14.137C54.989 14.9529 54.2675 15.5188 53.7009 16.0715C53.6192 16.1522 53.5374 16.2328 53.4532 16.316C53.2531 16.5133 53.0525 16.7101 52.8513 16.9065C53.0062 17.3179 53.1905 17.7066 53.392 18.0972C54.3627 19.9825 55.0956 21.8953 55.6638 23.9377C55.8074 23.9394 55.8074 23.9394 55.9538 23.941C56.3895 23.9473 56.8249 23.9571 57.2605 23.967C57.4111 23.9687 57.5617 23.9703 57.7169 23.972C59.1278 24.0086 59.1278 24.0086 59.6482 24.5237C60.0594 25.0535 60.0506 25.5118 60.0471 26.1546C60.0483 26.3108 60.0483 26.3108 60.0495 26.4701C60.0517 26.8136 60.0512 27.157 60.0505 27.5005C60.0511 27.7397 60.0517 27.9789 60.0524 28.2181C60.0534 28.7192 60.0532 29.2203 60.052 29.7214C60.0507 30.3631 60.053 31.0047 60.0564 31.6463C60.0586 32.1403 60.0586 32.6342 60.0579 33.1281C60.0579 33.3647 60.0586 33.6012 60.06 33.8378C60.0618 34.1688 60.0605 34.4996 60.0585 34.8306C60.0597 34.928 60.0608 35.0254 60.062 35.1257C60.0541 35.7475 59.9412 36.0993 59.531 36.594C59.084 36.9465 58.7321 36.9927 58.17 37.0055C57.9508 37.0117 57.9508 37.0117 57.7272 37.0181C57.5756 37.0207 57.424 37.0234 57.2678 37.0261C57.1139 37.0301 56.9601 37.0341 56.8016 37.0382C56.4223 37.0479 56.0431 37.056 55.6638 37.0627C55.6266 37.1993 55.5895 37.3358 55.5512 37.4765C54.9551 39.5974 54.2006 41.6999 52.9923 43.5538C52.8151 43.8436 52.8151 43.8436 52.9347 44.0872C53.0956 44.3443 53.2664 44.5321 53.4848 44.7422C53.5623 44.8178 53.6398 44.8935 53.7197 44.9715C53.8005 45.0493 53.8813 45.1271 53.9646 45.2072C54.125 45.3617 54.285 45.5167 54.4443 45.6723C54.5152 45.7405 54.5862 45.8087 54.6592 45.879C55.0069 46.2699 55.1137 46.608 55.1218 47.1262C55.1251 47.2226 55.1284 47.3189 55.1319 47.4182C55.0067 48.1331 54.4263 48.6468 53.9286 49.1407C53.8285 49.2414 53.8285 49.2414 53.7264 49.3442C53.5073 49.5643 53.2873 49.7836 53.0674 50.0028C52.9141 50.1562 52.7609 50.3096 52.6077 50.4631C52.2873 50.7838 51.9666 51.1041 51.6455 51.4241C51.2341 51.8341 50.8237 52.2453 50.4137 52.6567C50.0978 52.9734 49.7814 53.2895 49.4649 53.6055C49.3133 53.7569 49.1619 53.9085 49.0107 54.0602C48.7996 54.272 48.5876 54.483 48.3755 54.6938C48.3133 54.7565 48.251 54.8192 48.1869 54.8838C47.6949 55.3703 47.3501 55.6115 46.655 55.6223C46.5586 55.6256 46.4622 55.6289 46.3629 55.6324C45.547 55.4895 44.9811 54.768 44.4284 54.2014C44.3478 54.1197 44.2671 54.0379 44.184 53.9537C43.9866 53.7536 43.7898 53.553 43.5935 53.3518C43.182 53.5067 42.7933 53.6909 42.4027 53.8925C40.5174 54.8632 38.6046 55.5961 36.5622 56.1643C36.5606 56.3079 36.5606 56.3079 36.5589 56.4543C36.5526 56.8899 36.5428 57.3254 36.5329 57.761C36.5313 57.9116 36.5296 58.0622 36.5279 58.2173C36.4913 59.6283 36.4913 59.6283 35.9763 60.1487C35.4465 60.5599 34.9881 60.551 34.3453 60.5476C34.1891 60.5488 34.1891 60.5488 34.0298 60.55C33.6863 60.5521 33.3429 60.5517 32.9995 60.551C32.7603 60.5516 32.5211 60.5522 32.2819 60.5529C31.7807 60.5539 31.2796 60.5536 30.7785 60.5525C30.1369 60.5511 29.4953 60.5535 28.8536 60.5569C28.3597 60.5591 27.8658 60.559 27.3718 60.5584C27.1353 60.5584 26.8987 60.5591 26.6622 60.5605C26.3312 60.5623 26.0003 60.561 25.6693 60.559C25.5719 60.5601 25.4746 60.5613 25.3743 60.5624C24.7524 60.5546 24.4006 60.4417 23.906 60.0315C23.5534 59.5845 23.5073 59.2326 23.4944 58.6705C23.4903 58.5244 23.4861 58.3782 23.4819 58.2276C23.4792 58.0761 23.4766 57.9245 23.4738 57.7683C23.4698 57.6144 23.4658 57.4606 23.4617 57.302C23.4521 56.9228 23.444 56.5436 23.4372 56.1643C23.2939 56.1244 23.1505 56.0845 23.0028 56.0434C21.0323 55.4819 19.2004 54.7198 17.381 53.7812C17.0591 53.6198 16.7407 53.4826 16.406 53.3518C16.3201 53.4405 16.3201 53.4405 16.2324 53.5309C15.9714 53.7993 15.709 54.0663 15.4465 54.3332C15.3113 54.4728 15.3113 54.4728 15.1734 54.6152C15.0415 54.7489 15.0415 54.7489 14.9068 54.8853C14.8264 54.9675 14.746 55.0498 14.6632 55.1345C14.2531 55.479 13.8389 55.6128 13.3078 55.6223C13.2234 55.6256 13.1389 55.6289 13.0519 55.6324C12.3553 55.4974 11.8426 54.9162 11.3592 54.4291C11.2921 54.3624 11.2249 54.2956 11.1557 54.2268C10.9356 54.0078 10.7164 53.7878 10.4972 53.5678C10.3437 53.4146 10.1903 53.2614 10.0368 53.1082C9.71612 52.7878 9.39584 52.467 9.07586 52.146C8.6658 51.7346 8.25468 51.3242 7.84324 50.9142C7.52654 50.5983 7.21041 50.2819 6.89444 49.9654C6.74304 49.8138 6.59147 49.6624 6.43972 49.5112C6.22795 49.3 6.01694 49.0881 5.80612 48.876C5.74341 48.8138 5.68071 48.7515 5.6161 48.6874C5.12965 48.1954 4.88848 47.8506 4.87766 47.1555C4.87433 47.0591 4.87101 46.9627 4.86759 46.8634C5.01043 46.0475 5.73195 45.4816 6.29856 44.9289C6.42114 44.8079 6.42114 44.8079 6.54621 44.6845C6.74633 44.4871 6.94699 44.2903 7.14816 44.094C6.99327 43.6825 6.809 43.2938 6.60749 42.9032C5.63671 41.0179 4.90383 39.1051 4.33566 37.0627C4.19209 37.0611 4.19209 37.0611 4.04561 37.0594C3.61 37.0531 3.17453 37.0433 2.73899 37.0334C2.58838 37.0318 2.43777 37.0301 2.28259 37.0284C0.871671 36.9918 0.871671 36.9918 0.35129 36.4768C-0.0599488 35.947 -0.0510972 35.4886 -0.0476227 34.8458C-0.048427 34.7417 -0.0492313 34.6376 -0.0500599 34.5303C-0.0522011 34.1868 -0.0517509 33.8434 -0.0510845 33.4999C-0.0516191 33.2607 -0.0522408 33.0215 -0.052946 32.7824C-0.0539927 32.2812 -0.0537085 31.7801 -0.0525436 31.279C-0.0511973 30.6373 -0.0535657 29.9957 -0.0569872 29.3541C-0.0591388 28.8602 -0.0591044 28.3663 -0.0584356 27.8723C-0.0584176 27.6358 -0.0591266 27.3992 -0.0605795 27.1627C-0.0623262 26.8317 -0.0610758 26.5008 -0.0590668 26.1698C-0.0607662 26.0238 -0.0607662 26.0238 -0.0625 25.8748C-0.0546103 25.2529 0.0582448 24.9011 0.468477 24.4065C0.915468 24.0539 1.26732 24.0078 1.82941 23.9949C1.97556 23.9908 2.12171 23.9866 2.27229 23.9823C2.42389 23.9797 2.57548 23.9771 2.73166 23.9743C2.88552 23.9703 3.03937 23.9663 3.19789 23.9622C3.57714 23.9526 3.95636 23.9444 4.33566 23.9377C4.37555 23.7944 4.41543 23.651 4.45651 23.5033C5.01801 21.5327 5.78015 19.7009 6.71878 17.8815C6.8801 17.5596 7.01733 17.2412 7.14816 16.9065C7.08904 16.8486 7.02992 16.7907 6.96901 16.731C6.70096 16.4679 6.43384 16.2038 6.16672 15.9397C6.07367 15.8486 5.98061 15.7575 5.88474 15.6636C5.79561 15.5753 5.70648 15.4869 5.61466 15.3958C5.53242 15.3148 5.45019 15.2338 5.36546 15.1504C5.00476 14.7439 4.88607 14.4144 4.87766 13.8742C4.87433 13.7779 4.87101 13.6815 4.86759 13.5822C4.99274 12.8673 5.57313 12.3536 6.07082 11.8597C6.13757 11.7926 6.20432 11.7254 6.2731 11.6562C6.49218 11.4361 6.71211 11.2169 6.9321 10.9977C7.08536 10.8442 7.23858 10.6908 7.39177 10.5373C7.71212 10.2166 8.0329 9.89633 8.35397 9.57635C8.76538 9.16628 9.17572 8.75517 9.58576 8.34373C9.90161 8.02703 10.218 7.7109 10.5346 7.39493C10.6861 7.24353 10.8375 7.09196 10.9887 6.94021C11.1999 6.72844 11.4118 6.51743 11.6239 6.3066C11.6862 6.2439 11.7484 6.1812 11.8125 6.11659C12.3046 5.63014 12.6494 5.38897 13.3445 5.37815C13.4408 5.37482 13.5372 5.3715 13.6365 5.36807C14.4524 5.51092 15.0183 6.23244 15.571 6.79904C15.692 6.92163 15.692 6.92163 15.8155 7.04669C16.0128 7.24682 16.2097 7.44748 16.406 7.64865C16.8175 7.49376 17.2061 7.30949 17.5967 7.10798C19.482 6.13719 21.3948 5.40432 23.4372 4.83615C23.4389 4.69258 23.4389 4.69258 23.4405 4.5461C23.4469 4.11049 23.4567 3.67502 23.4665 3.23947C23.4682 3.08886 23.4698 2.93826 23.4716 2.78308C23.5081 1.37216 23.5081 1.37216 24.0232 0.851778C24.553 0.44054 25.0113 0.449391 25.6541 0.452866ZM27.07 4.01584C27.0547 4.98687 27.0547 4.98687 27.0457 5.95796C27.0154 7.07995 27.0154 7.07995 26.7125 7.49027C26.033 8.03211 25.2266 8.17886 24.3967 8.38107C21.8268 9.03714 19.3714 10.1248 17.1613 11.5982C16.83 11.7739 16.6107 11.801 16.2375 11.8015C16.1313 11.8038 16.0251 11.806 15.9157 11.8084C15.1597 11.6752 14.6489 11.079 14.1355 10.549C14.0716 10.4841 14.0077 10.4191 13.9418 10.3522C13.7861 10.1937 13.6311 10.0346 13.4763 9.87522C13.1303 10.0311 12.8876 10.2007 12.6208 10.4697C12.5481 10.5424 12.4755 10.6151 12.4006 10.69C12.3235 10.7683 12.2465 10.8465 12.1671 10.9272C12.0471 11.0476 12.0471 11.0476 11.9247 11.1705C11.6699 11.4267 11.4159 11.6836 11.1618 11.9406C10.989 12.1146 10.8161 12.2886 10.6432 12.4625C10.2197 12.8885 9.79705 13.3153 9.37473 13.7424C9.59606 14.2289 9.9299 14.55 10.3122 14.9143C10.8907 15.4655 11.2785 15.8515 11.3115 16.6767C11.2951 17.4964 10.9326 18.0368 10.4953 18.7082C9.16343 20.8712 8.27018 23.1556 7.66621 25.6198C7.49022 26.3333 7.35127 26.8399 6.7966 27.3362C6.48229 27.4933 6.22426 27.4785 5.87284 27.4904C5.7497 27.4949 5.62657 27.4994 5.4997 27.504C5.34277 27.509 5.18583 27.5141 5.02414 27.5193C4.27729 27.5446 4.27729 27.5446 3.51535 27.5705C3.51535 29.5041 3.51535 31.4377 3.51535 33.4299C4.48638 33.4452 4.48638 33.4452 5.45747 33.4543C6.57946 33.4846 6.57946 33.4846 6.98978 33.7874C7.53162 34.467 7.67837 35.2733 7.88059 36.1032C8.53665 38.6731 9.62432 41.1285 11.0977 43.3387C11.2735 43.67 11.3005 43.8892 11.301 44.2624C11.3044 44.4217 11.3044 44.4217 11.3079 44.5842C11.1747 45.3403 10.5785 45.851 10.0486 46.3645C9.95112 46.4603 9.95112 46.4603 9.85172 46.5581C9.69326 46.7138 9.53407 46.8688 9.37473 47.0237C9.53058 47.3697 9.70025 47.6123 9.96919 47.8791C10.0419 47.9518 10.1146 48.0245 10.1895 48.0994C10.2678 48.1764 10.346 48.2535 10.4267 48.3329C10.507 48.4128 10.5873 48.4928 10.67 48.5752C10.9262 48.8301 11.1832 49.0841 11.4402 49.3381C11.6142 49.5109 11.7881 49.6838 11.962 49.8568C12.388 50.2802 12.8148 50.7029 13.2419 51.1252C13.7284 50.9039 14.0495 50.57 14.4138 50.1877C14.965 49.6092 15.3511 49.2214 16.1762 49.1884C16.9959 49.2049 17.5363 49.5673 18.2077 50.0046C20.3707 51.3365 22.6552 52.2298 25.1193 52.8337C25.8328 53.0097 26.3394 53.1487 26.8357 53.7033C26.9928 54.0177 26.978 54.2757 26.9899 54.6271C26.9944 54.7502 26.9989 54.8734 27.0035 55.0002C27.0085 55.1572 27.0136 55.3141 27.0188 55.4758C27.0441 56.2227 27.0441 56.2227 27.07 56.9846C29.0036 56.9846 30.9372 56.9846 32.9294 56.9846C32.9447 56.0136 32.9447 56.0136 32.9538 55.0425C32.9841 53.9205 32.9841 53.9205 33.2869 53.5102C33.9665 52.9683 34.7728 52.8216 35.6028 52.6194C38.1726 51.9633 40.628 50.8756 42.8382 49.4022C43.1695 49.2265 43.3887 49.1995 43.7619 49.1989C43.9212 49.1955 43.9212 49.1955 44.0837 49.1921C44.8398 49.3252 45.3505 49.9215 45.864 50.4514C45.9279 50.5163 45.9918 50.5813 46.0576 50.6482C46.2133 50.8067 46.3683 50.9659 46.5232 51.1252C46.8692 50.9694 47.1119 50.7997 47.3786 50.5308C47.4513 50.458 47.524 50.3853 47.5989 50.3104C47.7145 50.193 47.7145 50.193 47.8324 50.0733C47.9123 49.993 47.9923 49.9127 48.0747 49.8299C48.3296 49.5738 48.5836 49.3168 48.8376 49.0598C49.0104 48.8858 49.1833 48.7118 49.3563 48.5379C49.7797 48.1119 50.2024 47.6852 50.6247 47.258C50.4034 46.7715 50.0696 46.4504 49.6872 46.0862C49.1087 45.5349 48.7209 45.1489 48.6879 44.3238C48.7044 43.504 49.0669 42.9636 49.5041 42.2922C50.836 40.1292 51.7293 37.8448 52.3332 35.3807C52.5092 34.6671 52.6482 34.1606 53.2029 33.6643C53.5172 33.5071 53.7752 33.522 54.1266 33.51C54.2498 33.5055 54.3729 33.5011 54.4998 33.4965C54.6567 33.4914 54.8136 33.4864 54.9753 33.4812C55.7222 33.4558 55.7222 33.4558 56.4841 33.4299C56.4841 31.4963 56.4841 29.5627 56.4841 27.5705C55.5131 27.5552 55.5131 27.5552 54.542 27.5462C53.42 27.5159 53.42 27.5159 53.0097 27.213C52.4678 26.5335 52.3211 25.7271 52.1189 24.8972C51.4628 22.3273 50.3751 19.8719 48.9017 17.6618C48.726 17.3305 48.699 17.1112 48.6985 16.738C48.6951 16.5787 48.6951 16.5787 48.6916 16.4162C48.8248 15.6602 49.421 15.1494 49.9509 14.636C50.0159 14.5721 50.0808 14.5082 50.1477 14.4423C50.3062 14.2866 50.4654 14.1316 50.6247 13.9768C50.4689 13.6308 50.2992 13.3881 50.0303 13.1213C49.9576 13.0486 49.8848 12.9759 49.8099 12.901C49.7317 12.824 49.6534 12.747 49.5728 12.6676C49.4925 12.5876 49.4122 12.5076 49.3294 12.4252C49.0733 12.1704 48.8163 11.9163 48.5593 11.6623C48.3853 11.4895 48.2113 11.3166 48.0374 11.1437C47.6114 10.7202 47.1847 10.2975 46.7575 9.87522C46.271 10.0965 45.95 10.4304 45.5857 10.8127C45.0344 11.3912 44.6484 11.779 43.8233 11.812C43.0036 11.7956 42.4632 11.4331 41.7917 10.9958C39.6287 9.66392 37.3443 8.77067 34.8802 8.1667C34.1666 7.99071 33.6601 7.85176 33.1638 7.29709C33.0066 6.98278 33.0215 6.72475 33.0095 6.37332C33.0051 6.25019 33.0006 6.12705 32.996 6.00019C32.9909 5.84325 32.9859 5.68632 32.9807 5.52463C32.9553 4.77778 32.9553 4.77778 32.9294 4.01584C30.9958 4.01584 29.0622 4.01584 27.07 4.01584Z" fill="#FF4242"/>
<path d="M29.7339 12.2903C30 12.2922 30.2658 12.2903 30.5319 12.2881C35.2188 12.2816 39.5278 14.3185 42.8467 17.5583C42.9844 17.6997 42.9844 17.6997 43.125 17.844C43.2229 17.9339 43.2229 17.9339 43.3227 18.0257C45.4777 20.0547 46.7868 22.8538 47.6074 25.6516C47.6363 25.7494 47.6652 25.8472 47.695 25.9479C48.0917 27.3586 48.2052 28.7415 48.201 30.1988C48.2007 30.469 48.2034 30.7391 48.2064 31.0093C48.2134 32.6393 47.9822 34.2062 47.4975 35.7663C47.4678 35.8633 47.438 35.9602 47.4073 36.0601C46.6452 38.4554 45.4352 40.5325 43.8281 42.4534C43.7432 42.555 43.6583 42.6567 43.5708 42.7614C43.0727 43.3387 42.5428 43.8459 41.9531 44.3284C41.8363 44.4261 41.7196 44.5238 41.5993 44.6245C37.6604 47.8639 32.9165 48.9627 27.8906 48.6643C25.4608 48.4131 23.2291 47.5884 21.0937 46.4377C20.9709 46.3728 20.8481 46.3078 20.7216 46.2409C19.0156 45.2964 17.4055 43.9612 16.1719 42.4534C16.0741 42.3366 15.9764 42.2198 15.8757 42.0995C13.5202 39.2354 11.835 35.4289 11.8121 31.6767C11.8115 31.5889 11.8108 31.5012 11.8101 31.4108C11.809 31.2254 11.8082 31.0401 11.8078 30.8547C11.8067 30.5783 11.803 30.3019 11.7993 30.0255C11.7674 25.4331 13.7071 21.1092 16.875 17.844C17.0703 17.6487 17.2656 17.4534 17.4609 17.258C17.5186 17.1949 17.5763 17.1318 17.6358 17.0667C20.5892 13.8797 25.4822 12.2546 29.7339 12.2903ZM19.3094 20.5228C17.5967 22.3004 16.4746 24.5016 15.8203 26.8674C15.7605 27.0784 15.7605 27.0784 15.6995 27.2936C14.8561 30.905 15.5513 34.8449 17.438 38.0107C18.7388 40.0899 20.4097 41.763 22.5 43.0393C22.5726 43.0837 22.6453 43.1281 22.7201 43.1738C25.9228 45.089 29.8333 45.5805 33.4483 44.7298C37.3547 43.7269 40.66 41.2233 42.7121 37.754C43.3656 36.6009 43.8269 35.4087 44.1797 34.133C44.2196 33.9924 44.2594 33.8518 44.3005 33.7069C45.1438 30.0954 44.4487 26.1555 42.5619 22.9898C40.4017 19.5367 37.1231 17.1262 33.1489 16.2038C27.9869 15.1 22.9828 16.8311 19.3094 20.5228Z" fill="#FF4242"/>
<path d="M29.9849 18.7299C30.0978 18.7307 30.2108 18.7315 30.3272 18.7324C31.1849 18.7517 31.9161 18.8736 32.6949 19.2499C32.7863 19.291 32.8776 19.3321 32.9718 19.3745C34.6707 20.2195 35.7081 21.7226 36.3277 23.4687C36.4613 23.8906 36.4582 24.2856 36.4563 24.7266C36.4559 24.8784 36.4556 25.0303 36.4552 25.1867C36.4542 25.3464 36.4532 25.5062 36.4522 25.666C36.4516 25.8276 36.4511 25.9891 36.4506 26.1507C36.4492 26.5458 36.4473 26.9408 36.4449 27.3359C36.5366 27.3711 36.6283 27.4062 36.7227 27.4425C37.5569 27.7885 38.1684 28.528 38.5542 29.3281C38.7443 29.8258 38.8189 30.2401 38.8227 30.772C38.8242 30.9164 38.8256 31.0607 38.8272 31.2094C38.8274 31.364 38.8277 31.5185 38.828 31.6778C38.8287 31.8398 38.8295 32.0018 38.8303 32.1637C38.8317 32.5027 38.8322 32.8416 38.832 33.1806C38.832 33.6124 38.8352 34.0442 38.8393 34.476C38.8419 34.8105 38.8423 35.145 38.8422 35.4795C38.8426 35.7153 38.8451 35.9511 38.8477 36.1869C38.8413 37.4746 38.5157 38.4632 37.6167 39.4062C36.6256 40.2384 35.784 40.4967 34.5154 40.4931C34.4073 40.4937 34.2991 40.4943 34.1877 40.4949C33.832 40.4965 33.4763 40.4964 33.1206 40.4961C32.8721 40.4966 32.6235 40.4971 32.375 40.4977C31.8547 40.4985 31.3344 40.4985 30.8141 40.4979C30.1491 40.4972 29.4841 40.4992 28.8191 40.5019C28.306 40.5036 27.7929 40.5037 27.2797 40.5034C27.0346 40.5034 26.7895 40.504 26.5444 40.5052C26.2009 40.5067 25.8575 40.5059 25.514 40.5045C25.3638 40.5059 25.3638 40.5059 25.2106 40.5072C24.0279 40.497 23.1122 40.1159 22.2652 39.289C21.5906 38.477 21.184 37.7479 21.1764 36.6732C21.1749 36.5289 21.1734 36.3845 21.1719 36.2358C21.1716 36.0812 21.1714 35.9267 21.1711 35.7674C21.1704 35.6054 21.1696 35.4434 21.1688 35.2815C21.1674 34.9425 21.1669 34.6036 21.1671 34.2646C21.1671 33.8328 21.1639 33.401 21.1598 32.9692C21.1572 32.6347 21.1568 32.3002 21.1569 31.9657C21.1565 31.7299 21.1539 31.4941 21.1514 31.2583C21.1578 29.9567 21.4953 29.0007 22.3824 28.039C23.1859 27.3359 23.1859 27.3359 23.5542 27.3359C23.5518 27.2403 23.5493 27.1447 23.5468 27.0462C23.5387 26.6845 23.5329 26.3229 23.5285 25.9612C23.525 25.7304 23.5191 25.4998 23.513 25.2691C23.4948 23.4703 24.0901 21.9004 25.3194 20.5683C26.6199 19.3477 28.2083 18.7104 29.9849 18.7299ZM27.7876 23.3442C26.965 24.5298 27.0699 25.5 27.0699 26.9843C29.0035 26.9843 30.937 26.9843 32.9292 26.9843C32.9821 24.9368 32.9821 24.9368 32.1089 23.2343C31.3426 22.5073 30.6197 22.3415 29.5876 22.3655C28.834 22.455 28.2897 22.7829 27.7876 23.3442ZM24.8433 30.7343C24.734 31.0622 24.7107 31.2633 24.7091 31.6024C24.7083 31.7065 24.7076 31.8105 24.7068 31.9177C24.7067 32.0298 24.7066 32.1418 24.7064 32.2573C24.706 32.3727 24.7056 32.4882 24.7052 32.6071C24.7047 32.8513 24.7044 33.0955 24.7044 33.3397C24.7041 33.7134 24.702 34.0871 24.6998 34.4607C24.6994 34.6979 24.6992 34.9351 24.6991 35.1723C24.6983 35.2842 24.6974 35.396 24.6966 35.5112C24.6969 35.6156 24.6973 35.72 24.6976 35.8276C24.6975 35.9192 24.6973 36.0108 24.6971 36.1051C24.7305 36.3976 24.7986 36.5824 24.9605 36.8281C25.382 36.9686 25.7664 36.9626 26.2051 36.9623C26.2959 36.9627 26.3866 36.9631 26.4801 36.9635C26.7803 36.9646 27.0805 36.9648 27.3807 36.9649C27.5892 36.9653 27.7978 36.9657 28.0064 36.9661C28.4437 36.9668 28.881 36.967 29.3183 36.967C29.8787 36.967 30.4392 36.9686 30.9997 36.9706C31.4305 36.9719 31.8613 36.9721 32.2921 36.9721C32.4987 36.9722 32.7054 36.9727 32.912 36.9736C33.201 36.9748 33.4899 36.9744 33.7788 36.9737C33.8642 36.9744 33.9497 36.975 34.0377 36.9757C34.4629 36.9731 34.8067 36.9702 35.1558 36.7109C35.2651 36.383 35.2884 36.1819 35.29 35.8428C35.2908 35.7387 35.2915 35.6347 35.2923 35.5275C35.2924 35.4154 35.2925 35.3034 35.2927 35.1879C35.2931 35.0725 35.2935 34.957 35.2939 34.8381C35.2944 34.5939 35.2947 34.3497 35.2947 34.1055C35.295 33.7318 35.2971 33.3581 35.2993 32.9845C35.2997 32.7473 35.2999 32.5101 35.3 32.2729C35.3013 32.1051 35.3013 32.1051 35.3025 31.934C35.302 31.7774 35.302 31.7774 35.3015 31.6176C35.3016 31.526 35.3018 31.4344 35.302 31.3401C35.2686 31.0476 35.2005 30.8628 35.0386 30.6171C34.6171 30.4766 34.2327 30.4827 33.794 30.4829C33.7032 30.4825 33.6125 30.4821 33.519 30.4817C33.2188 30.4806 32.9186 30.4804 32.6184 30.4803C32.4099 30.4799 32.2013 30.4795 31.9927 30.4791C31.5554 30.4784 31.1181 30.4782 30.6808 30.4782C30.1203 30.4782 29.5599 30.4766 28.9994 30.4746C28.5686 30.4733 28.1378 30.4731 27.707 30.4731C27.5004 30.473 27.2937 30.4725 27.0871 30.4716C26.7981 30.4704 26.5092 30.4708 26.2203 30.4715C26.1349 30.4708 26.0494 30.4702 25.9614 30.4695C25.5362 30.4721 25.1924 30.475 24.8433 30.7343Z" fill="#FF4242"/>
</g>
</g>
<defs>
<clipPath id="clip0_1_2201">
<rect width="60" height="60" fill="white" transform="translate(0 0.5)"/>
</clipPath>
<clipPath id="clip1_1_2201">
<rect width="60" height="60" fill="white" transform="translate(0 0.5)"/>
</clipPath>
</defs>
</svg>
