<svg width="60" height="61" viewBox="0 0 60 61" fill="none" xmlns="http://www.w3.org/2000/svg">
<g clip-path="url(#clip0_1_2212)">
<path d="M0 0.696289C15.1207 0.696289 30.2414 0.696289 45.8203 0.696289C45.8203 8.85605 45.8203 17.0158 45.8203 25.4229C50.4996 25.4229 55.1789 25.4229 60 25.4229C60 37.0631 60 48.7033 60 60.6963C51.8402 60.6963 43.6805 60.6963 35.2734 60.6963C35.2734 53.6967 35.2734 46.6971 35.2734 39.4854C29.8981 38.7444 29.8981 38.7444 24.4766 38.7126C24.3927 38.7194 24.3088 38.7262 24.2224 38.7332C19.2366 39.162 16.0632 42.5915 12.8394 46.1138C12.7325 46.2303 12.7325 46.2303 12.6235 46.3491C11.0065 48.1148 9.43816 49.9192 7.93897 51.7861C7.85107 51.8954 7.76317 52.0047 7.67261 52.1173C7.59627 52.2131 7.51994 52.3089 7.44129 52.4075C7.38332 52.4745 7.32535 52.5414 7.26562 52.6104C7.22695 52.6104 7.18828 52.6104 7.14844 52.6104C7.14844 48.2791 7.14844 43.9479 7.14844 39.4854C4.78945 39.4854 2.43047 39.4854 0 39.4854C0 26.685 0 13.8846 0 0.696289ZM3.51562 4.21191C3.51562 14.692 3.51562 25.1721 3.51562 35.9697C5.87461 35.9697 8.23359 35.9697 10.6641 35.9697C10.6641 38.5607 10.6641 41.1518 10.6641 43.8213C11.432 43.166 11.432 43.166 11.957 42.3948C13.5726 39.7695 15.8338 36.7528 18.9701 35.9741C21.6976 35.4275 24.5676 35.5228 27.334 35.5889C27.4311 35.5911 27.5283 35.5934 27.6284 35.5957C28.309 35.6119 28.9894 35.6316 29.6697 35.6542C29.7983 35.6584 29.7983 35.6584 29.9295 35.6628C31.7138 35.7245 33.4909 35.8542 35.2734 35.9697C35.2734 32.4893 35.2734 29.0088 35.2734 25.4229C37.5938 25.4229 39.9141 25.4229 42.3047 25.4229C42.3047 18.4232 42.3047 11.4236 42.3047 4.21191C29.5043 4.21191 16.7039 4.21191 3.51562 4.21191ZM38.7891 28.9385C38.7891 38.2584 38.7891 47.5783 38.7891 57.1807C44.6285 57.1807 50.468 57.1807 56.4844 57.1807C56.4844 47.8607 56.4844 38.5408 56.4844 28.9385C50.6449 28.9385 44.8055 28.9385 38.7891 28.9385Z" fill="#FF4242"/>
<path d="M21.2112 7.72754C22.3714 7.72754 23.5316 7.72754 24.7269 7.72754C24.7269 8.92637 24.7269 10.1252 24.7269 11.3604C28.014 11.3604 31.3011 11.3604 34.6878 11.3604C35.0745 12.0951 35.4612 12.8299 35.8597 13.5869C36.0587 13.9636 36.0587 13.9636 36.2617 14.3478C36.5783 14.9483 36.8899 15.5513 37.1998 16.1553C37.3325 16.4122 37.4666 16.6683 37.6021 16.9238C39.1746 19.8937 39.1746 19.8937 38.6723 21.7551C38.185 23.2378 37.2078 24.2891 35.8377 24.9907C34.6283 25.5822 33.1964 25.6137 31.8881 25.3208C30.2444 24.7268 29.2511 23.6499 28.5002 22.1146C28.108 21.2087 28.0276 20.1078 28.3343 19.1635C28.6251 18.451 28.9907 17.7791 29.3558 17.1025C29.7232 16.4064 30.0905 15.7104 30.4691 14.9932C27.6267 14.9352 27.6267 14.9352 24.7269 14.876C24.7269 19.5166 24.7269 24.1572 24.7269 28.9385C25.887 28.9385 27.0472 28.9385 28.2425 28.9385C28.2425 30.0986 28.2425 31.2588 28.2425 32.4541C24.762 32.4541 21.2816 32.4541 17.6956 32.4541C17.6956 31.2939 17.6956 30.1338 17.6956 28.9385C18.8558 28.9385 20.0159 28.9385 21.2112 28.9385C21.2112 24.2979 21.2112 19.6572 21.2112 14.876C19.3163 14.9146 17.4214 14.9533 15.4691 14.9932C16.1976 16.3765 16.1976 16.3765 16.9346 17.7553C17.6471 19.118 17.9876 20.2239 17.5796 21.7573C17.0857 23.2386 16.1158 24.2881 14.744 24.9907C13.5345 25.5822 12.1026 25.6137 10.7944 25.3208C9.15069 24.7268 8.15738 23.6499 7.40647 22.1146C6.9933 21.1604 6.93958 19.9529 7.30307 18.972C7.51418 18.4758 7.76421 18.0005 8.01621 17.5241C8.10558 17.3486 8.19463 17.1729 8.28336 16.997C8.51523 16.5397 8.75155 16.0849 8.98892 15.6304C9.23101 15.1647 9.46848 14.6967 9.7065 14.2289C10.0534 13.549 10.4018 12.8698 10.7541 12.1926C10.8246 12.0569 10.8951 11.9213 10.9678 11.7815C11.1331 11.4775 11.1331 11.4775 11.2503 11.3604C11.5606 11.3492 11.8677 11.3456 12.178 11.347C12.2752 11.347 12.3723 11.347 12.4725 11.347C12.7952 11.3471 13.118 11.348 13.4407 11.3489C13.6639 11.3491 13.887 11.3493 14.1102 11.3494C14.6987 11.3499 15.2873 11.351 15.8759 11.3523C16.476 11.3535 17.0761 11.354 17.6762 11.3546C18.8545 11.3559 20.0329 11.358 21.2112 11.3604C21.2112 10.1615 21.2112 8.9627 21.2112 7.72754ZM12.305 17.3369C12.0838 17.759 11.8648 18.1822 11.6477 18.6065C11.5736 18.7506 11.4989 18.8944 11.4236 19.0378C11.3153 19.2444 11.2093 19.4522 11.1034 19.6601C11.0389 19.7846 10.9745 19.9092 10.9081 20.0376C10.7679 20.4212 10.762 20.5891 10.8987 20.9697C11.4064 21.5527 11.4064 21.5527 12.1022 21.8294C12.7775 21.8398 13.1882 21.7933 13.7112 21.3213C13.9487 21.0494 13.9487 21.0494 14.0628 20.7354C14.009 20.2654 13.8395 19.8962 13.6266 19.477C13.5635 19.352 13.5004 19.227 13.4354 19.0982C13.3694 18.9689 13.3033 18.8397 13.2352 18.7065C13.1354 18.5093 13.1354 18.5093 13.0335 18.3081C12.8694 17.984 12.7047 17.6603 12.5394 17.3369C12.462 17.3369 12.3847 17.3369 12.305 17.3369ZM33.3987 17.3369C33.1775 17.759 32.9585 18.1822 32.7414 18.6065C32.6673 18.7506 32.5926 18.8944 32.5174 19.0378C32.4091 19.2444 32.3031 19.4522 32.1971 19.6601C32.1327 19.7846 32.0682 19.9092 32.0019 20.0376C31.8616 20.4212 31.8557 20.5891 31.9925 20.9697C32.5002 21.5527 32.5002 21.5527 33.196 21.8294C33.8712 21.8398 34.282 21.7933 34.805 21.3213C35.0425 21.0494 35.0425 21.0494 35.1566 20.7354C35.1028 20.2654 34.9333 19.8962 34.7203 19.477C34.6572 19.352 34.5942 19.227 34.5292 19.0982C34.4631 18.9689 34.397 18.8397 34.3289 18.7065C34.2291 18.5093 34.2291 18.5093 34.1273 18.3081C33.9632 17.984 33.7985 17.6603 33.6331 17.3369C33.5558 17.3369 33.4784 17.3369 33.3987 17.3369Z" fill="#FF4242"/>
<path d="M50.5756 33.2326C51.6859 34.0469 52.5621 35.183 52.8516 36.5555C53.0035 38.197 52.8707 39.6371 51.8701 41.0013C51.4413 41.509 50.972 41.9675 50.4034 42.3164C49.8746 42.6442 49.7042 42.9185 49.5232 43.5085C49.3952 44.0793 49.3855 44.6517 49.3726 45.2347C49.3605 45.6576 49.3484 46.0806 49.3359 46.5164C48.1758 46.5164 47.0156 46.5164 45.8203 46.5164C45.8067 45.9934 45.7951 45.4709 45.7881 44.9479C45.7852 44.7707 45.7812 44.5935 45.7761 44.4164C45.7321 42.856 45.962 41.5408 47.005 40.305C47.4778 39.8059 47.9766 39.3604 48.5596 38.9944C48.886 38.769 48.9615 38.6728 49.1016 38.3133C49.1681 37.7815 49.1641 37.2961 48.9624 36.7972C48.6363 36.4261 48.3886 36.2309 47.8862 36.1705C47.3055 36.1506 46.8609 36.1559 46.4062 36.5555C46.1031 36.9669 46.0415 37.2074 45.9375 37.7273C44.7387 37.7273 43.5398 37.7273 42.3047 37.7273C42.3047 36.0592 42.7635 34.9786 43.8963 33.7814C45.683 32.0947 48.5394 31.9337 50.5756 33.2326Z" fill="#FF4242"/>
<path d="M45.8203 50.0322C46.9805 50.0322 48.1406 50.0322 49.3359 50.0322C49.3359 51.1924 49.3359 52.3525 49.3359 53.5479C48.1758 53.5479 47.0156 53.5479 45.8203 53.5479C45.8203 52.3877 45.8203 51.2275 45.8203 50.0322Z" fill="#FF4242"/>
</g>
<defs>
<clipPath id="clip0_1_2212">
<rect width="60" height="60" fill="white" transform="translate(0 0.696289)"/>
</clipPath>
</defs>
</svg>
