<svg width="60" height="60" viewBox="0 0 60 60" fill="none" xmlns="http://www.w3.org/2000/svg">
<g clip-path="url(#clip0_1_2189)">
<path d="M21.2109 0C28.2106 0 35.2102 0 42.4219 0C42.4219 1.19883 42.4219 2.39766 42.4219 3.63281C41.2617 3.63281 40.1016 3.63281 38.9063 3.63281C38.9063 8.66016 38.9063 13.6875 38.9063 18.8672C39.2543 18.9445 39.6024 19.0219 39.9609 19.1016C40.3012 19.2301 40.6271 19.3615 40.957 19.5117C41.0473 19.5525 41.1376 19.5933 41.2306 19.6354C43.4192 20.6484 45.2521 22.0174 46.9922 23.6719C47.0736 23.7457 47.155 23.8196 47.2389 23.8957C50.3562 26.8202 52.034 31.2452 52.6172 35.3906C52.6282 35.4653 52.6393 35.54 52.6507 35.6169C52.7672 36.5018 52.7628 37.3927 52.7637 38.2837C52.7638 38.3691 52.7639 38.4546 52.764 38.5426C52.7627 40.015 52.6644 41.4423 52.3828 42.8906C52.3574 43.0226 52.3574 43.0226 52.3315 43.1573C51.662 46.5113 50.2554 49.6759 48.1641 52.3828C48.0878 52.4831 48.0115 52.5834 47.9329 52.6868C46.1972 54.8928 44.0959 56.6137 41.6016 57.8906C41.5293 57.9279 41.457 57.9652 41.3825 58.0036C38.8491 59.2922 36.0478 60.0023 33.2039 60.0279C33.0985 60.0291 32.9931 60.0302 32.8845 60.0314C28.5182 60.069 28.5182 60.069 26.3672 59.5312C26.2793 59.5106 26.1914 59.4899 26.1008 59.4685C22.869 58.6922 19.9753 57.0062 17.5781 54.7266C17.5188 54.6704 17.4594 54.6142 17.3982 54.5563C14.3152 51.6207 12.3573 47.8151 11.3965 43.689C11.3732 43.5889 11.3499 43.4888 11.3259 43.3857C10.9643 41.7464 10.8541 40.1459 10.8618 38.4741C10.8621 38.376 10.8623 38.2778 10.8626 38.1767C10.8686 36.7133 10.92 35.2983 11.25 33.8672C11.2849 33.7087 11.2849 33.7087 11.3206 33.5471C12.4399 28.5652 15.2883 23.9628 19.6385 21.1725C21.2233 20.1835 22.8716 19.4451 24.6094 18.75C24.6481 13.7613 24.6867 8.77266 24.7266 3.63281C23.5664 3.63281 22.4063 3.63281 21.2109 3.63281C21.2109 2.43398 21.2109 1.23516 21.2109 0ZM28.3594 3.63281C28.3594 9.54961 28.3594 15.4664 28.3594 21.5625C27.7213 21.6785 27.7213 21.6785 27.0703 21.7969C26.725 21.8921 26.3905 21.9898 26.0523 22.1045C25.9627 22.1347 25.8732 22.165 25.7809 22.1961C23.8177 22.8833 21.967 23.9599 20.3906 25.3125C20.2944 25.3944 20.1982 25.4763 20.099 25.5606C16.7918 28.4512 14.8162 32.5997 14.4335 36.9675C14.1118 41.9107 15.4219 46.7829 18.6662 50.5875C18.9239 50.8782 19.1865 51.1628 19.4531 51.4453C19.5626 51.564 19.5626 51.564 19.6742 51.6852C22.3299 54.4689 26.457 56.2063 30.2849 56.3861C30.7466 56.3915 31.2082 56.396 31.6699 56.3965C31.7955 56.3967 31.7955 56.3967 31.9237 56.3968C33.2638 56.3956 34.5498 56.313 35.8594 56.0156C36.0803 55.9687 36.0803 55.9687 36.3057 55.9209C40.647 54.8872 44.2528 52.0615 46.5955 48.3156C49.1164 44.1428 49.8554 39.0055 48.7203 34.2728C47.6884 30.3287 45.5244 26.8747 42.1875 24.4922C42.1226 24.4457 42.0577 24.3992 41.9908 24.3513C40.0107 22.9564 37.6778 21.906 35.2734 21.5625C35.2734 15.6457 35.2734 9.72891 35.2734 3.63281C32.9918 3.63281 30.7102 3.63281 28.3594 3.63281Z" fill="#FF4242"/>
<path d="M28.6641 26C29.8629 26 31.0617 26 32.2969 26C32.2969 27.2375 32.2969 28.475 32.2969 29.75C32.7609 29.866 33.225 29.982 33.7031 30.1016C34.2675 30.3447 34.8011 30.6343 35.3438 30.9219C35.4158 30.8467 35.4879 30.7715 35.5622 30.6941C35.8301 30.4162 36.0993 30.1397 36.3694 29.864C36.4861 29.7444 36.6023 29.6242 36.7179 29.5035C36.8841 29.3302 37.0521 29.1589 37.2206 28.9878C37.3212 28.8841 37.4219 28.7804 37.5256 28.6735C37.8047 28.4609 37.8047 28.4609 38.0423 28.4554C38.3521 28.6199 38.5607 28.826 38.8063 29.0766C38.9052 29.1767 39.0042 29.2768 39.1061 29.3799C39.2084 29.4851 39.3106 29.5903 39.416 29.6987C39.5201 29.8044 39.6242 29.9101 39.7314 30.0189C39.9884 30.2801 40.2446 30.542 40.5 30.8047C40.3226 31.2228 40.0775 31.4887 39.7557 31.8063C39.656 31.9052 39.5563 32.0042 39.4536 32.1061C39.3493 32.2084 39.2451 32.3106 39.1377 32.416C39.0326 32.5201 38.9274 32.6242 38.8191 32.7314C38.5596 32.9881 38.2996 33.2443 38.0391 33.5C38.241 34.0106 38.4683 34.504 38.7051 34.9992C38.9112 35.5013 39.055 36.027 39.2109 36.5469C40.4098 36.5855 41.6086 36.6242 42.8438 36.6641C42.8438 37.8629 42.8438 39.0617 42.8438 40.2969C41.6063 40.2969 40.3687 40.2969 39.0938 40.2969C39.0551 40.6062 39.0164 40.9156 38.9766 41.2344C38.8195 41.6683 38.8195 41.6683 38.6323 42.084C38.5708 42.2224 38.5094 42.3607 38.446 42.5033C38.3149 42.7856 38.1783 43.0653 38.0391 43.3438C38.8512 44.1559 39.6633 44.968 40.5 45.8047C40.2794 46.246 40.1002 46.4664 39.7557 46.8063C39.656 46.9052 39.5563 47.0042 39.4536 47.1061C39.3493 47.2084 39.2451 47.3106 39.1377 47.416C39.0326 47.5201 38.9274 47.6242 38.8191 47.7314C38.5596 47.9881 38.2996 48.2443 38.0391 48.5C37.621 48.3226 37.355 48.0775 37.0375 47.7557C36.9385 47.656 36.8396 47.5563 36.7376 47.4536C36.6354 47.3493 36.5331 47.2451 36.4277 47.1377C36.3237 47.0326 36.2196 46.9274 36.1123 46.8191C35.8556 46.5596 35.5994 46.2996 35.3438 46.0391C35.2848 46.0668 35.2258 46.0946 35.165 46.1233C34.8932 46.2504 34.6204 46.3754 34.3477 46.5005C34.2549 46.5442 34.1622 46.588 34.0666 46.633C33.9744 46.6749 33.8823 46.7169 33.7874 46.76C33.6622 46.818 33.6622 46.818 33.5344 46.8772C33.2344 46.9766 33.2344 46.9766 32.2969 47.0938C32.2969 48.3312 32.2969 49.5688 32.2969 50.8438C31.098 50.8438 29.8992 50.8438 28.6641 50.8438C28.6641 49.6063 28.6641 48.3687 28.6641 47.0938C28.3547 47.0551 28.0453 47.0164 27.7266 46.9766C27.2967 46.8195 27.2967 46.8195 26.8843 46.6323C26.7473 46.5708 26.6103 46.5094 26.4691 46.446C26.3426 46.3891 26.2162 46.3321 26.0859 46.2734C25.8926 46.1961 25.6992 46.1187 25.5 46.0391C24.6879 46.8512 23.8758 47.6633 23.0391 48.5C22.1162 47.709 22.1162 47.709 21.7541 47.3437C21.6775 47.2666 21.6008 47.1896 21.5218 47.1102C21.4448 47.0323 21.3679 46.9543 21.2886 46.874C21.2084 46.7934 21.1283 46.7127 21.0457 46.6296C20.8505 46.433 20.6556 46.2362 20.4609 46.0391C20.6383 45.621 20.8834 45.355 21.2053 45.0375C21.305 44.9385 21.4047 44.8396 21.5074 44.7376C21.6116 44.6354 21.7159 44.5331 21.8232 44.4277C21.9284 44.3237 22.0335 44.2196 22.1418 44.1123C22.4013 43.8556 22.6614 43.5994 22.9219 43.3438C22.8244 43.1443 22.8244 43.1443 22.725 42.9409C22.6392 42.7627 22.5535 42.5845 22.4678 42.4062C22.425 42.3191 22.3823 42.2319 22.3382 42.1421C22.2967 42.0553 22.2551 41.9684 22.2123 41.8789C22.1743 41.8004 22.1362 41.7218 22.097 41.6409C21.9428 41.2449 21.8531 40.8264 21.75 40.4141C20.5125 40.3754 19.275 40.3367 18 40.2969C18 39.098 18 37.8992 18 36.6641C19.2375 36.6641 20.475 36.6641 21.75 36.6641C21.866 36.2 21.982 35.7359 22.1016 35.2578C22.2938 34.8293 22.2938 34.8293 22.4824 34.4961C22.734 34.0875 22.734 34.0875 22.7856 33.6305C22.6516 33.2921 22.4495 33.1153 22.1849 32.8665C22.0843 32.7696 21.9837 32.6728 21.88 32.573C21.6659 32.3702 21.4514 32.1679 21.2364 31.966C21.1361 31.8692 21.0358 31.7724 20.9324 31.6726C20.7927 31.5408 20.7927 31.5408 20.6502 31.4064C20.4609 31.1562 20.4609 31.1562 20.4599 30.9232C20.7352 30.3744 21.2395 29.9663 21.6694 29.5376C21.7712 29.4325 21.8729 29.3275 21.9777 29.2192C22.0762 29.1205 22.1746 29.0218 22.276 28.9201C22.3661 28.8292 22.4561 28.7383 22.5489 28.6446C22.8047 28.4609 22.8047 28.4609 23.0401 28.4594C23.3533 28.6187 23.5461 28.8238 23.7857 29.0807C23.882 29.1814 23.9783 29.282 24.0775 29.3856C24.279 29.5995 24.4798 29.814 24.6799 30.0292C24.7764 30.1295 24.8728 30.2298 24.9722 30.3332C25.103 30.4729 25.103 30.4729 25.2365 30.6155C25.4881 30.8385 25.4881 30.8385 25.8094 30.7835C26.0999 30.6827 26.3522 30.559 26.6206 30.4092C27.2578 30.1016 27.2578 30.1016 28.6641 29.75C28.6641 28.5125 28.6641 27.275 28.6641 26ZM26.5153 34.8788C25.5468 36.1792 25.1514 37.6016 25.321 39.2115C25.5434 40.5869 26.1338 41.7906 27.2285 42.6846C28.5062 43.5557 29.9591 43.8728 31.4798 43.6413C32.883 43.3343 34.0515 42.5999 34.8466 41.3896C35.6223 40.035 35.8647 38.4315 35.4756 36.9026C35.0388 35.5793 34.3028 34.5926 33.1172 33.8516C32.7347 33.6665 32.3497 33.5127 31.9453 33.3828C31.8763 33.3602 31.8072 33.3375 31.7361 33.3141C29.8335 32.9584 27.8592 33.4394 26.5153 34.8788Z" fill="#FF4242"/>
<path d="M52.9541 3.4792C53.093 3.48007 53.093 3.48007 53.2347 3.48095C53.9363 3.49501 54.5494 3.57835 55.1953 3.86739C55.2835 3.90591 55.3717 3.94443 55.4626 3.98412C56.9011 4.69593 57.6318 5.88874 58.1689 7.35372C58.5025 9.02521 58.203 10.7233 57.2758 12.1547C56.4509 13.2277 55.3167 13.9296 53.9795 14.1469C52.225 14.3349 50.7136 13.9797 49.3213 12.8835C48.2813 11.9245 47.782 10.6172 47.6628 9.23192C47.6144 7.6078 48.0642 6.0927 49.1821 4.88545C50.2559 3.8856 51.5109 3.46854 52.9541 3.4792ZM51.6797 7.61739C51.3166 8.14989 51.2366 8.63108 51.3281 9.25801C51.5277 9.80413 51.762 10.1343 52.2656 10.4299C52.7892 10.5712 53.1926 10.5904 53.7085 10.4152C54.1162 10.1308 54.3872 9.81962 54.6094 9.3752C54.6868 8.77014 54.6995 8.25013 54.3457 7.73457C54.0522 7.35772 53.7526 7.17672 53.2773 7.10927C52.6083 7.09885 52.1925 7.14212 51.6797 7.61739Z" fill="#FF4242"/>
<path d="M9.9083 16.5735C11.0721 17.3106 11.9698 18.3439 12.334 19.6877C12.639 21.2957 12.481 22.9248 11.5649 24.3092C10.6819 25.4654 9.48392 26.1699 8.04932 26.4406C6.44721 26.6035 4.91192 26.3345 3.60352 25.3493C2.60304 24.5009 1.96162 23.3311 1.75782 22.0314C1.64174 20.4178 1.88384 18.9844 2.92969 17.6955C2.98846 17.6222 3.04722 17.5489 3.10776 17.4734C4.75379 15.6352 7.8301 15.4119 9.9083 16.5735ZM5.63965 20.1857C5.42815 20.7027 5.3067 21.1564 5.46387 21.6977C5.71308 22.2553 5.99343 22.594 6.56251 22.8517C7.12256 22.9482 7.50563 22.9096 8.0127 22.6466C8.55693 22.1802 8.74775 21.8552 8.80326 21.1383C8.77874 20.6566 8.61717 20.2988 8.32032 19.922C7.94845 19.5961 7.58116 19.4649 7.08985 19.3947C6.4724 19.4829 6.04871 19.6948 5.63965 20.1857Z" fill="#FF4242"/>
<path d="M51.2109 17.5781C52.4098 17.5781 53.6086 17.5781 54.8438 17.5781C54.8438 18.777 54.8438 19.9758 54.8438 21.2109C53.6449 21.2109 52.4461 21.2109 51.2109 21.2109C51.2109 20.0121 51.2109 18.8133 51.2109 17.5781Z" fill="#FF4242"/>
<path d="M14.0625 12.3047C15.2613 12.3047 16.4602 12.3047 17.6953 12.3047C17.6953 13.5035 17.6953 14.7023 17.6953 15.9375C16.4965 15.9375 15.2977 15.9375 14.0625 15.9375C14.0625 14.7387 14.0625 13.5398 14.0625 12.3047Z" fill="#FF4242"/>
<path d="M3.51562 7.03125C4.71445 7.03125 5.91328 7.03125 7.14844 7.03125C7.14844 8.23008 7.14844 9.42891 7.14844 10.6641C5.94961 10.6641 4.75078 10.6641 3.51562 10.6641C3.51562 9.46523 3.51562 8.26641 3.51562 7.03125Z" fill="#FF4242"/>
</g>
<defs>
<clipPath id="clip0_1_2189">
<rect width="60" height="60" fill="white"/>
</clipPath>
</defs>
</svg>
