<svg width="35" height="38" viewBox="0 0 35 38" fill="none" xmlns="http://www.w3.org/2000/svg">
<path d="M18.6896 37.4307L34.8083 17.9255C34.9312 17.7757 35 17.5847 35 17.3834L35 12.8142C35 12.4322 34.5478 12.2566 34.3118 12.5457L19.368 30.6261L19.368 0.413028C19.368 0.185862 19.191 -6.91033e-07 18.9747 -7.00487e-07L16.0253 -8.29411e-07C15.809 -8.38866e-07 15.632 0.185862 15.632 0.413028L15.632 30.6209L0.688201 12.5406C0.44733 12.2515 -5.43202e-07 12.427 -5.59902e-07 12.8091L-7.66395e-07 17.5331C-7.70683e-07 17.6312 0.0344116 17.7293 0.0983154 17.8015L16.3104 37.4307C16.4584 37.6095 16.6411 37.7528 16.8464 37.851C17.0516 37.9492 17.2745 38 17.5 38C17.7255 38 17.9484 37.9492 18.1536 37.851C18.3589 37.7528 18.5416 37.6095 18.6896 37.4307Z" fill="#FF3636"/>
</svg>
