<svg width="50" height="51" viewBox="0 0 50 51" fill="none" xmlns="http://www.w3.org/2000/svg">
<g clip-path="url(#clip0_1_2232)">
<path d="M45.1889 6.70737C45.0876 6.70686 44.9864 6.70635 44.882 6.70582C44.6696 6.7052 44.4572 6.70532 44.2449 6.70615C43.9204 6.70699 43.5961 6.70416 43.2716 6.70108C43.0644 6.70092 42.8571 6.70097 42.6498 6.70127C42.5052 6.69962 42.5052 6.69962 42.3576 6.69794C41.7943 6.70364 41.46 6.75917 41.0156 7.14034C40.6613 7.51332 40.5947 7.81249 40.5762 8.31221C40.5947 8.81194 40.6613 9.11111 41.0156 9.48409C41.5009 9.8788 41.8403 9.93028 42.4397 9.92392C42.5191 9.92484 42.5986 9.92576 42.6804 9.92671C42.9332 9.9295 43.1859 9.92981 43.4387 9.92965C43.6905 9.93 43.9421 9.93095 44.1939 9.93363C44.35 9.93524 44.5061 9.93556 44.6622 9.93431C45.3037 9.94027 45.9459 10.0387 46.4294 10.4851C46.8342 11.1974 46.8053 11.8996 46.8028 12.6999C46.8032 12.8275 46.8035 12.955 46.8039 13.0865C46.8049 13.4395 46.8047 13.7926 46.8043 14.1456C46.8041 14.5268 46.8049 14.908 46.8057 15.2892C46.8069 16.0356 46.8071 16.7819 46.8069 17.5283C46.8067 18.135 46.8069 18.7418 46.8073 19.3485C46.8073 19.4349 46.8074 19.5213 46.8075 19.6103C46.8076 19.7858 46.8077 19.9613 46.8078 20.1368C46.8089 21.7823 46.8087 23.4278 46.8081 25.0733C46.8076 26.5781 46.8087 28.083 46.8105 29.5878C46.8124 31.1336 46.8132 32.6793 46.8129 34.225C46.8127 35.0926 46.8129 35.9602 46.8143 36.8278C46.8155 37.5664 46.8156 38.305 46.8144 39.0436C46.8138 39.4203 46.8137 39.797 46.8149 40.1737C46.8162 40.5824 46.8151 40.991 46.8139 41.3997C46.815 41.5776 46.815 41.5776 46.8161 41.759C46.8113 42.5012 46.7896 43.2354 46.2646 43.8042C45.7292 44.1084 45.2076 44.1765 44.5992 44.1773C44.4965 44.1778 44.4965 44.1778 44.3917 44.1784C44.1639 44.1793 43.9362 44.1789 43.7085 44.1785C43.5445 44.179 43.3805 44.1795 43.2165 44.1801C42.8641 44.1812 42.5117 44.1817 42.1594 44.1818C41.6015 44.182 41.0437 44.1838 40.4859 44.1858C39.1004 44.1906 37.7148 44.1936 36.3292 44.1957C35.2524 44.1973 34.1755 44.1996 33.0986 44.2038C32.5448 44.2059 31.9909 44.2067 31.4371 44.2065C31.0916 44.2067 30.7462 44.2081 30.4008 44.2098C30.2414 44.2103 30.0819 44.2104 29.9225 44.2099C28.8841 44.207 27.9542 44.2587 27.0386 44.8051C26.9658 44.8478 26.8931 44.8905 26.8181 44.9345C26.766 44.9663 26.7139 44.9981 26.6602 45.031C26.6596 44.8604 26.6596 44.8604 26.6591 44.6864C26.6555 43.6145 26.6498 42.5426 26.6422 41.4707C26.6383 40.9196 26.6352 40.3685 26.6337 39.8175C26.6322 39.2856 26.6289 38.7537 26.6242 38.2218C26.6227 38.019 26.622 37.8161 26.6219 37.6133C26.6217 37.329 26.619 37.0448 26.6158 36.7605C26.6163 36.6767 26.6168 36.593 26.6173 36.5067C26.6081 35.9812 26.5179 35.6839 26.1719 35.2653C25.7989 34.911 25.4997 34.8444 25 34.8259C24.5003 34.8444 24.2011 34.911 23.8281 35.2653C23.4138 35.7665 23.3805 36.138 23.3842 36.7605C23.3832 36.8501 23.3822 36.9397 23.3811 37.032C23.3783 37.3269 23.3781 37.6217 23.378 37.9166C23.3765 38.1215 23.3749 38.3265 23.3731 38.5315C23.3688 39.0699 23.3669 39.6084 23.3654 40.1469C23.3635 40.6967 23.3594 41.2466 23.3555 41.7965C23.3481 42.8746 23.3432 43.9528 23.3398 45.031C23.2714 44.9909 23.2029 44.9509 23.1323 44.9097C23.0397 44.857 22.947 44.8044 22.8516 44.7502C22.7609 44.6981 22.6703 44.646 22.5769 44.5923C21.9781 44.309 21.4161 44.2253 20.7587 44.2245C20.69 44.2241 20.6214 44.2238 20.5507 44.2234C20.323 44.2224 20.0954 44.2228 19.8677 44.2232C19.7036 44.2228 19.5394 44.2223 19.3752 44.2217C19.0228 44.2206 18.6704 44.22 18.3179 44.2199C17.7601 44.2197 17.2024 44.218 16.6446 44.216C15.2593 44.2112 13.874 44.2081 12.4887 44.2061C11.4116 44.2044 10.3345 44.2022 9.25734 44.198C8.70337 44.1958 8.14942 44.195 7.59546 44.1953C7.25024 44.1951 6.90504 44.1937 6.55983 44.192C6.40036 44.1915 6.24089 44.1914 6.08142 44.1919C4.73203 44.2327 4.73203 44.2327 3.57056 43.6394C3.16585 42.9271 3.19472 42.2248 3.1972 41.4245C3.19683 41.297 3.19645 41.1694 3.19607 41.038C3.19506 40.6849 3.19527 40.3318 3.19569 39.9788C3.19593 39.5976 3.19506 39.2164 3.19432 38.8352C3.19308 38.0889 3.1929 37.3425 3.19313 36.5961C3.19331 35.9894 3.19313 35.3826 3.19272 34.7759C3.19263 34.6463 3.19263 34.6463 3.19254 34.5141C3.19242 34.3386 3.19231 34.1631 3.19219 33.9876C3.19112 32.3421 3.19133 30.6966 3.19193 29.0511C3.19244 27.5463 3.19134 26.0414 3.18948 24.5366C3.18759 22.9909 3.18678 21.4451 3.18715 19.8994C3.18734 19.0318 3.18709 18.1642 3.18571 17.2966C3.18455 16.558 3.18441 15.8194 3.1856 15.0808C3.18617 14.7041 3.18628 14.3275 3.1851 13.9508C3.18385 13.5421 3.18487 13.1334 3.18612 12.7247C3.18539 12.6061 3.18467 12.4875 3.18393 12.3654C3.18867 11.6232 3.21035 10.889 3.73535 10.3203C4.32032 9.9879 4.89064 9.94483 5.54543 9.94567C5.70965 9.94369 5.87387 9.94165 6.03809 9.93956C6.29417 9.93735 6.55022 9.93575 6.8063 9.93518C7.05541 9.93424 7.3044 9.93095 7.55348 9.92736C7.66749 9.9281 7.66749 9.9281 7.7838 9.92885C8.29289 9.9197 8.57761 9.81519 8.98438 9.48409C9.33871 9.11111 9.40527 8.81194 9.42383 8.31221C9.40527 7.81249 9.33871 7.51332 8.98438 7.14034C8.45837 6.69039 8.01757 6.69238 7.35703 6.69783C7.25659 6.69746 7.15615 6.69709 7.05268 6.6967C6.84041 6.69644 6.62815 6.69715 6.41589 6.69879C6.09438 6.70087 5.77309 6.69881 5.45158 6.69631C3.71266 6.69389 2.51022 6.92837 1.19629 8.14742C0.182358 9.21874 -0.0445442 10.4002 -0.0378571 11.8307C-0.0382652 11.9677 -0.0388031 12.1046 -0.0394554 12.2416C-0.0408592 12.6157 -0.040451 12.9898 -0.0397301 13.3639C-0.0392647 13.7683 -0.0404892 14.1726 -0.0414886 14.577C-0.0431633 15.3682 -0.043251 16.1595 -0.0427399 16.9508C-0.0423431 17.5942 -0.0424843 18.2375 -0.0430069 18.8809C-0.0430794 18.9726 -0.0431519 19.0643 -0.0432281 19.1587C-0.0433769 19.345 -0.0435295 19.5313 -0.0436821 19.7175C-0.0450211 21.4631 -0.0444908 23.2086 -0.0433693 24.9542C-0.0424004 26.5497 -0.043663 28.1453 -0.0459976 29.7409C-0.0483818 31.3807 -0.0493202 33.0206 -0.0486679 34.6605C-0.0483284 35.5805 -0.048542 36.5006 -0.0502548 37.4206C-0.051693 38.2039 -0.0517502 38.9871 -0.0500526 39.7703C-0.049221 40.1696 -0.0490112 40.5688 -0.0505104 40.9681C-0.0518684 41.3343 -0.0513916 41.7004 -0.049511 42.0665C-0.0489731 42.2604 -0.0503349 42.4542 -0.0517883 42.648C-0.0401192 44.0769 0.43148 45.137 1.39771 46.1784C2.55582 47.2745 3.83766 47.4185 5.35872 47.4123C5.52388 47.4127 5.68905 47.4132 5.85421 47.4139C6.20819 47.415 6.56215 47.4153 6.91613 47.4148C7.4764 47.4142 8.03665 47.4157 8.59692 47.4176C9.88709 47.4216 11.1773 47.4227 12.4674 47.4238C13.6507 47.4248 14.834 47.4265 16.0173 47.4304C16.5737 47.4322 17.1301 47.4326 17.6865 47.4319C18.0331 47.4318 18.3797 47.4328 18.7263 47.4342C18.8864 47.4346 19.0465 47.4345 19.2066 47.4338C20.6034 47.4064 20.6034 47.4064 21.811 48.0286C21.9128 48.1318 22.0131 48.2365 22.1119 48.3425C22.1661 48.398 22.2203 48.4535 22.2761 48.5106C22.447 48.6861 22.6158 48.8634 22.7844 49.041C22.9551 49.2186 23.1263 49.3957 23.298 49.5724C23.4042 49.6818 23.5097 49.7919 23.6146 49.9027C23.955 50.2566 24.1972 50.4737 24.688 50.5325C24.7869 50.5338 24.8858 50.535 24.9878 50.5363C25.0862 50.5391 25.1847 50.5419 25.2861 50.5447C25.8963 50.4531 26.303 50.002 26.7109 49.5685C26.8117 49.4643 26.9126 49.3601 27.0136 49.2559C27.1698 49.0937 27.3255 48.9311 27.4802 48.7673C27.6313 48.6078 27.7843 48.4503 27.9377 48.2929C27.9826 48.2444 28.0275 48.1959 28.0737 48.1459C28.7149 47.4951 29.4816 47.4415 30.3439 47.4343C30.5715 47.4341 30.799 47.4352 31.0266 47.4363C31.1913 47.4361 31.3559 47.4357 31.5206 47.4352C31.8739 47.4344 32.2272 47.4345 32.5804 47.4352C33.14 47.4364 33.6995 47.4352 34.259 47.4336C35.6487 47.4301 37.0384 47.4295 38.4282 47.4297C39.5086 47.4299 40.589 47.4292 41.6694 47.4258C42.2246 47.4242 42.7799 47.4244 43.3352 47.4259C43.6818 47.4265 44.0284 47.4254 44.375 47.4239C44.5347 47.4236 44.6943 47.4239 44.854 47.4249C46.4449 47.4345 47.6191 47.0761 48.8037 45.977C49.8176 44.9057 50.0445 43.7242 50.0379 42.2937C50.0383 42.1567 50.0388 42.0198 50.0395 41.8828C50.0409 41.5087 50.0405 41.1346 50.0397 40.7605C50.0393 40.3562 50.0405 39.9518 50.0415 39.5475C50.0432 38.7562 50.0433 37.9649 50.0427 37.1736C50.0423 36.5303 50.0425 35.8869 50.043 35.2435C50.0431 35.1518 50.0432 35.0602 50.0432 34.9657C50.0434 34.7794 50.0435 34.5932 50.0437 34.4069C50.045 32.6614 50.0445 30.9158 50.0434 29.1703C50.0424 27.5747 50.0437 25.9791 50.046 24.3836C50.0484 22.7437 50.0493 21.1038 50.0487 19.4639C50.0483 18.5439 50.0485 17.6238 50.0503 16.7038C50.0517 15.9206 50.0518 15.1373 50.0501 14.3541C50.0492 13.9548 50.049 13.5556 50.0505 13.1563C50.0519 12.7902 50.0514 12.4241 50.0495 12.0579C50.049 11.8641 50.0503 11.6702 50.0518 11.4764C50.0401 10.0475 49.5685 8.98743 48.6023 7.946C47.6278 7.02367 46.5034 6.70343 45.1889 6.70737Z" fill="#FF4242"/>
<path d="M27.9724 0.449297C27.9009 0.448612 27.8294 0.447928 27.7556 0.447222C27.5207 0.445512 27.2858 0.446638 27.0508 0.447962C26.8866 0.447698 26.7225 0.447319 26.5583 0.446829C26.2148 0.446254 25.8714 0.447087 25.528 0.448915C25.0886 0.451141 24.6493 0.449859 24.2099 0.44752C23.8711 0.446106 23.5323 0.446559 23.1935 0.44757C23.0315 0.44783 22.8696 0.447513 22.7076 0.446601C22.4809 0.445605 22.2543 0.447127 22.0276 0.449297C21.8988 0.449608 21.77 0.449918 21.6374 0.450238C21.1077 0.525678 20.8112 0.760238 20.4749 1.16555C20.2893 1.52081 20.2601 1.75417 20.253 2.15313C20.2498 2.27902 20.2467 2.4049 20.2435 2.5346C20.242 2.66608 20.2406 2.79756 20.2393 2.92904C20.2365 3.06281 20.2336 3.19658 20.2305 3.33035C20.2236 3.65638 20.2184 3.98235 20.2148 4.30844C20.1247 4.21678 20.1247 4.21678 20.0328 4.12328C19.809 3.89611 19.5847 3.6694 19.3601 3.44298C19.2631 3.34502 19.1663 3.24689 19.0697 3.14858C18.9306 3.00703 18.7908 2.86613 18.6508 2.72534C18.567 2.64044 18.4831 2.55555 18.3967 2.46808C18.0041 2.11294 17.726 2.03242 17.1997 2.02572C17.1013 2.02295 17.0028 2.02018 16.9014 2.01733C16.314 2.10551 15.9115 2.53257 15.504 2.93934C15.4566 2.98639 15.4092 3.03345 15.3604 3.08193C15.2055 3.23597 15.0513 3.3907 14.8972 3.5455C14.789 3.6535 14.6809 3.76148 14.5727 3.86944C14.3468 4.09502 14.1213 4.32095 13.896 4.54714C13.6075 4.83678 13.3181 5.12552 13.0284 5.41402C12.8052 5.63651 12.5825 5.85947 12.3599 6.08257C12.2534 6.18924 12.1467 6.29576 12.0398 6.40214C11.8907 6.55076 11.7422 6.69999 11.5939 6.84941C11.5094 6.9341 11.4248 7.0188 11.3377 7.10606C10.9879 7.49827 10.9075 7.77739 10.9009 8.30013C10.8981 8.39858 10.8953 8.49702 10.8925 8.59844C11.0108 9.38644 11.7393 9.918 12.2803 10.4486C12.367 10.5344 12.4537 10.6203 12.5431 10.7087C12.7562 10.9195 12.9697 11.1298 13.1836 11.3397C13.1009 11.3406 13.0182 11.3415 12.9329 11.3425C12.6238 11.3468 12.3148 11.3528 12.0058 11.36C11.8725 11.3627 11.7391 11.3648 11.6057 11.3661C11.4132 11.3683 11.2208 11.373 11.0283 11.3778C10.9127 11.3799 10.7971 11.3819 10.6781 11.384C10.1656 11.4677 9.87778 11.6881 9.55629 12.089C9.34116 12.4746 9.32552 12.7129 9.32446 13.1524C9.32343 13.2597 9.32343 13.2597 9.32239 13.3692C9.32068 13.6042 9.3218 13.8391 9.32313 14.0741C9.32286 14.2382 9.32248 14.4024 9.32199 14.5665C9.32142 14.91 9.32225 15.2534 9.32408 15.5969C9.32631 16.0363 9.32503 16.4756 9.32269 16.9149C9.32127 17.2537 9.32172 17.5925 9.32273 17.9313C9.32299 18.0933 9.32268 18.2553 9.32176 18.4172C9.32077 18.644 9.32229 18.8705 9.32446 19.0973C9.32477 19.226 9.32508 19.3548 9.3254 19.4875C9.40084 20.0172 9.6354 20.3137 10.0407 20.6499C10.396 20.8355 10.6293 20.8648 11.0283 20.8719C11.2171 20.8766 11.2171 20.8766 11.4098 20.8814C11.5412 20.8828 11.6727 20.8842 11.8042 20.8856C11.938 20.8883 12.0717 20.8913 12.2055 20.8944C12.5315 20.9012 12.8575 20.9064 13.1836 20.91C13.1225 20.9701 13.0614 21.0302 12.9984 21.0921C12.7713 21.3159 12.5446 21.5402 12.3181 21.7647C12.2202 21.8617 12.1221 21.9585 12.0237 22.0551C11.8822 22.1943 11.7413 22.3341 11.6005 22.474C11.5156 22.5579 11.4307 22.6418 11.3432 22.7282C10.9881 23.1207 10.9076 23.3989 10.9009 23.9251C10.8981 24.0236 10.8953 24.122 10.8925 24.2234C10.9807 24.8108 11.4077 25.2133 11.8145 25.6209C11.8616 25.6683 11.9086 25.7157 11.9571 25.7645C12.1111 25.9194 12.2659 26.0736 12.4207 26.2277C12.5287 26.3358 12.6366 26.444 12.7446 26.5522C12.9702 26.7781 13.1961 27.0036 13.4223 27.2289C13.7119 27.5174 14.0007 27.8068 14.2892 28.0964C14.5117 28.3196 14.7346 28.5424 14.9577 28.765C15.0644 28.8715 15.1709 28.9782 15.2773 29.085C15.4259 29.2341 15.5752 29.3826 15.7246 29.5309C15.8093 29.6155 15.894 29.7 15.9812 29.7871C16.3734 30.137 16.6526 30.2173 17.1753 30.224C17.2737 30.2267 17.3722 30.2295 17.4736 30.2324C18.2616 30.1141 18.7932 29.3855 19.3237 28.8446C19.4096 28.7578 19.4954 28.6711 19.5839 28.5817C19.7947 28.3687 20.005 28.1552 20.2148 27.9412C20.2162 28.0653 20.2162 28.0653 20.2176 28.1919C20.2219 28.501 20.228 28.81 20.2351 29.119C20.2379 29.2524 20.2399 29.3857 20.2413 29.5191C20.2434 29.7116 20.2482 29.9041 20.253 30.0966C20.255 30.2121 20.2571 30.3277 20.2592 30.4468C20.3429 30.9592 20.5633 31.2471 20.9642 31.5686C21.3497 31.7837 21.5881 31.7993 22.0276 31.8004C22.1349 31.8014 22.1349 31.8014 22.2444 31.8025C22.4794 31.8042 22.7142 31.803 22.9492 31.8017C23.1134 31.802 23.2775 31.8024 23.4417 31.8029C23.7852 31.8034 24.1286 31.8026 24.4721 31.8008C24.9114 31.7985 25.3507 31.7998 25.7901 31.8022C26.1289 31.8036 26.4677 31.8031 26.8065 31.8021C26.9685 31.8019 27.1304 31.8022 27.2924 31.8031C27.5191 31.8041 27.7457 31.8026 27.9724 31.8004C28.1012 31.8001 28.23 31.7998 28.3627 31.7994C28.8924 31.724 29.1888 31.4894 29.5251 31.0841C29.7107 30.7289 29.74 30.4955 29.747 30.0966C29.7502 29.9707 29.7533 29.8448 29.7566 29.7151C29.758 29.5836 29.7594 29.4521 29.7607 29.3206C29.7635 29.1869 29.7664 29.0531 29.7695 28.9193C29.7764 28.5933 29.7816 28.2673 29.7852 27.9412C29.8452 28.0023 29.9053 28.0634 29.9672 28.1264C30.191 28.3536 30.4153 28.5803 30.6399 28.8067C30.7369 28.9047 30.8337 29.0028 30.9303 29.1011C31.0695 29.2427 31.2093 29.3836 31.3492 29.5243C31.475 29.6517 31.475 29.6517 31.6033 29.7816C31.9959 30.1367 32.274 30.2173 32.8003 30.224C32.8987 30.2267 32.9972 30.2295 33.0986 30.2324C33.686 30.1442 34.0885 29.7171 34.496 29.3103C34.5434 29.2633 34.5908 29.2162 34.6397 29.1678C34.7945 29.0137 34.9487 28.859 35.1028 28.7042C35.211 28.5962 35.3192 28.4882 35.4274 28.3802C35.6532 28.1547 35.8787 27.9287 36.104 27.7025C36.3925 27.4129 36.6819 27.1242 36.9716 26.8357C37.1948 26.6132 37.4175 26.3902 37.6401 26.1671C37.7467 26.0604 37.8533 25.9539 37.9602 25.8475C38.1093 25.6989 38.2578 25.5497 38.4061 25.4003C38.4906 25.3156 38.5752 25.2309 38.6623 25.1436C39.0121 24.7514 39.0925 24.4723 39.0991 23.9495C39.1019 23.8511 39.1047 23.7527 39.1075 23.6512C38.9892 22.8632 38.2607 22.3317 37.7197 21.8011C37.633 21.7153 37.5463 21.6294 37.4569 21.5409C37.2438 21.3302 37.0303 21.1199 36.8164 20.91C36.9405 20.9086 36.9405 20.9086 37.0671 20.9072C37.3762 20.9029 37.6852 20.8969 37.9942 20.8897C38.1275 20.887 38.2609 20.8849 38.3943 20.8835C38.5868 20.8814 38.7793 20.8767 38.9717 20.8719C39.0873 20.8698 39.2029 20.8678 39.322 20.8657C39.8344 20.782 40.1222 20.5616 40.4437 20.1606C40.6589 19.7751 40.6745 19.5367 40.6756 19.0973C40.6762 19.0257 40.6769 18.9542 40.6776 18.8805C40.6793 18.6455 40.6782 18.4106 40.6769 18.1756C40.6771 18.0115 40.6775 17.8473 40.678 17.6831C40.6786 17.3397 40.6778 16.9963 40.6759 16.6528C40.6737 16.2134 40.675 15.7741 40.6773 15.3347C40.6787 14.9959 40.6783 14.6572 40.6773 14.3183C40.677 14.1564 40.6773 13.9944 40.6782 13.8324C40.6792 13.6057 40.6777 13.3791 40.6756 13.1524C40.6752 13.0236 40.6749 12.8949 40.6746 12.7622C40.5992 12.2325 40.3646 11.936 39.9593 11.5998C39.604 11.4141 39.3707 11.3849 38.9717 11.3778C38.7829 11.3731 38.7829 11.3731 38.5902 11.3683C38.4588 11.3669 38.3273 11.3655 38.1958 11.3641C38.062 11.3613 37.9283 11.3584 37.7945 11.3553C37.4685 11.3484 37.1425 11.3433 36.8164 11.3397C36.9081 11.2496 36.9081 11.2496 37.0016 11.1576C37.2287 10.9338 37.4554 10.7095 37.6819 10.485C37.7798 10.388 37.878 10.2912 37.9763 10.1946C38.1178 10.0554 38.2587 9.91559 38.3995 9.77566C38.4844 9.69179 38.5693 9.60792 38.6568 9.52151C39.0119 9.12894 39.0924 8.85082 39.0991 8.32455C39.1019 8.22611 39.1047 8.12766 39.1075 8.02624C39.0193 7.43887 38.5923 7.03634 38.1855 6.62882C38.1149 6.55773 38.1149 6.55773 38.0429 6.48519C37.8889 6.3303 37.7341 6.17613 37.5794 6.022C37.4713 5.91386 37.3634 5.80569 37.2554 5.69749C37.0298 5.47162 36.8039 5.2461 36.5777 5.02083C36.2881 4.73231 35.9993 4.44292 35.7108 4.15326C35.4883 3.93005 35.2654 3.70732 35.0423 3.48473C34.9356 3.37819 34.8291 3.2715 34.7227 3.16467C34.5741 3.01555 34.4249 2.86708 34.2754 2.71876C34.1907 2.63421 34.106 2.54967 34.0188 2.46257C33.6266 2.11271 33.3475 2.03237 32.8247 2.02572C32.7263 2.02295 32.6278 2.02018 32.5264 2.01733C31.7384 2.13563 31.2068 2.86416 30.6763 3.40511C30.5904 3.49185 30.5046 3.57858 30.4161 3.66795C30.2053 3.88101 29.995 4.09451 29.7852 4.30844C29.7842 4.22571 29.7833 4.14299 29.7824 4.05776C29.7781 3.74868 29.7721 3.43968 29.7649 3.13065C29.7622 2.9973 29.7601 2.86395 29.7587 2.73058C29.7566 2.53807 29.7518 2.34559 29.747 2.15313C29.745 2.03755 29.7429 1.92197 29.7408 1.80289C29.6571 1.29046 29.4367 1.00262 29.0358 0.68112C28.6503 0.465995 28.4119 0.450357 27.9724 0.449297ZM26.5625 3.62484C26.5791 4.46617 26.5791 4.46617 26.5916 5.30755C26.6227 6.40561 26.6227 6.40561 27.0508 6.8475C27.2228 6.96614 27.2228 6.96614 27.4109 7.03671C27.4868 7.06629 27.5627 7.09587 27.6409 7.12635C27.7839 7.18168 27.7839 7.18168 27.9297 7.23812C28.0618 7.29624 28.1936 7.3549 28.3253 7.41398C28.4701 7.47748 28.6149 7.54093 28.7598 7.60433C28.8281 7.63542 28.8964 7.66651 28.9668 7.69853C29.4703 7.91317 29.9225 8.01059 30.4688 7.92172C31.0926 7.65977 31.5114 7.20699 31.9763 6.72543C32.0835 6.61629 32.0835 6.61629 32.1928 6.50494C32.3675 6.32681 32.5415 6.14803 32.7148 5.96859C33.0826 6.12121 33.3141 6.35007 33.5922 6.63159C33.6597 6.69945 33.6597 6.69945 33.7285 6.76869C33.8712 6.9125 34.0133 7.05699 34.1553 7.2015C34.2523 7.29946 34.3493 7.39737 34.4463 7.49523C34.6835 7.73454 34.92 7.97445 35.1563 8.21469C35.0224 8.51725 34.8709 8.71591 34.6317 8.94329C34.5355 9.03657 34.5355 9.03657 34.4374 9.13174C34.3028 9.26038 34.168 9.38881 34.033 9.51702C33.5519 9.98446 33.1996 10.3733 33.1619 11.0704C33.181 11.5988 33.3628 12.0427 33.5693 12.5238C33.6033 12.6072 33.6373 12.6907 33.6723 12.7767C34.2493 14.1678 34.2493 14.1678 34.8633 14.4647C35.1608 14.5069 35.1608 14.5069 35.4878 14.5147C35.5936 14.5179 35.6994 14.5211 35.8085 14.5245C35.9417 14.5269 36.0749 14.5293 36.2122 14.5318C36.8496 14.5469 36.8496 14.5469 37.5 14.5623C37.5 15.5936 37.5 16.6248 37.5 17.6873C36.6587 17.704 36.6587 17.704 35.8173 17.7164C34.7192 17.7475 34.7192 17.7475 34.2773 18.1756C34.1587 18.3477 34.1587 18.3477 34.0881 18.5357C34.0586 18.6116 34.029 18.6875 33.9985 18.7658C33.9616 18.8611 33.9247 18.9563 33.8867 19.0545C33.8286 19.1866 33.7699 19.3185 33.7109 19.4501C33.6474 19.5949 33.5839 19.7398 33.5205 19.8846C33.4894 19.9529 33.4583 20.0212 33.4263 20.0916C33.2117 20.5951 33.1143 21.0473 33.2031 21.5936C33.4651 22.2174 33.9179 22.6362 34.3994 23.1012C34.4722 23.1726 34.5449 23.244 34.6199 23.3176C34.798 23.4923 34.9768 23.6663 35.1563 23.8397C35.0036 24.2075 34.7748 24.4389 34.4933 24.7171C34.448 24.762 34.4028 24.807 34.3562 24.8533C34.2123 24.9961 34.0679 25.1381 33.9233 25.2801C33.8254 25.3771 33.7275 25.4741 33.6296 25.5712C33.3903 25.8083 33.1504 26.0449 32.9102 26.2811C32.6076 26.1472 32.4089 25.9958 32.1816 25.7566C32.1194 25.6924 32.0572 25.6283 31.9931 25.5622C31.8645 25.4276 31.736 25.2928 31.6078 25.1579C31.1404 24.6768 30.7515 24.3245 30.0545 24.2868C29.526 24.3058 29.0822 24.4877 28.6011 24.6942C28.5176 24.7282 28.4342 24.7622 28.3482 24.7972C26.957 25.3742 26.957 25.3742 26.6602 25.9881C26.6179 26.2856 26.6179 26.2856 26.6102 26.6126C26.607 26.7184 26.6037 26.8243 26.6004 26.9333C26.598 27.0665 26.5955 27.1998 26.593 27.337C26.583 27.762 26.5729 28.187 26.5625 28.6248C25.5313 28.6248 24.5 28.6248 23.4375 28.6248C23.4209 27.7835 23.4209 27.7835 23.4084 26.9421C23.3773 25.8441 23.3773 25.8441 22.9492 25.4022C22.7772 25.2835 22.7772 25.2835 22.5891 25.213C22.5132 25.1834 22.4373 25.1538 22.3591 25.1233C22.2638 25.0864 22.1685 25.0496 22.0703 25.0116C21.9382 24.9534 21.8064 24.8948 21.6747 24.8357C21.5299 24.7722 21.3851 24.7087 21.2402 24.6453C21.1719 24.6143 21.1036 24.5832 21.0332 24.5511C20.5298 24.3365 20.0775 24.2391 19.5313 24.328C18.9074 24.5899 18.4887 25.0427 18.0237 25.5243C17.9522 25.597 17.8808 25.6698 17.8072 25.7447C17.6325 25.9229 17.4585 26.1017 17.2852 26.2811C16.9174 26.1285 16.6859 25.8996 16.4078 25.6181C16.3628 25.5729 16.3179 25.5276 16.2715 25.481C16.1288 25.3372 15.9868 25.1927 15.8447 25.0482C15.7478 24.9502 15.6507 24.8523 15.5537 24.7544C15.3165 24.5151 15.08 24.2752 14.8438 24.035C14.9776 23.7324 15.1291 23.5338 15.3683 23.3064C15.4324 23.2442 15.4966 23.182 15.5626 23.1179C15.6972 22.9893 15.832 22.8609 15.967 22.7327C16.4481 22.2652 16.8004 21.8763 16.8381 21.1793C16.819 20.6508 16.6372 20.207 16.4307 19.7259C16.3967 19.6425 16.3627 19.559 16.3277 19.473C15.7507 18.0818 15.7507 18.0818 15.1367 17.785C14.8393 17.7428 14.8393 17.7428 14.5123 17.735C14.3535 17.7302 14.3535 17.7302 14.1915 17.7252C13.9917 17.7216 13.9917 17.7216 13.7878 17.7179C13.1504 17.7028 13.1504 17.7028 12.5 17.6873C12.5 16.6561 12.5 15.6248 12.5 14.5623C13.3413 14.5457 13.3413 14.5457 14.1827 14.5333C15.2808 14.5022 15.2808 14.5022 15.7227 14.0741C15.8413 13.902 15.8413 13.902 15.9119 13.714C15.9415 13.638 15.971 13.5621 16.0015 13.4839C16.0384 13.3886 16.0753 13.2933 16.1133 13.1952C16.1714 13.0631 16.2301 12.9312 16.2891 12.7996C16.3526 12.6548 16.4161 12.5099 16.4795 12.3651C16.5106 12.2968 16.5417 12.2284 16.5737 12.1581C16.7883 11.6546 16.8858 11.2024 16.7969 10.6561C16.5349 10.0322 16.0822 9.6135 15.6006 9.14852C15.5278 9.07708 15.4551 9.00564 15.3801 8.93204C15.202 8.75733 15.0232 8.58336 14.8438 8.41C14.9964 8.04222 15.2252 7.81074 15.5068 7.53262C15.552 7.48765 15.5972 7.44268 15.6439 7.39636C15.7877 7.25363 15.9322 7.11159 16.0767 6.96957C16.1746 6.87259 16.2725 6.77557 16.3704 6.67851C16.6097 6.44135 16.8496 6.20481 17.0898 5.96859C17.3924 6.10248 17.5911 6.25392 17.8185 6.49311C17.8806 6.55725 17.9428 6.62139 18.0069 6.68747C18.1355 6.82206 18.264 6.95684 18.3922 7.09183C18.8596 7.57293 19.2485 7.92522 19.9455 7.96292C20.474 7.94388 20.9178 7.762 21.3989 7.55551C21.4824 7.52152 21.5659 7.48753 21.6518 7.45251C23.043 6.87553 23.043 6.87553 23.3398 6.26156C23.3821 5.96409 23.3821 5.96409 23.3898 5.63709C23.3931 5.53125 23.3963 5.4254 23.3996 5.31635C23.4033 5.11654 23.4033 5.11654 23.407 4.91268C23.4171 4.4877 23.4271 4.06271 23.4375 3.62484C24.4688 3.62484 25.5 3.62484 26.5625 3.62484Z" fill="#FF4242"/>
<path d="M21.4662 10.8316C20.0973 11.7431 19.1253 13.195 18.7883 14.8056C18.5949 16.0379 18.6233 17.4235 19.1403 18.5669C19.1867 18.6715 19.233 18.7761 19.2807 18.8839C20.0649 20.4844 21.3699 21.5768 23.0466 22.1802C24.7474 22.6739 26.6208 22.4774 28.1657 21.639C29.7862 20.7002 30.6923 19.2739 31.2052 17.5047C31.5688 15.8113 31.1869 14.0406 30.2932 12.5915C28.3484 9.66723 24.3859 9.03115 21.4662 10.8316ZM27.4411 14.1724C28.0232 15.0296 28.105 15.7798 28.0271 16.8091C27.8406 17.6312 27.3883 18.292 26.6755 18.742C25.7323 19.2427 24.9612 19.3668 23.9255 19.0552C23.071 18.6865 22.4715 18.0783 22.0761 17.2363C21.8152 16.4072 21.8542 15.4953 22.2165 14.7095C22.6257 13.9965 23.1882 13.4698 23.9568 13.1626C25.2751 12.8378 26.5425 13.1499 27.4411 14.1724Z" fill="#FF4242"/>
<path d="M18.1671 37.9493C17.9912 37.9483 17.9912 37.9483 17.8118 37.9472C17.4914 37.9458 17.171 37.9461 16.8506 37.9474C16.5146 37.9484 16.1786 37.9474 15.8426 37.9468C15.2785 37.9461 14.7144 37.9471 14.1502 37.9489C13.4989 37.951 12.8475 37.9504 12.1962 37.9482C11.636 37.9464 11.0759 37.9462 10.5157 37.9472C10.1815 37.9478 9.84737 37.9479 9.51321 37.9466C9.14057 37.9456 8.76802 37.9471 8.39539 37.9493C8.28518 37.9485 8.17498 37.9477 8.06143 37.9469C7.45856 37.9534 7.09833 37.9855 6.64062 38.3905C6.28629 38.7634 6.21973 39.0626 6.20117 39.5623C6.21973 40.0621 6.28629 40.3612 6.64062 40.7342C7.18296 41.2141 7.69317 41.1804 8.39539 41.1754C8.57127 41.1764 8.57127 41.1764 8.7507 41.1775C9.07113 41.1789 9.39149 41.1786 9.71191 41.1773C10.0479 41.1763 10.3839 41.1772 10.7199 41.1779C11.284 41.1786 11.8481 41.1776 12.4123 41.1758C13.0636 41.1736 13.715 41.1743 14.3663 41.1765C14.9265 41.1783 15.4866 41.1785 16.0468 41.1775C16.381 41.1769 16.7151 41.1768 17.0493 41.1781C17.4219 41.1791 17.7945 41.1776 18.1671 41.1754C18.3324 41.1766 18.3324 41.1766 18.5011 41.1778C19.1039 41.1713 19.4642 41.1392 19.9219 40.7342C20.2762 40.3612 20.3428 40.0621 20.3613 39.5623C20.3428 39.0626 20.2762 38.7634 19.9219 38.3905C19.3795 37.9106 18.8693 37.9443 18.1671 37.9493Z" fill="#FF4242"/>
<path d="M41.6046 37.9493C41.4287 37.9483 41.4287 37.9483 41.2493 37.9472C40.9289 37.9458 40.6085 37.9461 40.2881 37.9474C39.9521 37.9484 39.6161 37.9474 39.2801 37.9468C38.716 37.9461 38.1519 37.9471 37.5877 37.9489C36.9364 37.951 36.285 37.9504 35.6337 37.9482C35.0735 37.9464 34.5134 37.9462 33.9532 37.9472C33.619 37.9478 33.2849 37.9479 32.9507 37.9466C32.5781 37.9456 32.2055 37.9471 31.8329 37.9493C31.7227 37.9485 31.6125 37.9477 31.4989 37.9469C30.8961 37.9534 30.5358 37.9855 30.0781 38.3905C29.7238 38.7634 29.6572 39.0626 29.6387 39.5623C29.6572 40.0621 29.7238 40.3612 30.0781 40.7342C30.6205 41.2141 31.1307 41.1804 31.8329 41.1754C32.0088 41.1764 32.0088 41.1764 32.1882 41.1775C32.5086 41.1789 32.829 41.1786 33.1494 41.1773C33.4854 41.1763 33.8214 41.1772 34.1574 41.1779C34.7215 41.1786 35.2856 41.1776 35.8498 41.1758C36.5011 41.1736 37.1525 41.1743 37.8038 41.1765C38.364 41.1783 38.9241 41.1785 39.4843 41.1775C39.8185 41.1769 40.1526 41.1768 40.4868 41.1781C40.8594 41.1791 41.232 41.1776 41.6046 41.1754C41.7699 41.1766 41.7699 41.1766 41.9386 41.1778C42.5414 41.1713 42.9017 41.1392 43.3594 40.7342C43.7137 40.3612 43.7803 40.0621 43.7988 39.5623C43.7803 39.0626 43.7137 38.7634 43.3594 38.3905C42.817 37.9106 42.3068 37.9443 41.6046 37.9493Z" fill="#FF4242"/>
<path d="M15.329 31.6993C15.1988 31.6983 15.1988 31.6983 15.066 31.6972C14.7803 31.6955 14.4947 31.6966 14.209 31.698C14.0098 31.6977 13.8106 31.6973 13.6114 31.6968C13.1944 31.6963 12.7774 31.6971 12.3604 31.6989C11.8264 31.7011 11.2925 31.6999 10.7586 31.6975C10.3474 31.6961 9.93622 31.6966 9.52504 31.6976C9.32818 31.6978 9.13133 31.6975 8.93447 31.6966C8.65911 31.6956 8.38387 31.6971 8.10852 31.6993C8.02754 31.6985 7.94655 31.6977 7.86312 31.6969C7.34467 31.7045 7.05403 31.8007 6.64062 32.1405C6.28629 32.5134 6.21973 32.8126 6.20117 33.3123C6.21973 33.8121 6.28629 34.1112 6.64062 34.4842C7.13615 34.8915 7.49432 34.9314 8.10852 34.9254C8.19529 34.9261 8.28207 34.9268 8.37147 34.9275C8.65718 34.9292 8.9428 34.928 9.22852 34.9267C9.42771 34.927 9.6269 34.9274 9.82609 34.9279C10.2431 34.9284 10.6601 34.9276 11.0771 34.9258C11.6111 34.9235 12.145 34.9248 12.6789 34.9272C13.0901 34.9286 13.5013 34.9281 13.9125 34.9271C14.1093 34.9269 14.3062 34.9272 14.503 34.9281C14.7784 34.9291 15.0536 34.9276 15.329 34.9254C15.41 34.9262 15.4909 34.927 15.5744 34.9278C16.0928 34.9202 16.3835 34.824 16.7969 34.4842C17.1512 34.1112 17.2178 33.8121 17.2363 33.3123C17.2178 32.8126 17.1512 32.5134 16.7969 32.1405C16.3013 31.7332 15.9432 31.6933 15.329 31.6993Z" fill="#FF4242"/>
<path d="M38.7665 31.6993C38.6363 31.6983 38.6363 31.6983 38.5035 31.6972C38.2178 31.6955 37.9322 31.6966 37.6465 31.698C37.4473 31.6977 37.2481 31.6973 37.0489 31.6968C36.6319 31.6963 36.2149 31.6971 35.7979 31.6989C35.2639 31.7011 34.73 31.6999 34.1961 31.6975C33.7849 31.6961 33.3737 31.6966 32.9625 31.6976C32.7657 31.6978 32.5688 31.6975 32.372 31.6966C32.0966 31.6956 31.8214 31.6971 31.546 31.6993C31.465 31.6985 31.3841 31.6977 31.3006 31.6969C30.7822 31.7045 30.4915 31.8007 30.0781 32.1405C29.7238 32.5134 29.6572 32.8126 29.6387 33.3123C29.6572 33.8121 29.7238 34.1112 30.0781 34.4842C30.5737 34.8915 30.9318 34.9314 31.546 34.9254C31.6328 34.9261 31.7196 34.9268 31.809 34.9275C32.0947 34.9292 32.3803 34.928 32.666 34.9267C32.8652 34.927 33.0644 34.9274 33.2636 34.9279C33.6806 34.9284 34.0976 34.9276 34.5146 34.9258C35.0486 34.9235 35.5825 34.9248 36.1164 34.9272C36.5276 34.9286 36.9388 34.9281 37.35 34.9271C37.5468 34.9269 37.7437 34.9272 37.9405 34.9281C38.2159 34.9291 38.4911 34.9276 38.7665 34.9254C38.8475 34.9262 38.9284 34.927 39.0119 34.9278C39.5303 34.9202 39.821 34.824 40.2344 34.4842C40.5887 34.1112 40.6553 33.8121 40.6738 33.3123C40.6553 32.8126 40.5887 32.5134 40.2344 32.1405C39.7388 31.7332 39.3807 31.6933 38.7665 31.6993Z" fill="#FF4242"/>
</g>
<defs>
<clipPath id="clip0_1_2232">
<rect width="50" height="50" fill="white" transform="matrix(-1 0 0 1 50 0.5)"/>
</clipPath>
</defs>
</svg>
