<svg width="60" height="61" viewBox="0 0 60 61" fill="none" xmlns="http://www.w3.org/2000/svg">
<path d="M7.03659 5.11346C7.19833 5.11287 7.36007 5.11202 7.52181 5.11094C7.96244 5.10874 8.40299 5.11015 8.84361 5.1122C9.32028 5.11377 9.79693 5.11195 10.2736 5.11058C11.2058 5.10843 12.138 5.10942 13.0703 5.11152C13.8282 5.11317 14.5861 5.11362 15.344 5.11323C15.4521 5.11317 15.5601 5.11312 15.6715 5.11306C15.8911 5.11294 16.1106 5.11282 16.3302 5.11269C18.2695 5.11169 20.2088 5.11364 22.1482 5.11712C24.0282 5.1205 25.9082 5.12133 27.7882 5.11953C29.8377 5.11756 31.8871 5.11709 33.9366 5.11914C34.1553 5.11936 34.374 5.11957 34.5927 5.11979C34.7003 5.11989 34.8079 5.12 34.9188 5.12011C35.6755 5.12077 36.4322 5.12038 37.1889 5.1196C38.1114 5.1187 39.034 5.1195 39.9566 5.12244C40.4269 5.1239 40.8972 5.12463 41.3676 5.12331C41.7988 5.12213 42.2299 5.12314 42.6611 5.12584C42.8896 5.12673 43.1181 5.12533 43.3466 5.12384C44.6535 5.13609 45.793 5.44113 46.7574 6.35895C47.5982 7.28166 48.0681 8.34781 48.0548 9.59946C48.0532 9.79755 48.0532 9.79755 48.0516 9.99964C48.0498 10.1434 48.0481 10.2872 48.0464 10.4354C48.0444 10.6692 48.0424 10.903 48.0405 11.1369C48.0392 11.3025 48.0378 11.4682 48.0363 11.6338C48.0309 12.2432 48.0279 12.8526 48.0264 13.462C48.0262 13.5506 48.026 13.6392 48.0258 13.7305C48.0249 14.096 48.0242 14.4615 48.0235 14.827C48.0216 15.8624 48.0171 16.8977 48.0051 17.9332C47.9955 18.7567 47.9914 19.5801 47.9936 20.4037C47.9945 20.839 47.9928 21.2739 47.9845 21.7091C47.8483 23.58 47.8483 23.58 48.4924 25.2399C48.8509 25.5772 49.2617 25.801 49.6871 26.0464C51.5999 27.8537 52.9542 30.7716 53.1044 33.4093C53.133 35.3949 53.0599 37.1216 52.344 38.997C52.238 39.3896 52.3047 39.622 52.5058 39.9722C52.5827 40.0827 52.5827 40.0827 52.6612 40.1955C52.7198 40.2805 52.7785 40.3655 52.8389 40.4531C52.9034 40.545 52.9679 40.6368 53.0343 40.7315C53.1018 40.829 53.1694 40.9265 53.239 41.0269C53.4606 41.3464 53.6832 41.6652 53.9058 41.984C54.0567 42.201 54.2074 42.4182 54.3581 42.6353C55.0042 43.5658 55.6507 44.4958 56.3045 45.4208C56.3898 45.542 56.475 45.6631 56.5628 45.7878C56.7258 46.0194 56.8893 46.2505 57.0536 46.4811C57.6721 47.3617 58.1819 48.1354 58.0074 49.2496C57.7498 49.9853 57.3341 50.6455 56.6524 51.044C55.5202 51.5417 54.3128 51.1477 53.1808 50.8316C52.9631 50.7729 52.9631 50.7729 52.7411 50.713C52.3867 50.6173 52.0328 50.5201 51.6793 50.4215C51.6688 50.5331 51.6583 50.6447 51.6474 50.7597C51.6071 51.1787 51.5629 51.5973 51.5176 52.0158C51.4987 52.196 51.4807 52.3764 51.4639 52.5568C51.2755 54.5577 51.2755 54.5577 50.5074 55.3433C49.8849 55.825 49.2635 55.8872 48.4873 55.856C47.6408 55.7411 47.1339 55.0462 46.6402 54.4058C46.3224 53.9645 46.018 53.514 45.7133 53.0637C45.3256 52.4909 44.9285 51.9248 44.5308 51.359C43.9685 50.5575 43.4097 49.7537 42.8569 48.9456C42.4901 48.4097 42.116 47.8796 41.7353 47.3535C41.6012 47.1402 41.6012 47.1402 41.6012 46.9058C41.0598 46.9058 40.5183 46.9058 39.9605 46.9058C39.8832 47.0992 39.8058 47.2925 39.7262 47.4918C39.5909 47.7114 39.5909 47.7114 39.441 47.9189C39.3569 48.0363 39.3569 48.0363 39.2712 48.1561C39.2111 48.239 39.1509 48.3219 39.089 48.4073C38.9605 48.5867 38.8322 48.7661 38.704 48.9456C38.607 49.0811 38.607 49.0811 38.508 49.2194C38.2306 49.6095 37.96 50.0042 37.69 50.3995C36.9912 51.4198 36.2836 52.4339 35.5713 53.4449C35.4153 53.667 35.2606 53.8899 35.1064 54.1133C34.6334 54.7871 34.1529 55.4346 33.398 55.8121C32.5285 55.8937 31.7722 55.8792 31.0543 55.3433C30.5556 54.8184 30.3357 54.3491 30.2514 53.635C30.2363 53.5085 30.2212 53.3821 30.2056 53.2518C30.1908 53.1202 30.176 52.9887 30.1607 52.8531C30.1372 52.6584 30.1372 52.6584 30.1131 52.4599C30.0334 51.7755 29.9811 51.1103 29.9996 50.4215C29.9022 50.4463 29.8047 50.4711 29.7044 50.4967C29.3383 50.5895 28.9721 50.6811 28.6056 50.7719C28.4478 50.8113 28.2902 50.851 28.1327 50.8913C25.7967 51.4872 25.7967 51.4872 24.7262 50.8902C24.1454 50.3886 23.799 49.9308 23.6788 49.169C23.6159 48.3065 23.9486 47.6316 24.4434 46.946C24.4963 46.8725 24.5492 46.799 24.6037 46.7233C24.6441 46.6675 24.6845 46.6117 24.7262 46.5543C24.6312 46.5539 24.5363 46.5535 24.4384 46.5531C22.1252 46.5436 19.8119 46.5328 17.4986 46.5206C16.3799 46.5147 15.2612 46.5093 14.1425 46.5048C13.1672 46.501 12.1918 46.4963 11.2164 46.4907C10.7003 46.4877 10.1841 46.4851 9.66797 46.4836C9.18146 46.482 8.69496 46.4795 8.20845 46.4761C8.03056 46.475 7.85266 46.4743 7.67476 46.4741C5.96435 46.4713 4.48464 46.3433 3.18563 45.126C2.05118 43.9174 1.83838 42.5592 1.84405 40.9583C1.8436 40.8229 1.84315 40.6875 1.84269 40.548C1.84169 40.1747 1.84174 39.8015 1.84224 39.4282C1.84253 39.0246 1.84147 38.6211 1.8406 38.2175C1.83911 37.4278 1.83889 36.6382 1.83917 35.8486C1.83938 35.2065 1.83917 34.5644 1.83867 33.9223C1.8386 33.8307 1.83853 33.7392 1.83846 33.6449C1.83832 33.4589 1.83818 33.273 1.83803 33.087C1.83676 31.3446 1.83701 29.6022 1.83773 27.8598C1.83833 26.2675 1.83701 24.6752 1.83479 23.0828C1.83251 21.4459 1.83155 19.809 1.83199 18.1721C1.83221 17.2538 1.83192 16.3356 1.83026 15.4174C1.82886 14.6356 1.82871 13.854 1.83012 13.0723C1.83081 12.6738 1.83075 12.2754 1.82954 11.877C1.82831 11.4441 1.82926 11.0113 1.83074 10.5784C1.82988 10.4538 1.82902 10.3293 1.82812 10.2009C1.83838 8.77509 2.20535 7.52925 3.16 6.44959C4.28035 5.36576 5.51971 5.09918 7.03659 5.11346ZM5.85897 9.28864C5.71852 9.56955 5.7266 9.74344 5.72573 10.0572C5.72513 10.1703 5.72454 10.2835 5.72393 10.4001C5.72387 10.5254 5.72381 10.6506 5.72375 10.7796C5.72324 10.9119 5.72272 11.0443 5.72219 11.1806C5.72062 11.6271 5.7199 12.0736 5.71918 12.5201C5.71832 12.839 5.71729 13.1579 5.71628 13.4768C5.7134 14.4359 5.71169 15.3951 5.71018 16.3542C5.70974 16.625 5.70928 16.8958 5.7088 17.1666C5.70584 18.8474 5.70326 20.5282 5.7018 22.209C5.70146 22.5985 5.70111 22.9879 5.70076 23.3773C5.70067 23.4741 5.70058 23.5709 5.70049 23.6706C5.69901 25.2392 5.69512 26.8078 5.69023 28.3764C5.68527 29.9861 5.6825 31.5957 5.68189 33.2053C5.68149 34.1094 5.68011 35.0134 5.67625 35.9175C5.67298 36.6874 5.67168 37.4571 5.67299 38.227C5.6736 38.6199 5.67294 39.0127 5.67036 39.4056C5.66772 39.8313 5.66867 40.257 5.67054 40.6827C5.66891 40.8072 5.66728 40.9316 5.66561 41.0598C5.67145 41.5977 5.68406 41.896 5.98413 42.3532C6.40149 42.6164 6.72938 42.6549 7.20889 42.6514C7.29662 42.653 7.38435 42.6547 7.47473 42.6564C7.76819 42.6612 8.06151 42.6618 8.35502 42.6624C8.56564 42.665 8.77626 42.6677 8.98688 42.6707C9.5588 42.6779 10.1307 42.6812 10.7026 42.6833C11.0602 42.6848 11.4178 42.687 11.7754 42.6894C13.0236 42.6976 14.2718 42.7023 15.52 42.7042C16.6823 42.7061 17.8444 42.7164 19.0066 42.7305C20.0053 42.7422 21.004 42.7475 22.0028 42.7481C22.599 42.7485 23.1948 42.7516 23.7909 42.7613C24.3522 42.7701 24.9129 42.7711 25.4741 42.7662C25.6794 42.7657 25.8848 42.768 26.09 42.7733C27.1501 42.8261 27.1501 42.8261 28.0849 42.4096C28.4373 42.0208 28.6968 41.5899 28.9458 41.1302C29.1194 40.8302 29.3383 40.572 29.5601 40.3067C29.8145 39.9399 29.8145 39.9399 29.8966 39.5129C29.8383 39.2303 29.7466 38.9741 29.648 38.7027C29.587 38.481 29.526 38.2592 29.4678 38.0367C29.4087 37.811 29.3469 37.586 29.285 37.361C28.516 34.335 29.1973 31.1098 30.6949 28.4282C32.4775 25.5607 35.1563 23.7104 38.4225 22.9044C40.4285 22.4844 42.2902 22.7127 44.2965 22.9996C44.3102 21.2679 44.3205 19.5362 44.3268 17.8044C44.3298 17.0003 44.334 16.1962 44.3407 15.3921C44.3471 14.6164 44.3505 13.8406 44.3521 13.0648C44.3531 12.7686 44.3553 12.4724 44.3584 12.1763C44.3627 11.7618 44.3633 11.3475 44.363 10.9331C44.3651 10.8103 44.3672 10.6874 44.3694 10.5609C44.3657 10.0379 44.3474 9.72543 44.0754 9.27058C43.546 8.95672 43.0982 8.97667 42.493 8.98774C42.3706 8.98766 42.2482 8.98757 42.1221 8.98748C41.7181 8.98789 41.3143 8.99245 40.9104 8.99704C40.6301 8.99814 40.3498 8.99897 40.0695 8.99955C39.3322 9.00179 38.595 9.00755 37.8577 9.01403C37.1052 9.02003 36.3526 9.0227 35.6001 9.02565C34.1239 9.03193 32.6477 9.04182 31.1715 9.05426C31.1713 9.13828 31.1711 9.2223 31.171 9.30886C31.1689 10.1053 31.164 10.9016 31.156 11.698C31.152 12.1073 31.149 12.5166 31.1486 12.9259C31.148 13.3978 31.1426 13.8696 31.1371 14.3414C31.1376 14.4866 31.1381 14.6318 31.1385 14.7814C31.1236 15.6808 31.0003 16.3963 30.4683 17.1402C29.9356 17.6308 29.3967 17.7945 28.6854 17.8726C27.6539 17.78 26.926 17.269 26.1251 16.6495C26.0236 16.5728 25.9222 16.4961 25.8177 16.4172C25.5701 16.2297 25.3235 16.0411 25.0777 15.8511C24.3805 16.3102 23.7026 16.7857 23.0361 17.2885C22.2696 17.8041 21.5274 17.8163 20.6246 17.7261C19.9047 17.4961 19.5081 16.9798 19.1507 16.3411C18.8751 15.6798 18.9276 14.9633 18.924 14.2586C18.9219 14.1063 18.9198 13.954 18.9176 13.7971C18.9121 13.3946 18.9086 12.9922 18.9055 12.5897C18.902 12.178 18.8966 11.7664 18.8913 11.3548C18.8812 10.5489 18.8733 9.74299 18.8668 8.93708C17.2573 8.92893 15.6478 8.92268 14.0383 8.91886C13.291 8.91702 12.5436 8.91453 11.7963 8.91055C11.0752 8.90674 10.3542 8.90463 9.63308 8.90372C9.35783 8.90307 9.08258 8.9018 8.80734 8.8999C8.42212 8.89736 8.03695 8.897 7.65172 8.89716C7.53767 8.8959 7.42362 8.89464 7.30612 8.89333C6.73111 8.89597 6.32047 8.90294 5.85897 9.28864ZM22.8512 9.05426C22.8512 10.2531 22.8512 11.4519 22.8512 12.6871C23.1992 12.455 23.5473 12.223 23.9058 11.984C24.5803 11.7019 25.1931 11.7078 25.898 11.8668C26.2027 11.9964 26.4395 12.1496 26.7183 12.3355C26.9117 12.4515 27.1051 12.5675 27.3043 12.6871C27.3043 11.4882 27.3043 10.2894 27.3043 9.05426C25.8348 9.05426 24.3652 9.05426 22.8512 9.05426ZM34.3355 29.5621C32.9325 31.4246 32.3298 33.6723 32.6368 35.9831C33.0247 38.1578 34.0742 40.1153 35.8773 41.4342C37.8467 42.788 39.9964 43.3241 42.3629 42.8995C44.5754 42.4158 46.5646 41.2153 47.8048 39.296C49.0141 37.3411 49.4294 35.1976 49.0247 32.9243C48.4847 30.6971 47.0711 28.7777 45.1461 27.5406C41.4133 25.4343 37.1037 26.3775 34.3355 29.5621ZM32.109 42.9215C31.8694 43.2508 31.6303 43.5805 31.3912 43.9102C31.291 44.0479 31.291 44.0479 31.1889 44.1883C30.7379 44.8109 30.304 45.4427 29.8824 46.0855C30.2651 46.2131 30.3343 46.1865 30.7027 46.0855C31.4376 46.0205 32.1798 46.0178 32.8121 46.4371C33.6201 47.2073 33.6691 48.1956 33.7496 49.2496C34.0703 48.943 34.334 48.6369 34.5809 48.2686C34.646 48.1723 34.7111 48.076 34.7782 47.9768C34.8448 47.8771 34.9114 47.7775 34.9801 47.6749C35.6891 46.6193 35.6891 46.6193 36.0238 46.2059C36.2347 45.988 36.2347 45.988 36.2105 45.734C36.1027 45.6812 35.9948 45.6285 35.8837 45.5742C34.7494 45.0037 33.7826 44.3223 32.8121 43.5074C32.6792 43.3967 32.5463 43.2861 32.4134 43.1755C32.3129 43.0917 32.2125 43.0078 32.109 42.9215ZM49.5626 43.3902C49.5103 43.4438 49.4581 43.4975 49.4042 43.5527C48.6411 44.329 47.8526 44.8928 46.9021 45.4103C46.5749 45.5885 46.255 45.7741 45.9371 45.9683C46.1022 46.4296 46.3206 46.7997 46.6004 47.2011C46.7254 47.3807 46.7254 47.3807 46.8529 47.5639C46.9398 47.6875 47.0267 47.8111 47.1163 47.9385C47.2037 48.0645 47.2911 48.1904 47.3811 48.3201C47.7074 48.7895 47.7074 48.7895 48.0465 49.2496C48.0851 49.2496 48.1238 49.2496 48.1637 49.2496C48.1809 49.0715 48.1809 49.0715 48.1985 48.8898C48.216 48.7314 48.2338 48.573 48.2516 48.4146C48.2588 48.3367 48.2661 48.2587 48.2735 48.1784C48.3525 47.5069 48.5882 47.0666 49.0641 46.5918C49.855 46.0527 50.7156 46.0938 51.634 46.2572C51.8466 46.3089 52.0565 46.3716 52.2652 46.4371C52.0998 46.0883 51.9091 45.7745 51.6912 45.4561C51.6253 45.3598 51.5595 45.2635 51.4916 45.1643C51.423 45.0646 51.3544 44.965 51.2838 44.8624C51.2161 44.7632 51.1484 44.664 51.0787 44.5618C50.589 43.8355 50.589 43.8355 50.0387 43.1558C49.7762 43.1286 49.7762 43.1286 49.5626 43.3902Z" fill="#FF4242"/>
<path d="M12.9077 28.9427C13.0008 28.9419 13.0938 28.9412 13.1898 28.9403C13.4961 28.9381 13.8024 28.9377 14.1087 28.9374C14.323 28.9367 14.5372 28.9359 14.7515 28.935C15.2003 28.9336 15.6491 28.9332 16.0979 28.9333C16.6705 28.9334 17.2431 28.9302 17.8158 28.9261C18.2583 28.9235 18.7009 28.9231 19.1435 28.9232C19.3544 28.9229 19.5654 28.9219 19.7764 28.9201C21.0879 28.9098 22.1041 28.9565 23.2329 29.6945C23.8735 30.3643 24.3818 31.157 24.3999 32.0996C24.4022 32.21 24.4044 32.3204 24.4068 32.4341C24.4136 32.9419 24.4193 33.4497 24.4229 33.9575C24.4254 34.224 24.4294 34.4905 24.4349 34.757C24.4962 37.7476 24.4962 37.7476 23.482 38.9242C23.2826 39.115 23.0827 39.2556 22.852 39.4065C22.7879 39.449 22.7239 39.4915 22.6579 39.5353C21.703 40.0545 20.6112 39.9452 19.5566 39.9416C19.3376 39.9422 19.1185 39.9429 18.8995 39.9438C18.4418 39.945 17.9841 39.9445 17.5264 39.9428C16.9423 39.9407 16.3583 39.9435 15.7742 39.9476C15.3223 39.9502 14.8704 39.95 14.4185 39.9491C14.2032 39.949 13.988 39.9498 13.7728 39.9515C11.6384 39.9661 11.6384 39.9661 10.6645 39.2893C10.5582 39.224 10.4518 39.1588 10.3422 39.0915C9.67066 38.4013 9.2494 37.6023 9.23752 36.6378C9.23526 36.4776 9.23526 36.4776 9.23296 36.3141C9.2321 36.1993 9.23123 36.0846 9.23034 35.9664C9.22939 35.8473 9.22845 35.7282 9.22747 35.6055C9.22585 35.3534 9.22459 35.1014 9.22367 34.8493C9.22232 34.5925 9.21993 34.3358 9.21646 34.0791C9.21144 33.7072 9.20956 33.3354 9.20837 32.9634C9.20631 32.8499 9.20426 32.7363 9.20215 32.6193C9.20569 31.4981 9.57766 30.6964 10.3372 29.8818C11.1005 29.1484 11.8729 28.9415 12.9077 28.9427ZM13.1254 32.844C13.1254 33.9268 13.1254 35.0096 13.1254 36.1252C15.6004 36.1252 18.0754 36.1252 20.6254 36.1252C20.6254 35.0424 20.6254 33.9596 20.6254 32.844C18.1504 32.844 15.6754 32.844 13.1254 32.844Z" fill="#FF4242"/>
<path d="M11.6709 23.4079C11.7944 23.4071 11.918 23.4063 12.0453 23.4054C12.4528 23.4034 12.8603 23.4047 13.2678 23.4063C13.5515 23.406 13.8352 23.4055 14.1189 23.4049C14.7131 23.4043 15.3073 23.4053 15.9015 23.4074C16.6628 23.4101 17.4241 23.4086 18.1854 23.4058C18.7711 23.4041 19.3568 23.4046 19.9425 23.4058C20.2232 23.4061 20.504 23.4058 20.7847 23.4047C21.1771 23.4035 21.5694 23.4053 21.9619 23.4079C22.0777 23.407 22.1935 23.406 22.3128 23.405C22.9827 23.4133 23.3771 23.4854 23.9062 23.9373C24.3314 24.3849 24.4113 24.7439 24.4336 25.3436C24.4113 25.9432 24.3314 26.3022 23.9062 26.7498C23.2759 27.2877 22.7544 27.2863 21.9637 27.2811C21.7787 27.2826 21.7787 27.2826 21.5899 27.2841C21.1829 27.2868 20.7761 27.286 20.3691 27.2849C20.0857 27.2855 19.8023 27.2863 19.5188 27.2871C18.9251 27.2884 18.3314 27.2878 17.7377 27.2861C16.9774 27.2841 16.2172 27.2868 15.457 27.291C14.8717 27.2935 14.2866 27.2934 13.7013 27.2924C13.4211 27.2923 13.1408 27.2931 12.8605 27.2948C12.4683 27.2969 12.0763 27.2952 11.6842 27.2925C11.5111 27.2946 11.5111 27.2946 11.3345 27.2967C10.5683 27.2861 10.1848 27.145 9.60935 26.6326C9.19125 26.0527 9.16027 25.449 9.25779 24.7576C9.6566 23.5702 10.5607 23.3988 11.6709 23.4079Z" fill="#FF4242"/>
<path d="M44.6488 30.4998C45.2234 30.7666 45.534 31.109 45.8207 31.6717C46.0162 32.3518 45.9595 32.7643 45.6309 33.4033C45.3293 33.8891 44.9232 34.2715 44.517 34.67C44.4251 34.7618 44.3332 34.8536 44.2386 34.9481C44.0453 35.1407 43.8514 35.3327 43.6571 35.5242C43.3594 35.8175 43.0638 36.1127 42.7683 36.4082C42.5798 36.5955 42.3912 36.7827 42.2025 36.9699C42.1141 37.058 42.0257 37.1461 41.9347 37.2369C41.8517 37.3183 41.7688 37.3997 41.6834 37.4836C41.6109 37.5552 41.5384 37.6268 41.4637 37.7006C41.0439 38.0587 40.6991 38.1533 40.1517 38.161C40.0445 38.1643 39.9372 38.1676 39.8267 38.171C39.1343 38.0591 38.646 37.5347 38.165 37.055C38.1094 36.9995 38.0537 36.9441 37.9963 36.887C37.8799 36.7707 37.7637 36.654 37.6478 36.5372C37.4707 36.3588 37.2924 36.1818 37.114 36.0049C37.0004 35.8911 36.8869 35.7773 36.7734 35.6634C36.6711 35.5608 36.5688 35.4583 36.4634 35.3526C35.9651 34.7943 35.9252 34.3595 35.9398 33.6277C36.0098 33.033 36.317 32.7253 36.746 32.3382C37.2461 31.992 37.7288 31.9644 38.3207 32.0233C39.021 32.2567 39.4684 32.7857 39.9613 33.3123C40.3735 33.137 40.6318 32.9005 40.9423 32.5804C41.0386 32.4822 41.1349 32.3841 41.2341 32.283C41.4349 32.0761 41.6357 31.8692 41.8365 31.6623C41.933 31.564 42.0294 31.4658 42.1288 31.3645C42.216 31.2746 42.3033 31.1846 42.3931 31.092C43.1007 30.4459 43.7186 30.3875 44.6488 30.4998Z" fill="#FF4242"/>
</svg>
