<svg width="66" height="26" viewBox="0 0 66 26" fill="none" xmlns="http://www.w3.org/2000/svg">
<path d="M3 20C4.65685 20 6 21.3431 6 23C6 24.6569 4.65685 26 3 26C1.34315 26 0 24.6569 0 23C0 21.3431 1.34315 20 3 20ZM13 20C14.6569 20 16 21.3431 16 23C16 24.6569 14.6569 26 13 26C11.3431 26 10 24.6569 10 23C10 21.3431 11.3431 20 13 20ZM23 20C24.6569 20 26 21.3431 26 23C26 24.6569 24.6569 26 23 26C21.3431 26 20 24.6569 20 23C20 21.3431 21.3431 20 23 20ZM33 20C34.6569 20 36 21.3431 36 23C36 24.6569 34.6569 26 33 26C31.3431 26 30 24.6569 30 23C30 21.3431 31.3431 20 33 20ZM43 20C44.6569 20 46 21.3431 46 23C46 24.6569 44.6569 26 43 26C41.3431 26 40 24.6569 40 23C40 21.3431 41.3431 20 43 20ZM53 20C54.6569 20 56 21.3431 56 23C56 24.6569 54.6569 26 53 26C51.3431 26 50 24.6569 50 23C50 21.3431 51.3431 20 53 20ZM63 20C64.6569 20 66 21.3431 66 23C66 24.6569 64.6569 26 63 26C61.3431 26 60 24.6569 60 23C60 21.3431 61.3431 20 63 20ZM3 10C4.65685 10 6 11.3431 6 13C6 14.6569 4.65685 16 3 16C1.34315 16 0 14.6569 0 13C0 11.3431 1.34315 10 3 10ZM13 10C14.6569 10 16 11.3431 16 13C16 14.6569 14.6569 16 13 16C11.3431 16 10 14.6569 10 13C10 11.3431 11.3431 10 13 10ZM23 10C24.6569 10 26 11.3431 26 13C26 14.6569 24.6569 16 23 16C21.3431 16 20 14.6569 20 13C20 11.3431 21.3431 10 23 10ZM33 10C34.6569 10 36 11.3431 36 13C36 14.6569 34.6569 16 33 16C31.3431 16 30 14.6569 30 13C30 11.3431 31.3431 10 33 10ZM43 10C44.6569 10 46 11.3431 46 13C46 14.6569 44.6569 16 43 16C41.3431 16 40 14.6569 40 13C40 11.3431 41.3431 10 43 10ZM53 10C54.6569 10 56 11.3431 56 13C56 14.6569 54.6569 16 53 16C51.3431 16 50 14.6569 50 13C50 11.3431 51.3431 10 53 10ZM63 10C64.6569 10 66 11.3431 66 13C66 14.6569 64.6569 16 63 16C61.3431 16 60 14.6569 60 13C60 11.3431 61.3431 10 63 10ZM3 0C4.65685 0 6 1.34315 6 3C6 4.65685 4.65685 6 3 6C1.34315 6 0 4.65685 0 3C0 1.34315 1.34315 0 3 0ZM13 0C14.6569 0 16 1.34315 16 3C16 4.65685 14.6569 6 13 6C11.3431 6 10 4.65685 10 3C10 1.34315 11.3431 0 13 0ZM23 0C24.6569 0 26 1.34315 26 3C26 4.65685 24.6569 6 23 6C21.3431 6 20 4.65685 20 3C20 1.34315 21.3431 0 23 0ZM33 0C34.6569 0 36 1.34315 36 3C36 4.65685 34.6569 6 33 6C31.3431 6 30 4.65685 30 3C30 1.34315 31.3431 0 33 0ZM43 0C44.6569 0 46 1.34315 46 3C46 4.65685 44.6569 6 43 6C41.3431 6 40 4.65685 40 3C40 1.34315 41.3431 0 43 0ZM53 0C54.6569 0 56 1.34315 56 3C56 4.65685 54.6569 6 53 6C51.3431 6 50 4.65685 50 3C50 1.34315 51.3431 0 53 0ZM63 0C64.6569 0 66 1.34315 66 3C66 4.65685 64.6569 6 63 6C61.3431 6 60 4.65685 60 3C60 1.34315 61.3431 0 63 0Z" fill="url(#paint0_linear_1_2323)"/>
<defs>
<linearGradient id="paint0_linear_1_2323" x1="0" y1="11.5" x2="65" y2="11.5" gradientUnits="userSpaceOnUse">
<stop stop-color="#FDD776" stop-opacity="0.76"/>
<stop offset="1" stop-color="white"/>
</linearGradient>
</defs>
</svg>
