<svg width="66" height="26" viewBox="0 0 66 26" fill="none" xmlns="http://www.w3.org/2000/svg">
<path d="M63 20C61.3431 20 60 21.3431 60 23C60 24.6569 61.3431 26 63 26C64.6569 26 66 24.6569 66 23C66 21.3431 64.6569 20 63 20ZM53 20C51.3431 20 50 21.3431 50 23C50 24.6569 51.3431 26 53 26C54.6569 26 56 24.6569 56 23C56 21.3431 54.6569 20 53 20ZM43 20C41.3431 20 40 21.3431 40 23C40 24.6569 41.3431 26 43 26C44.6569 26 46 24.6569 46 23C46 21.3431 44.6569 20 43 20ZM33 20C31.3431 20 30 21.3431 30 23C30 24.6569 31.3431 26 33 26C34.6569 26 36 24.6569 36 23C36 21.3431 34.6569 20 33 20ZM23 20C21.3431 20 20 21.3431 20 23C20 24.6569 21.3431 26 23 26C24.6569 26 26 24.6569 26 23C26 21.3431 24.6569 20 23 20ZM13 20C11.3431 20 10 21.3431 10 23C10 24.6569 11.3431 26 13 26C14.6569 26 16 24.6569 16 23C16 21.3431 14.6569 20 13 20ZM3 20C1.34315 20 0 21.3431 0 23C0 24.6569 1.34315 26 3 26C4.65685 26 6 24.6569 6 23C6 21.3431 4.65685 20 3 20ZM63 10C61.3431 10 60 11.3431 60 13C60 14.6569 61.3431 16 63 16C64.6569 16 66 14.6569 66 13C66 11.3431 64.6569 10 63 10ZM53 10C51.3431 10 50 11.3431 50 13C50 14.6569 51.3431 16 53 16C54.6569 16 56 14.6569 56 13C56 11.3431 54.6569 10 53 10ZM43 10C41.3431 10 40 11.3431 40 13C40 14.6569 41.3431 16 43 16C44.6569 16 46 14.6569 46 13C46 11.3431 44.6569 10 43 10ZM33 10C31.3431 10 30 11.3431 30 13C30 14.6569 31.3431 16 33 16C34.6569 16 36 14.6569 36 13C36 11.3431 34.6569 10 33 10ZM23 10C21.3431 10 20 11.3431 20 13C20 14.6569 21.3431 16 23 16C24.6569 16 26 14.6569 26 13C26 11.3431 24.6569 10 23 10ZM13 10C11.3431 10 10 11.3431 10 13C10 14.6569 11.3431 16 13 16C14.6569 16 16 14.6569 16 13C16 11.3431 14.6569 10 13 10ZM3 10C1.34315 10 0 11.3431 0 13C0 14.6569 1.34315 16 3 16C4.65685 16 6 14.6569 6 13C6 11.3431 4.65685 10 3 10ZM63 0C61.3431 0 60 1.34315 60 3C60 4.65685 61.3431 6 63 6C64.6569 6 66 4.65685 66 3C66 1.34315 64.6569 0 63 0ZM53 0C51.3431 0 50 1.34315 50 3C50 4.65685 51.3431 6 53 6C54.6569 6 56 4.65685 56 3C56 1.34315 54.6569 0 53 0ZM43 0C41.3431 0 40 1.34315 40 3C40 4.65685 41.3431 6 43 6C44.6569 6 46 4.65685 46 3C46 1.34315 44.6569 0 43 0ZM33 0C31.3431 0 30 1.34315 30 3C30 4.65685 31.3431 6 33 6C34.6569 6 36 4.65685 36 3C36 1.34315 34.6569 0 33 0ZM23 0C21.3431 0 20 1.34315 20 3C20 4.65685 21.3431 6 23 6C24.6569 6 26 4.65685 26 3C26 1.34315 24.6569 0 23 0ZM13 0C11.3431 0 10 1.34315 10 3C10 4.65685 11.3431 6 13 6C14.6569 6 16 4.65685 16 3C16 1.34315 14.6569 0 13 0ZM3 0C1.34315 0 0 1.34315 0 3C0 4.65685 1.34315 6 3 6C4.65685 6 6 4.65685 6 3C6 1.34315 4.65685 0 3 0Z" fill="url(#paint0_linear_1_2345)"/>
<defs>
<linearGradient id="paint0_linear_1_2345" x1="66" y1="11.5" x2="1" y2="11.5" gradientUnits="userSpaceOnUse">
<stop stop-color="#FDD776" stop-opacity="0.76"/>
<stop offset="1" stop-color="white"/>
</linearGradient>
</defs>
</svg>
