<svg width="22" height="22" viewBox="0 0 22 22" fill="none" xmlns="http://www.w3.org/2000/svg">
<path d="M19.4364 11C19.4364 10.7391 19.4364 10.4645 19.4364 10.2036L22 8.89904C21.8216 8.00658 21.5314 7.13942 21.1362 6.31746L18.2799 6.74314C18.01 6.28616 17.6925 5.85817 17.3325 5.46609L18.6422 2.92571C17.9635 2.30442 17.2157 1.76085 16.4129 1.30536L14.3509 3.32393C13.86 3.10398 13.346 2.93819 12.8182 2.82958L12.3585 0.083226C11.433 -0.027742 10.4973 -0.027742 9.57189 0.083226L9.11208 2.82958C8.58428 2.93819 8.07028 3.10398 7.57945 3.32393L5.51741 1.30536C4.71467 1.76085 3.96682 2.30442 3.28814 2.92571L4.59784 5.46609C4.24217 5.86162 3.92498 6.28918 3.65041 6.74314L0.863832 6.31746C0.468552 7.13942 0.178392 8.00658 0 8.89904L2.56365 10.2036C2.56365 10.4645 2.56365 10.7391 2.56365 11C2.56365 11.2609 2.56365 11.5355 2.56365 11.7964L0 13.101C0.180157 13.9974 0.470225 14.8689 0.863832 15.6963L3.65041 15.2569C3.92498 15.7108 4.24217 16.1384 4.59784 16.5339L3.28814 19.0743C3.96327 19.6998 4.71165 20.2437 5.51741 20.6946L7.57945 18.6898C8.07306 18.8992 8.58642 19.0602 9.11208 19.1704L9.57189 21.9168C10.4973 22.0277 11.433 22.0277 12.3585 21.9168L12.8182 19.1704C13.3439 19.0602 13.8572 18.8992 14.3509 18.6898L16.4129 20.6946C17.2187 20.2437 17.967 19.6998 18.6422 19.0743L17.3325 16.5339C17.6925 16.1418 18.01 15.7138 18.2799 15.2569L21.1362 15.6963C21.5298 14.8689 21.8198 13.9974 22 13.101L19.4364 11.7964C19.4224 11.5355 19.4364 11.2609 19.4364 11ZM10.9094 16.2455C9.85677 16.2455 8.82774 15.9379 7.95248 15.3615C7.07722 14.7851 6.39507 13.9659 5.99223 13.0074C5.58939 12.0489 5.48395 10.9942 5.68932 9.97665C5.89468 8.95911 6.40162 8.02444 7.14596 7.29084C7.89031 6.55724 8.83866 6.05765 9.8711 5.85525C10.9035 5.65285 11.9737 5.75673 12.9462 6.15375C13.9188 6.55077 14.75 7.22311 15.3348 8.08573C15.9196 8.94836 16.2318 9.96253 16.2318 11C16.2318 12.3912 15.671 13.7254 14.6729 14.7092C13.6748 15.6929 12.321 16.2455 10.9094 16.2455Z" fill="#6BA614"/>
</svg>
