<svg width="41" height="42" viewBox="0 0 41 42" fill="none" xmlns="http://www.w3.org/2000/svg">
<g clip-path="url(#clip0_1_2506)">
<path d="M23.5669 35.7056H26.0981V38.8188H32.6265V40.8491H10.2437V38.8188H16.772V35.7056H19.3032V15.9458H23.5669V35.7056ZM34.3589 10.5317C36.5543 15.141 36.5546 15.141 37.4644 17.0776C37.7904 17.7715 38.1176 18.4649 38.4458 19.1577C38.6494 19.588 38.8526 20.0189 39.0552 20.4497C39.276 20.9186 39.4995 21.3856 39.729 21.8501C39.7957 21.9876 39.7958 21.9881 39.8638 22.1284C39.9764 22.3607 40.0918 22.5916 40.2065 22.8228C40.5304 23.7668 40.3627 24.5161 39.9712 25.394C39.9295 25.4877 39.8872 25.5817 39.8442 25.6782C39.0485 27.3666 37.8837 28.2418 36.2241 28.939C34.8196 29.4146 32.86 29.2432 31.5288 28.6147C29.9365 27.6708 28.7118 26.3128 28.23 24.4722C28.0432 23.2093 28.6558 22.2293 29.2046 21.1392C29.3029 20.9395 29.4007 20.7395 29.4985 20.5396C29.6939 20.1406 29.8902 19.7422 30.0874 19.3442C30.4554 18.5999 30.8099 17.8486 31.1616 17.0962C31.2142 16.9844 31.2666 16.8725 31.3208 16.7573C31.8501 15.632 32.3703 14.5021 32.8931 13.3735H9.57764C10.5009 15.2941 11.4242 17.2151 12.3755 19.1938C13.3795 21.3211 13.3795 21.3213 13.7046 22.022C13.7982 22.2175 13.8957 22.4112 13.9966 22.603C14.3425 23.2632 14.4425 23.6059 14.2515 24.3403C13.6265 26.0845 12.8313 27.6337 11.1519 28.5239C10.9408 28.6231 10.7265 28.7163 10.5103 28.8032C10.3934 28.8527 10.2762 28.9026 10.1558 28.9536C9.54757 29.1183 8.97196 29.119 8.34521 29.1167C8.22666 29.1189 8.10799 29.1203 7.98584 29.1226C6.5674 29.1236 5.50629 28.7161 4.38232 27.856C4.17211 27.701 4.17198 27.7005 3.95752 27.5425C2.96311 26.5772 2.20349 25.1887 2.08057 23.7847C2.12693 23.1112 2.34891 22.6516 2.64795 22.0571C2.70313 21.9437 2.75906 21.8302 2.81592 21.7134C2.99493 21.3464 3.17639 20.9805 3.35791 20.6147C3.48184 20.3616 3.60547 20.1083 3.729 19.855C3.97118 19.3586 4.21396 18.8624 4.45752 18.3667C4.84035 17.5862 5.21282 16.8011 5.58057 16.0132C5.69 15.7795 5.80018 15.5457 5.90967 15.312C5.9632 15.1977 6.01662 15.0831 6.07178 14.9653C6.27374 14.5355 6.47759 14.1063 6.68115 13.6772C6.75446 13.5226 6.8273 13.3678 6.90283 13.2085C7.04456 12.9097 7.18654 12.6106 7.32861 12.312C7.39224 12.1778 7.45641 12.0431 7.52197 11.9048C7.57815 11.7866 7.63402 11.6682 7.69189 11.5464C7.84341 11.2133 7.97864 10.8725 8.11279 10.5317H34.3589ZM21.9077 2.08057C22.5698 2.09924 23.0909 2.11549 23.6313 2.52881C24.2259 3.22981 24.6905 4.07813 24.8989 4.98291C24.8428 5.38477 24.8433 5.38517 24.6333 5.79443C24.5287 6.02635 24.4238 6.25852 24.3198 6.49072C24.1997 6.74667 24.0795 7.00282 23.9585 7.2583C23.8973 7.38901 23.836 7.52011 23.7729 7.65479C23.3191 8.61827 23.3186 8.6185 23.1675 8.77197C22.9109 8.78381 22.6538 8.7869 22.397 8.78564C22.1632 8.78499 22.1628 8.78436 21.9243 8.78369C21.7603 8.78256 21.5962 8.78193 21.4272 8.78076C21.1803 8.77985 21.1801 8.77974 20.9282 8.77881C20.52 8.77721 20.1118 8.77475 19.7036 8.77197C19.4314 8.22367 19.1633 7.67333 18.896 7.12256C18.8187 6.9669 18.7413 6.81125 18.6616 6.65088C18.5891 6.5004 18.5157 6.34986 18.4409 6.19482C18.3395 5.98774 18.3394 5.9873 18.2358 5.77588C18.053 5.23744 18.1354 4.92938 18.3735 4.42627C18.4278 4.33428 18.4817 4.24175 18.5376 4.14697C18.5966 4.04611 18.6555 3.94522 18.7163 3.84131C18.7781 3.73792 18.8402 3.63435 18.9038 3.52783C18.9656 3.42228 19.0276 3.31627 19.0913 3.20752C19.8036 1.99809 20.5368 2.12886 21.9077 2.08057Z" fill="white"/>
</g>
<defs>
<clipPath id="clip0_1_2506">
<rect width="41" height="41" fill="white" transform="translate(0 0.5)"/>
</clipPath>
</defs>
</svg>
