<svg width="554" height="554" viewBox="0 0 554 554" fill="none" xmlns="http://www.w3.org/2000/svg">
<line x1="281.5" y1="222" x2="281.5" y2="300" stroke="#959595"/>
<path d="M553.808 281.624C553.808 280.039 553.808 278.505 553.808 276.92C553.799 204.026 525.059 134.074 473.821 82.235C422.583 30.3956 352.977 0.847912 280.1 0V281.624H553.808Z" fill="#F79537"/>
<path d="M280.1 0H276.929C203.492 -1.25197e-06 133.062 29.1737 81.1288 81.1048C29.196 133.036 0.0135593 203.471 0 276.92C0 278.505 0 280.039 0 281.624H280.1V0Z" fill="#ED2F3C"/>
<path d="M0.102539 281.624C1.33612 354.245 31.0422 423.476 82.8214 474.402C134.601 525.328 204.309 553.874 276.93 553.89H280.1V281.624H0.102539Z" fill="#6BA614"/>
<path d="M115.174 419C115.174 418.407 115.174 417.783 115.174 417.19L121 414.225C120.595 412.197 119.935 410.226 119.037 408.358L112.545 409.325C111.932 408.287 111.21 407.314 110.392 406.423L113.369 400.649C111.826 399.237 110.127 398.002 108.302 396.967L103.616 401.554C102.5 401.055 101.332 400.678 100.132 400.431L99.0874 394.189C96.9841 393.937 94.8576 393.937 92.7543 394.189L91.7093 400.431C90.5097 400.678 89.3415 401.055 88.226 401.554L83.5396 396.967C81.7152 398.002 80.0155 399.237 78.473 400.649L81.4496 406.423C80.6413 407.322 79.9204 408.294 79.2964 409.325L72.9633 408.358C72.0649 410.226 71.4054 412.197 71 414.225L76.8265 417.19C76.8265 417.783 76.8265 418.407 76.8265 419C76.8265 419.593 76.8265 420.217 76.8265 420.81L71 423.775C71.4094 425.812 72.0687 427.793 72.9633 429.673L79.2964 428.675C79.9204 429.706 80.6413 430.678 81.4496 431.577L78.473 437.351C80.0074 438.772 81.7083 440.008 83.5396 441.033L88.226 436.477C89.3479 436.953 90.5146 437.319 91.7093 437.569L92.7543 443.811C94.8576 444.063 96.9841 444.063 99.0874 443.811L100.132 437.569C101.327 437.319 102.494 436.953 103.616 436.477L108.302 441.033C110.133 440.008 111.834 438.772 113.369 437.351L110.392 431.577C111.21 430.686 111.932 429.713 112.545 428.675L119.037 429.673C119.931 427.793 120.591 425.812 121 423.775L115.174 420.81C115.142 420.217 115.174 419.593 115.174 419ZM95.7942 430.922C93.4017 430.922 91.063 430.222 89.0738 428.913C87.0846 427.603 85.5342 425.741 84.6187 423.562C83.7032 421.384 83.4635 418.987 83.9303 416.674C84.397 414.362 85.5491 412.237 87.2408 410.57C88.9325 408.903 91.0879 407.767 93.4343 407.307C95.7808 406.847 98.2129 407.083 100.423 407.986C102.634 408.888 104.523 410.416 105.852 412.377C107.181 414.337 107.89 416.642 107.89 419C107.89 422.162 106.616 425.194 104.348 427.43C102.079 429.666 99.0023 430.922 95.7942 430.922Z" fill="white"/>
<path d="M553.808 281.624H280.1V553.788C352.165 552.973 421.074 524.086 472.183 473.265C523.292 422.444 552.575 353.695 553.808 281.624Z" fill="#0078BD"/>
<path d="M276.93 463.732C380.088 463.732 463.714 380.093 463.714 276.919C463.714 173.746 380.088 90.1074 276.93 90.1074C173.772 90.1074 90.1455 173.746 90.1455 276.919C90.1455 380.093 173.772 463.732 276.93 463.732Z" fill="#F8F8F8"/>
<g clip-path="url(#clip0_1_2263)">
<path d="M88.9455 155.878C89.1721 155.876 89.1721 155.876 89.4032 155.874C89.8131 155.872 90.2229 155.872 90.6327 155.873C90.977 155.874 91.3213 155.873 91.6655 155.872C92.4788 155.87 93.292 155.87 94.1053 155.872C94.9396 155.874 95.7738 155.872 96.6081 155.868C97.3287 155.865 98.0494 155.864 98.7701 155.865C99.1986 155.866 99.627 155.866 100.056 155.863C103.475 155.845 103.475 155.845 104.832 156.558C104.959 156.624 104.959 156.624 105.089 156.69C107.252 157.914 108.777 160.257 109.462 162.606C110.38 166.046 110 169.129 110 172.924C100.255 172.924 90.5094 172.924 80.4688 172.924C80.4688 161.272 80.4688 161.272 83.8184 157.881C85.3023 156.499 86.9235 155.866 88.9455 155.878Z" fill="white"/>
<path d="M74.0703 126.452C74.1921 126.554 74.1921 126.554 74.3164 126.658C74.4171 126.735 74.5178 126.812 74.6216 126.892C76.6624 128.591 77.7227 131.347 78.0078 133.917C78.2383 136.826 77.2699 139.525 75.4219 141.755C73.702 143.752 71.2794 145.054 68.6562 145.361C65.468 145.555 62.708 144.869 60.2583 142.723C60.0614 142.538 59.8665 142.351 59.6738 142.162C59.5878 142.077 59.5019 141.993 59.4133 141.906C57.5157 139.912 56.6512 137.127 56.6775 134.417C56.7629 131.471 58.0429 128.804 60.166 126.781C64.0995 123.372 70.0023 123.122 74.0703 126.452Z" fill="white"/>
<path d="M57.3202 150.152C57.4547 150.154 57.4547 150.154 57.5919 150.156C57.6697 150.157 57.7476 150.159 57.8278 150.16C58.371 151.177 58.8054 152.235 59.2425 153.301C59.4249 153.746 59.6083 154.19 59.7917 154.634C59.8893 154.871 59.9869 155.107 60.0845 155.344C60.6334 156.676 61.1878 158.005 61.7422 159.334C61.8447 159.58 61.9472 159.826 62.0497 160.072C62.2578 160.571 62.4659 161.071 62.6741 161.57C63.1761 162.774 63.6778 163.978 64.1796 165.183C64.4904 165.929 64.4904 165.929 64.8013 166.675C64.8953 166.9 64.9892 167.126 65.083 167.352C65.2742 167.811 65.466 168.271 65.6625 168.729C65.7191 168.861 65.7757 168.994 65.834 169.13C65.9046 169.293 65.9046 169.293 65.9766 169.459C66.0719 169.724 66.0719 169.724 66.0719 170.093C62.6611 170.093 59.2502 170.093 55.736 170.093C55.6954 168.429 55.6548 166.764 55.613 165.048C55.2855 164.65 55.2855 164.65 54.8747 164.618C54.4937 164.64 54.4937 164.64 54.3018 164.921C54.0791 165.424 54.0776 165.86 54.0734 166.404C54.0714 166.498 54.0693 166.592 54.0672 166.688C54.0601 167.036 54.0561 167.384 54.0518 167.732C54.0391 168.512 54.0264 169.291 54.0133 170.093C51.6988 170.093 49.3843 170.093 46.9997 170.093C46.9849 167.711 46.9849 167.711 46.9816 166.684C46.9794 165.988 46.9769 165.291 46.9718 164.595C46.9678 164.032 46.9656 163.47 46.9646 162.907C46.964 162.694 46.9627 162.481 46.9606 162.268C46.9289 158.77 48.006 155.774 50.4219 153.205C52.1746 151.534 54.8458 150.115 57.3202 150.152Z" fill="white"/>
<path d="M88.1188 116.012C88.2971 116.012 88.4755 116.011 88.6538 116.01C89.1368 116.007 89.6198 116.008 90.1029 116.01C90.609 116.011 91.1151 116.01 91.6212 116.009C92.471 116.008 93.3209 116.01 94.1707 116.012C95.1525 116.015 96.1342 116.014 97.1159 116.011C97.9597 116.009 98.8034 116.008 99.6472 116.01C100.151 116.01 100.654 116.011 101.158 116.009C101.631 116.008 102.105 116.009 102.578 116.011C102.752 116.012 102.925 116.012 103.099 116.011C104.722 116.001 104.722 116.001 105.324 116.568C105.707 117.004 105.831 117.374 105.835 117.949C105.836 118.108 105.836 118.108 105.837 118.27C105.838 118.386 105.838 118.502 105.838 118.621C105.839 118.743 105.84 118.866 105.841 118.992C105.843 119.397 105.844 119.802 105.846 120.208C105.846 120.346 105.847 120.485 105.847 120.627C105.85 121.36 105.852 122.092 105.853 122.825C105.854 123.581 105.858 124.338 105.863 125.094C105.866 125.676 105.867 126.258 105.868 126.84C105.868 127.119 105.87 127.398 105.872 127.676C105.875 128.067 105.875 128.457 105.874 128.848C105.877 129.02 105.877 129.02 105.879 129.196C105.873 129.931 105.753 130.362 105.324 130.965C104.721 131.429 104.11 131.472 103.368 131.474C103.222 131.475 103.077 131.476 102.927 131.476C102.769 131.476 102.61 131.477 102.447 131.477C102.277 131.477 102.108 131.478 101.939 131.479C101.479 131.48 101.02 131.481 100.56 131.482C100.273 131.482 99.9858 131.482 99.6984 131.483C98.7986 131.485 97.8988 131.486 96.999 131.486C95.9619 131.487 94.9248 131.489 93.8877 131.493C93.0849 131.495 92.2821 131.496 91.4794 131.497C91.0004 131.497 90.5214 131.497 90.0425 131.5C89.5917 131.502 89.141 131.502 88.6902 131.501C88.4471 131.501 88.204 131.502 87.9608 131.504C87.1399 131.5 86.5 131.455 85.7598 131.088C85.1683 130.481 85.1248 129.952 85.1099 129.138C85.1065 128.997 85.1065 128.997 85.1031 128.853C85.0934 128.45 85.085 128.047 85.0766 127.644C85.0702 127.35 85.0632 127.056 85.0561 126.762C85.0544 126.671 85.0528 126.58 85.051 126.486C85.0418 126.102 85.0205 125.794 84.8984 125.428C83.6397 125.387 82.3809 125.346 81.084 125.305C81.3347 124.803 81.6126 124.527 82.0222 124.166C82.702 123.554 83.359 122.921 84.0063 122.275C84.0929 122.189 84.1794 122.102 84.2686 122.014C84.3489 121.933 84.4292 121.853 84.512 121.77C84.5836 121.698 84.6553 121.626 84.7291 121.552C85.0899 121.158 85.0385 120.808 85.0431 120.288C85.046 120.119 85.0489 119.949 85.052 119.779C85.0563 119.512 85.0599 119.245 85.0616 118.978C85.0635 118.72 85.0685 118.462 85.0739 118.204C85.0757 118.05 85.0775 117.896 85.0793 117.737C85.1767 117.095 85.4505 116.745 85.9149 116.305C86.561 115.893 87.3813 116.008 88.1188 116.012ZM89.0126 119.01C88.7735 119.369 88.7729 119.59 88.8359 120.014C89.0261 120.264 89.1708 120.366 89.4512 120.506C89.8271 120.52 90.2003 120.526 90.5763 120.527C90.6929 120.528 90.8096 120.529 90.9298 120.53C91.317 120.532 91.7042 120.534 92.0914 120.535C92.2234 120.536 92.3555 120.536 92.4915 120.537C93.1903 120.539 93.8891 120.541 94.5879 120.542C95.3104 120.543 96.0328 120.548 96.7553 120.553C97.3102 120.556 97.8651 120.557 98.42 120.557C98.6864 120.558 98.9527 120.559 99.219 120.562C99.5917 120.564 99.9642 120.564 100.337 120.564C100.502 120.566 100.502 120.566 100.671 120.568C101.176 120.564 101.444 120.545 101.886 120.279C102.155 120.025 102.155 120.025 102.202 119.644C102.155 119.264 102.155 119.264 101.886 119.01C101.361 118.693 100.932 118.714 100.329 118.719C100.211 118.719 100.093 118.718 99.9716 118.717C99.5818 118.715 99.1921 118.716 98.8023 118.718C98.5312 118.717 98.2601 118.717 97.9891 118.716C97.4213 118.716 96.8536 118.717 96.2858 118.719C95.5577 118.722 94.8297 118.72 94.1015 118.717C93.542 118.715 92.9824 118.716 92.4229 118.717C92.1544 118.718 91.8858 118.717 91.6173 118.716C91.2423 118.715 90.8675 118.717 90.4925 118.719C90.3813 118.718 90.2701 118.717 90.1556 118.716C89.5426 118.723 89.5426 118.723 89.0126 119.01ZM88.8359 123.336C88.7436 123.772 88.7436 123.772 88.8359 124.197C89.0538 124.453 89.2349 124.553 89.5684 124.6C89.8814 124.615 90.1923 124.618 90.5057 124.616C90.625 124.617 90.7443 124.618 90.8672 124.619C91.2617 124.621 91.6561 124.62 92.0505 124.62C92.3245 124.62 92.5985 124.621 92.8725 124.622C93.4468 124.623 94.0211 124.622 94.5953 124.621C95.3319 124.62 96.0684 124.622 96.8049 124.626C97.3707 124.628 97.9365 124.628 98.5023 124.627C98.7739 124.627 99.0454 124.628 99.317 124.63C99.6965 124.631 100.076 124.63 100.455 124.628C100.624 124.63 100.624 124.63 100.796 124.632C101.414 124.627 101.414 124.627 101.948 124.339C102.193 123.972 102.206 123.768 102.125 123.336C101.774 122.946 101.494 122.812 100.982 122.781C100.769 122.778 100.556 122.778 100.343 122.78C100.226 122.779 100.109 122.778 99.9891 122.777C99.6038 122.775 99.2187 122.777 98.8335 122.778C98.5655 122.778 98.2975 122.777 98.0295 122.777C97.468 122.776 96.9066 122.777 96.3452 122.779C95.6256 122.782 94.9061 122.781 94.1866 122.778C93.6332 122.776 93.0799 122.776 92.5265 122.778C92.2612 122.778 91.9959 122.778 91.7306 122.777C91.3598 122.775 90.989 122.777 90.6182 122.78C90.5086 122.779 90.399 122.778 90.2861 122.777C89.6547 122.786 89.2783 122.837 88.8359 123.336ZM88.8359 127.396C88.7625 127.966 88.7625 127.966 88.991 128.466C89.256 128.665 89.3944 128.673 89.7235 128.674C89.829 128.675 89.9346 128.676 90.0434 128.677C90.1588 128.676 90.2743 128.675 90.3932 128.675C90.5761 128.676 90.5761 128.676 90.7626 128.677C91.1663 128.678 91.5699 128.677 91.9736 128.676C92.2536 128.676 92.5336 128.676 92.8136 128.677C93.4007 128.677 93.9878 128.677 94.5749 128.675C95.3284 128.673 96.0819 128.674 96.8354 128.676C97.4137 128.678 97.9919 128.677 98.5701 128.676C98.848 128.676 99.1259 128.676 99.4038 128.677C99.7918 128.678 100.18 128.677 100.568 128.675C100.741 128.676 100.741 128.676 100.918 128.677C101.076 128.675 101.076 128.675 101.237 128.674C101.329 128.674 101.421 128.673 101.515 128.673C101.826 128.613 101.935 128.507 102.125 128.258C102.188 127.835 102.187 127.613 101.95 127.254C101.468 126.909 101.021 126.959 100.442 126.965C100.321 126.965 100.201 126.964 100.076 126.963C99.6772 126.962 99.2782 126.964 98.8792 126.966C98.6021 126.966 98.3251 126.966 98.048 126.966C97.4674 126.965 96.8869 126.967 96.3063 126.97C95.5612 126.973 94.8161 126.973 94.071 126.971C93.499 126.971 92.927 126.971 92.355 126.973C92.0802 126.974 91.8054 126.974 91.5306 126.973C91.1471 126.973 90.7636 126.975 90.38 126.977C90.2659 126.977 90.1518 126.976 90.0342 126.976C89.9299 126.977 89.8255 126.978 89.718 126.979C89.6273 126.98 89.5366 126.98 89.4432 126.98C89.1325 127.041 89.0237 127.144 88.8359 127.396Z" fill="white"/>
<path d="M100.835 138.874C102.509 140.36 103.706 142.347 103.865 144.622C103.97 146.937 103.579 149.202 102.001 151.007C101.723 151.309 101.434 151.596 101.141 151.882C101.024 152.005 101.024 152.005 100.904 152.131C99.8495 153.165 98.2644 153.816 96.8343 154.097C96.625 154.139 96.625 154.139 96.4114 154.182C93.8105 154.41 91.5816 153.756 89.5154 152.157C87.9174 150.74 86.742 148.698 86.6023 146.543C86.4842 143.92 87.0294 141.632 88.7964 139.625C91.9736 136.363 97.2876 135.885 100.835 138.874Z" fill="white"/>
<path d="M77.7365 150.163C77.9109 150.16 78.0853 150.159 78.2597 150.157C78.3569 150.156 78.454 150.155 78.5541 150.154C81.1318 150.229 83.7024 151.849 85.4884 153.608C85.7995 153.963 86.0848 154.325 86.3497 154.715C86.0476 155.057 85.7208 155.234 85.3192 155.446C82.644 156.984 80.9933 159.796 80.1974 162.713C79.5826 165.181 79.6527 167.485 79.5822 170.096C76.2931 170.096 73.0041 170.096 69.6154 170.096C69.701 169.668 69.7719 169.361 69.9338 168.972C69.994 168.826 69.994 168.826 70.0554 168.677C70.0993 168.573 70.1431 168.468 70.1883 168.36C70.2343 168.249 70.2803 168.138 70.3277 168.024C70.4794 167.658 70.6318 167.293 70.7843 166.928C70.8911 166.671 70.9978 166.414 71.1044 166.157C71.3229 165.631 71.5416 165.105 71.7606 164.579C72.0446 163.897 72.3277 163.215 72.6103 162.532C73.3403 160.768 74.0723 159.005 74.8069 157.243C74.8613 157.113 74.9156 156.982 74.9717 156.848C75.2353 156.216 75.4991 155.583 75.7631 154.951C76.428 153.358 77.085 151.761 77.7365 150.163Z" fill="white"/>
<path d="M64.8418 155.205C66.5472 155.205 68.2526 155.205 70.0098 155.205C70.2559 155.756 70.5021 156.307 70.7557 156.874C70.873 157.132 70.873 157.132 70.9927 157.395C71.0831 157.602 71.0831 157.602 71.1753 157.813C71.2691 158.022 71.2691 158.022 71.3647 158.236C71.611 159.075 71.2899 159.764 70.9542 160.525C70.9126 160.622 70.871 160.719 70.8281 160.819C70.7385 161.027 70.6485 161.234 70.5581 161.442C70.3191 161.99 70.0835 162.54 69.8473 163.09C69.7992 163.202 69.7512 163.313 69.7017 163.428C69.2158 164.558 68.7458 165.695 68.2794 166.833C68.2419 166.924 68.2044 167.016 68.1658 167.11C67.9597 167.612 67.7541 168.115 67.5488 168.617C67.4676 168.617 67.3864 168.617 67.3027 168.617C67.1614 168.28 67.0201 167.944 66.8788 167.607C66.812 167.448 66.812 167.448 66.7438 167.285C66.4959 166.694 66.2484 166.103 66.0015 165.511C65.9512 165.391 65.9009 165.27 65.8491 165.146C65.7465 164.9 65.6439 164.655 65.5413 164.409C65.2567 163.728 64.97 163.047 64.6804 162.368C64.5173 161.986 64.3556 161.602 64.1941 161.219C64.1187 161.04 64.0426 160.862 63.9659 160.685C63.8596 160.438 63.7557 160.191 63.6522 159.944C63.5935 159.806 63.5347 159.668 63.4742 159.526C63.2815 158.848 63.4981 158.325 63.7651 157.695C63.8197 157.565 63.8743 157.435 63.9305 157.302C63.9876 157.168 64.0447 157.035 64.1035 156.897C64.1606 156.762 64.2177 156.626 64.2765 156.486C64.6886 155.511 64.6886 155.511 64.8418 155.205Z" fill="white"/>
<path d="M63.8574 150.16C66.2125 150.16 68.5677 150.16 70.9941 150.16C70.0098 153.359 70.0098 153.359 69.8867 153.482C69.5229 153.493 69.1619 153.497 68.798 153.494C68.6344 153.494 68.6344 153.494 68.4675 153.494C68.1177 153.493 67.7679 153.492 67.4181 153.49C67.1815 153.489 66.945 153.489 66.7084 153.488C66.1272 153.487 65.546 153.485 64.9648 153.482C64.4874 152.397 64.1962 151.312 63.8574 150.16Z" fill="white"/>
</g>
<g clip-path="url(#clip1_1_2263)">
<path d="M463.602 118.97C463.788 118.969 463.788 118.969 463.977 118.968C464.393 118.967 464.809 118.967 465.225 118.967C465.523 118.966 465.821 118.966 466.119 118.965C466.845 118.963 467.57 118.962 468.296 118.962C468.886 118.962 469.476 118.962 470.066 118.961C471.738 118.959 473.411 118.958 475.084 118.958C475.219 118.958 475.219 118.958 475.357 118.958C475.447 118.958 475.537 118.958 475.63 118.958C477.093 118.958 478.556 118.956 480.019 118.953C481.522 118.949 483.024 118.948 484.527 118.948C485.37 118.948 486.214 118.948 487.057 118.945C487.775 118.943 488.493 118.943 489.211 118.944C489.578 118.945 489.944 118.945 490.31 118.943C490.707 118.941 491.105 118.942 491.502 118.944C491.617 118.943 491.733 118.942 491.852 118.94C492.551 118.947 492.97 119.038 493.539 119.453C493.941 119.971 494.12 120.364 494.119 121.015C494.12 121.127 494.12 121.24 494.12 121.356C494.12 121.479 494.119 121.603 494.119 121.731C494.119 121.927 494.119 121.927 494.119 122.128C494.12 122.493 494.119 122.858 494.119 123.222C494.118 123.616 494.118 124.009 494.118 124.402C494.118 125.083 494.118 125.764 494.117 126.446C494.117 127.431 494.116 128.416 494.116 129.401C494.116 130.999 494.115 132.597 494.114 134.195C494.113 135.748 494.112 137.3 494.112 138.853C494.112 138.996 494.112 138.996 494.112 139.143C494.111 139.623 494.111 140.103 494.111 140.583C494.11 144.566 494.108 148.548 494.105 152.531C493.926 152.514 493.747 152.497 493.568 152.48C493.418 152.465 493.418 152.465 493.265 152.45C492.862 152.406 492.473 152.33 492.075 152.25C491.911 152.218 491.746 152.187 491.581 152.155C491.329 152.107 491.076 152.057 490.824 152.005C489.049 151.644 487.661 151.731 486.091 152.729C485.3 153.521 484.856 154.461 484.694 155.56C484.675 155.693 484.655 155.825 484.634 155.962C484.612 156.114 484.612 156.114 484.59 156.27C484.508 156.27 484.427 156.27 484.343 156.27C482.358 156.274 480.374 156.281 478.389 156.29C477.429 156.295 476.47 156.299 475.51 156.3C474.673 156.302 473.836 156.305 473 156.31C472.557 156.312 472.114 156.314 471.671 156.314C471.254 156.314 470.836 156.316 470.419 156.319C470.194 156.321 469.969 156.32 469.744 156.319C468.94 156.329 468.39 156.391 467.711 156.836C467.394 157.272 467.309 157.671 467.331 158.2C467.419 158.689 467.689 159.004 468.081 159.288C468.44 159.466 468.674 159.485 469.074 159.487C469.279 159.489 469.279 159.489 469.489 159.491C469.639 159.491 469.788 159.491 469.942 159.49C470.102 159.491 470.261 159.493 470.421 159.494C470.854 159.497 471.286 159.498 471.719 159.499C472.172 159.5 472.624 159.503 473.077 159.506C473.933 159.51 474.79 159.514 475.646 159.516C476.622 159.519 477.597 159.524 478.572 159.529C480.578 159.54 482.584 159.548 484.59 159.555C484.591 159.637 484.592 159.72 484.593 159.805C484.605 160.588 484.616 161.371 484.628 162.155C484.634 162.557 484.641 162.96 484.646 163.362C484.653 163.826 484.66 164.29 484.667 164.754C484.67 164.968 484.67 164.968 484.673 165.187C484.686 165.958 484.722 166.718 484.816 167.484C484.689 167.484 484.689 167.484 484.56 167.485C482.501 167.486 480.442 167.491 478.382 167.499C477.387 167.503 476.391 167.506 475.395 167.507C474.527 167.507 473.659 167.509 472.791 167.514C472.331 167.516 471.872 167.518 471.412 167.517C470.979 167.516 470.547 167.518 470.114 167.522C469.955 167.522 469.797 167.522 469.638 167.521C468.682 167.484 468.682 167.484 467.848 167.873C467.437 168.352 467.318 168.642 467.335 169.294C467.411 169.775 467.701 170.091 468.051 170.408C468.495 170.672 468.921 170.671 469.43 170.674C469.574 170.675 469.717 170.676 469.865 170.678C470.024 170.678 470.183 170.679 470.342 170.679C470.509 170.681 470.677 170.682 470.844 170.683C471.299 170.686 471.753 170.688 472.208 170.691C472.683 170.693 473.158 170.696 473.633 170.699C474.532 170.705 475.432 170.71 476.331 170.715C477.355 170.72 478.379 170.727 479.403 170.733C481.51 170.746 483.616 170.758 485.723 170.77C485.752 170.832 485.781 170.894 485.811 170.957C485.944 171.241 486.077 171.524 486.21 171.808C486.256 171.905 486.302 172.003 486.349 172.103C486.66 172.763 486.99 173.391 487.408 173.991C487.464 174.074 487.521 174.157 487.579 174.243C488.027 174.887 488.522 175.465 489.068 176.028C489.367 176.341 489.638 176.666 489.914 177C485.062 177.008 480.21 177.014 475.359 177.017C474.786 177.018 474.214 177.018 473.641 177.019C473.527 177.019 473.413 177.019 473.296 177.019C471.449 177.02 469.602 177.023 467.756 177.026C465.861 177.029 463.967 177.031 462.073 177.032C460.904 177.032 459.734 177.034 458.565 177.037C457.764 177.038 456.962 177.039 456.161 177.039C455.698 177.038 455.236 177.039 454.773 177.04C454.35 177.042 453.926 177.042 453.503 177.041C453.277 177.041 453.051 177.042 452.825 177.044C452.691 177.043 452.557 177.042 452.418 177.042C452.302 177.042 452.187 177.042 452.067 177.042C451.529 176.973 451.076 176.751 450.74 176.32C450.383 175.83 450.365 175.502 450.364 174.91C450.363 174.835 450.363 174.76 450.363 174.683C450.362 174.43 450.362 174.178 450.362 173.925C450.362 173.743 450.361 173.561 450.361 173.378C450.36 172.876 450.359 172.374 450.359 171.871C450.359 171.33 450.358 170.789 450.357 170.248C450.354 168.94 450.353 167.633 450.352 166.325C450.352 165.709 450.351 165.094 450.351 164.478C450.349 162.432 450.347 160.386 450.346 158.34C450.346 157.809 450.346 157.278 450.345 156.747C450.345 156.615 450.345 156.483 450.345 156.347C450.344 154.208 450.341 152.07 450.338 149.931C450.334 147.736 450.332 145.541 450.332 143.346C450.331 142.113 450.33 140.881 450.328 139.648C450.325 138.598 450.324 137.548 450.325 136.499C450.326 135.963 450.326 135.427 450.323 134.892C450.321 134.401 450.321 133.911 450.323 133.42C450.324 133.243 450.323 133.066 450.322 132.888C450.314 131.814 450.387 130.972 451.01 130.071C451.81 129.277 452.688 129.032 453.798 129.025C453.987 129.027 453.987 129.027 454.179 129.029C454.311 129.028 454.443 129.027 454.58 129.026C454.999 129.024 455.418 129.024 455.838 129.025C456.392 129.027 456.945 129.025 457.499 129.022C457.688 129.024 457.688 129.024 457.882 129.026C458.612 129.021 459.089 128.979 459.668 128.516C460.138 127.906 460.056 127.178 460.054 126.442C460.056 126.24 460.056 126.24 460.058 126.034C460.061 125.603 460.063 125.173 460.064 124.742C460.066 124.176 460.07 123.61 460.075 123.044C460.075 122.915 460.074 122.786 460.074 122.653C460.084 121.619 460.241 120.724 460.914 119.906C461.788 119.141 462.457 118.966 463.602 118.97ZM460.795 133.02C460.702 133.113 460.702 133.113 460.607 133.209C460.411 133.407 460.217 133.605 460.022 133.804C459.889 133.939 459.755 134.074 459.622 134.209C459.297 134.538 458.972 134.868 458.648 135.199C458.335 135.053 458.132 134.919 457.863 134.689C457.447 134.35 457.156 134.212 456.631 134.13C456.116 134.201 455.759 134.414 455.363 134.746C455.022 135.237 454.96 135.627 455.023 136.219C455.233 136.708 455.475 137.053 455.851 137.428C455.945 137.522 456.039 137.615 456.136 137.712C456.234 137.808 456.332 137.904 456.432 138.003C456.578 138.149 456.578 138.149 456.727 138.299C457.488 139.077 457.488 139.077 458.507 139.341C458.973 139.326 459.195 139.252 459.534 138.933C459.651 138.825 459.651 138.825 459.77 138.715C459.848 138.639 459.927 138.563 460.008 138.484C460.083 138.413 460.157 138.341 460.234 138.267C460.469 138.04 460.7 137.811 460.931 137.58C461.015 137.497 461.098 137.414 461.184 137.328C461.36 137.153 461.534 136.979 461.709 136.804C461.977 136.536 462.246 136.27 462.515 136.003C462.685 135.833 462.856 135.662 463.027 135.492C463.107 135.412 463.187 135.333 463.27 135.251C463.381 135.139 463.381 135.139 463.494 135.025C463.592 134.928 463.592 134.928 463.692 134.828C464.075 134.381 464.137 133.989 464.12 133.415C464.064 132.999 463.916 132.785 463.633 132.48C462.489 131.714 461.713 132.074 460.795 133.02ZM467.506 134.753C467.23 135.203 467.215 135.588 467.258 136.105C467.445 136.645 467.72 136.973 468.228 137.253C468.861 137.478 469.568 137.414 470.233 137.41C470.409 137.411 470.585 137.412 470.761 137.413C471.238 137.415 471.715 137.414 472.192 137.412C472.691 137.411 473.191 137.412 473.691 137.413C474.531 137.414 475.37 137.413 476.209 137.411C477.179 137.408 478.148 137.409 479.117 137.411C479.95 137.414 480.783 137.414 481.617 137.413C482.114 137.412 482.611 137.412 483.108 137.413C483.576 137.415 484.044 137.414 484.511 137.411C484.682 137.41 484.853 137.411 485.025 137.412C485.923 137.416 486.653 137.41 487.422 136.898C487.733 136.536 487.852 136.117 487.939 135.652C487.829 135.068 487.545 134.579 487.062 134.226C486.675 134.033 486.413 134.023 485.982 134.022C485.907 134.022 485.832 134.021 485.755 134.021C485.505 134.019 485.254 134.02 485.004 134.021C484.824 134.02 484.644 134.019 484.465 134.018C483.977 134.016 483.489 134.016 483.001 134.017C482.594 134.017 482.187 134.017 481.779 134.016C480.818 134.014 479.857 134.015 478.896 134.016C477.905 134.017 476.914 134.016 475.923 134.013C475.071 134.01 474.22 134.009 473.369 134.01C472.86 134.01 472.352 134.01 471.844 134.008C471.366 134.006 470.888 134.007 470.41 134.009C470.235 134.009 470.059 134.009 469.884 134.008C469.644 134.006 469.405 134.008 469.165 134.01C469.031 134.01 468.897 134.01 468.759 134.01C468.219 134.093 467.863 134.346 467.506 134.753ZM461.294 143.61C461.118 143.776 460.952 143.948 460.788 144.125C460.728 144.188 460.667 144.251 460.605 144.315C460.414 144.513 460.225 144.713 460.036 144.913C459.786 145.178 459.534 145.442 459.28 145.704C459.224 145.766 459.167 145.827 459.108 145.891C458.945 146.059 458.945 146.059 458.648 146.301C458.235 146.288 458.048 146.074 457.763 145.791C457.347 145.416 457.075 145.26 456.496 145.281C455.83 145.477 455.53 145.756 455.137 146.301C454.963 146.649 454.998 146.935 455.023 147.32C455.347 148.087 455.893 148.583 456.475 149.161C456.626 149.316 456.626 149.316 456.78 149.474C456.879 149.572 456.977 149.67 457.079 149.772C457.168 149.861 457.257 149.951 457.349 150.043C457.783 150.388 458.154 150.498 458.705 150.478C459.553 150.266 460.102 149.64 460.703 149.038C460.789 148.952 460.875 148.867 460.964 148.778C461.146 148.597 461.327 148.416 461.508 148.235C461.784 147.958 462.062 147.683 462.34 147.408C462.517 147.232 462.693 147.055 462.869 146.879C462.952 146.797 463.035 146.715 463.121 146.631C463.667 146.079 464.047 145.632 464.135 144.835C464.113 144.313 463.938 144.003 463.633 143.582C462.887 142.993 462.044 143.042 461.294 143.61ZM467.499 145.855C467.235 146.308 467.223 146.691 467.258 147.207C467.483 147.812 467.814 148.165 468.391 148.453C468.628 148.465 468.867 148.469 469.105 148.47C469.179 148.47 469.253 148.471 469.33 148.471C469.579 148.472 469.828 148.473 470.078 148.473C470.256 148.474 470.435 148.475 470.613 148.475C471.099 148.477 471.585 148.479 472.07 148.48C472.374 148.48 472.677 148.481 472.981 148.481C473.93 148.484 474.879 148.485 475.829 148.486C476.924 148.487 478.02 148.49 479.116 148.495C479.963 148.498 480.81 148.5 481.657 148.5C482.163 148.501 482.668 148.502 483.174 148.504C483.65 148.507 484.127 148.508 484.603 148.506C484.777 148.506 484.952 148.507 485.126 148.509C486.353 148.537 486.353 148.537 487.422 148C487.709 147.666 487.864 147.295 487.889 146.853C487.846 146.372 487.73 145.991 487.422 145.621C486.662 145.018 485.812 145.104 484.888 145.109C484.71 145.109 484.533 145.108 484.355 145.107C483.875 145.105 483.395 145.106 482.915 145.107C482.411 145.108 481.908 145.107 481.404 145.106C480.559 145.106 479.714 145.107 478.869 145.109C477.893 145.111 476.916 145.111 475.94 145.108C475.101 145.106 474.262 145.106 473.422 145.107C472.922 145.108 472.421 145.108 471.92 145.106C471.449 145.105 470.978 145.106 470.508 145.108C470.335 145.109 470.163 145.109 469.99 145.108C468.604 145.089 468.604 145.089 467.499 145.855ZM460.582 155.436C460.523 155.496 460.463 155.555 460.402 155.617C460.216 155.805 460.03 155.995 459.845 156.185C459.718 156.314 459.59 156.442 459.463 156.571C459.153 156.885 458.844 157.2 458.535 157.516C458.481 157.469 458.427 157.422 458.371 157.374C458.264 157.283 458.264 157.283 458.155 157.189C458.085 157.128 458.015 157.068 457.942 157.005C457.433 156.574 457.071 156.433 456.407 156.456C455.909 156.536 455.595 156.814 455.271 157.183C454.996 157.631 454.98 158.019 455.023 158.535C455.38 159.16 455.865 159.668 456.354 160.192C456.431 160.277 456.508 160.362 456.587 160.449C457.132 161.033 457.667 161.504 458.475 161.641C458.97 161.585 459.274 161.469 459.644 161.131C459.722 161.059 459.801 160.987 459.882 160.914C460.266 160.55 460.645 160.182 461.019 159.808C461.101 159.727 461.182 159.647 461.265 159.563C461.435 159.394 461.605 159.225 461.774 159.055C462.034 158.796 462.294 158.538 462.555 158.279C462.72 158.114 462.886 157.949 463.051 157.783C463.129 157.706 463.207 157.629 463.287 157.55C463.359 157.478 463.431 157.406 463.505 157.331C463.568 157.268 463.631 157.205 463.696 157.14C464.077 156.694 464.136 156.302 464.121 155.731C464.045 155.179 463.727 154.878 463.321 154.528C462.197 153.965 461.354 154.639 460.582 155.436ZM459.83 167.399C459.45 167.82 459.053 168.22 458.648 168.617C458.232 168.417 457.934 168.173 457.593 167.863C457.186 167.539 456.768 167.564 456.27 167.598C455.739 167.795 455.452 168.036 455.137 168.504C454.983 168.965 454.907 169.386 455.12 169.844C455.507 170.466 455.967 170.972 456.489 171.485C456.567 171.564 456.645 171.644 456.726 171.726C457.242 172.239 457.762 172.743 458.535 172.745C458.64 172.748 458.64 172.748 458.748 172.751C459.522 172.571 460.106 171.837 460.643 171.297C460.735 171.206 460.826 171.114 460.921 171.02C461.113 170.828 461.306 170.635 461.498 170.442C461.792 170.147 462.087 169.852 462.383 169.558C462.57 169.371 462.757 169.183 462.944 168.996C463.033 168.908 463.121 168.82 463.212 168.73C463.294 168.647 463.375 168.565 463.46 168.48C463.532 168.408 463.603 168.336 463.678 168.261C464.07 167.806 464.136 167.419 464.122 166.833C464.051 166.331 463.769 166.018 463.399 165.693C461.893 164.77 460.736 166.394 459.83 167.399Z" fill="white"/>
<path d="M489.297 154.974C489.4 154.992 489.503 155.009 489.609 155.027C489.722 155.047 489.834 155.067 489.949 155.087C490.126 155.117 490.126 155.117 490.306 155.148C491.008 155.269 491.707 155.403 492.405 155.545C492.56 155.576 492.714 155.607 492.869 155.638C493.167 155.698 493.464 155.761 493.761 155.824C495.827 156.244 497.564 155.89 499.6 155.469C500.002 155.387 500.404 155.304 500.807 155.223C501.056 155.173 501.305 155.122 501.554 155.07C502.661 154.847 502.661 154.847 503.168 155.023C503.438 155.211 503.598 155.359 503.663 155.689C503.68 155.965 503.682 156.237 503.68 156.513C503.681 156.618 503.681 156.723 503.682 156.831C503.684 157.178 503.683 157.526 503.681 157.873C503.682 158.117 503.682 158.36 503.683 158.603C503.683 159.114 503.682 159.625 503.68 160.135C503.678 160.784 503.679 161.433 503.682 162.082C503.683 162.585 503.683 163.089 503.682 163.592C503.681 163.831 503.682 164.069 503.683 164.308C503.697 168.512 502.187 171.928 499.258 174.909C498.352 175.801 497.07 176.997 495.755 177.12C494.351 177.002 493.134 175.668 492.18 174.734C492.082 174.643 491.984 174.553 491.883 174.459C491.107 173.722 490.501 172.905 489.914 172.016C489.842 171.907 489.769 171.799 489.695 171.688C488.795 170.252 488.263 168.582 487.988 166.918C487.969 166.801 487.949 166.685 487.929 166.565C487.868 166.066 487.857 165.579 487.855 165.077C487.854 164.924 487.854 164.924 487.853 164.768C487.85 164.433 487.849 164.098 487.848 163.763C487.848 163.648 487.847 163.533 487.847 163.415C487.844 162.808 487.843 162.202 487.842 161.595C487.84 160.969 487.836 160.342 487.832 159.716C487.829 159.234 487.828 158.752 487.828 158.269C487.827 158.038 487.826 157.807 487.824 157.576C487.821 157.254 487.821 156.931 487.822 156.609C487.82 156.513 487.819 156.418 487.817 156.32C487.821 155.864 487.841 155.643 488.091 155.249C488.485 154.874 488.779 154.886 489.297 154.974Z" fill="white"/>
<path d="M457.402 119.34C457.345 119.639 457.282 119.934 457.206 120.229C456.918 121.403 456.887 122.541 456.871 123.744C456.868 123.944 456.864 124.144 456.86 124.344C456.85 124.828 456.842 125.313 456.836 125.797C456.71 125.798 456.584 125.799 456.454 125.8C455.979 125.805 455.504 125.812 455.029 125.82C454.825 125.824 454.621 125.826 454.417 125.828C453.289 125.837 452.288 125.873 451.22 126.267C450.945 126.363 450.945 126.363 450.605 126.363C450.907 124.255 452.424 122.169 454.076 120.896C454.966 120.253 456.279 119.34 457.402 119.34Z" fill="white"/>
</g>
<path d="M477 433.028L465.857 422.078C468.104 419.37 469.344 415.994 469.374 412.504C469.403 409.014 468.221 405.618 466.02 402.874C463.819 400.13 460.732 398.201 457.265 397.405C453.798 396.609 450.158 396.993 446.943 398.494C443.728 399.994 441.129 402.522 439.574 405.662C438.02 408.802 437.601 412.367 438.387 415.771C439.174 419.175 441.118 422.216 443.901 424.393C446.684 426.57 450.14 427.755 453.701 427.752C456.431 427.74 459.108 427.015 461.458 425.652L473.035 437L477 433.028ZM443.687 412.376C443.687 410.435 444.274 408.537 445.374 406.923C446.475 405.308 448.039 404.05 449.869 403.307C451.698 402.565 453.712 402.37 455.655 402.749C457.597 403.128 459.382 404.062 460.782 405.435C462.183 406.808 463.136 408.557 463.523 410.461C463.909 412.365 463.711 414.339 462.953 416.132C462.195 417.926 460.911 419.459 459.265 420.537C457.618 421.616 455.682 422.191 453.701 422.191C451.065 422.162 448.548 421.114 446.694 419.277C444.841 417.439 443.802 414.96 443.802 412.376H443.687Z" fill="white"/>
<defs>
<clipPath id="clip0_1_2263">
<rect width="63" height="63" fill="white" transform="translate(47 113)"/>
</clipPath>
<clipPath id="clip1_1_2263">
<rect width="58" height="58" fill="white" transform="translate(448 119)"/>
</clipPath>
</defs>
</svg>
