<svg width="23" height="24" viewBox="0 0 23 24" fill="none" xmlns="http://www.w3.org/2000/svg">
<g clip-path="url(#clip0_1_3493)">
<path d="M15.3134 16.154C15.3961 16.1534 15.3961 16.1534 15.4805 16.1528C15.6301 16.152 15.7797 16.1519 15.9294 16.1523C16.055 16.1525 16.1807 16.1522 16.3064 16.1519C16.6033 16.1511 16.9002 16.1513 17.1971 16.152C17.5017 16.1528 17.8062 16.1521 18.1108 16.1506C18.3739 16.1494 18.637 16.1491 18.9001 16.1495C19.0566 16.1497 19.213 16.1496 19.3694 16.1487C20.6179 16.142 20.6179 16.142 21.1132 16.4025C21.1597 16.4263 21.1597 16.4263 21.207 16.4505C21.9968 16.8973 22.5535 17.7529 22.8034 18.6102C23.1386 19.8661 22.9999 20.9919 22.9999 22.3771C19.4421 22.3771 15.8843 22.3771 12.2187 22.3771C12.2187 18.1234 12.2187 18.1234 13.4416 16.8854C13.9833 16.381 14.5752 16.1497 15.3134 16.154Z" fill="#FF4242"/>
<path d="M9.88269 5.41086C9.92717 5.44812 9.92717 5.44812 9.97254 5.48614C10.0093 5.51434 10.0461 5.54254 10.084 5.57159C10.829 6.1919 11.2161 7.198 11.3202 8.13653C11.4044 9.19841 11.0508 10.1837 10.3761 10.9978C9.74824 11.7271 8.86378 12.2021 7.90613 12.3143C6.74217 12.385 5.73454 12.1348 4.84021 11.3513C4.76833 11.2837 4.69716 11.2154 4.62683 11.1463C4.59545 11.1155 4.56406 11.0847 4.53173 11.0529C3.83895 10.3251 3.52333 9.30826 3.53293 8.31878C3.56411 7.24328 4.03142 6.26963 4.80652 5.53106C6.24255 4.28677 8.39754 4.19547 9.88269 5.41086Z" fill="#FF4242"/>
<path d="M3.76755 14.0637C3.81664 14.0645 3.81664 14.0645 3.86672 14.0652C3.89514 14.0657 3.92357 14.0661 3.95285 14.0665C4.15117 14.4379 4.30977 14.8243 4.46932 15.2133C4.53591 15.3756 4.60288 15.5378 4.66982 15.7C4.70547 15.7864 4.7411 15.8728 4.77672 15.9592C4.97712 16.4454 5.17951 16.9307 5.38193 17.416C5.41934 17.5058 5.45676 17.5955 5.49417 17.6853C5.57015 17.8676 5.64614 18.0498 5.72213 18.2321C5.90542 18.6717 6.08858 19.1114 6.27176 19.5511C6.38524 19.8234 6.38524 19.8234 6.49875 20.0958C6.53305 20.1782 6.56733 20.2605 6.60157 20.3429C6.67138 20.5108 6.74139 20.6786 6.81313 20.8456C6.8338 20.894 6.85447 20.9424 6.87576 20.9922C6.90152 21.0517 6.90152 21.0517 6.9278 21.1124C6.96262 21.2091 6.96262 21.2091 6.96262 21.3439C5.71738 21.3439 4.47215 21.3439 3.18918 21.3439C3.17436 20.7361 3.15953 20.1283 3.14426 19.5021C3.02472 19.3565 3.02472 19.3565 2.87473 19.3449C2.73563 19.3531 2.73563 19.3531 2.66559 19.4557C2.58427 19.6391 2.58373 19.7985 2.58221 19.9971C2.58146 20.0313 2.58071 20.0655 2.57994 20.1008C2.57736 20.2278 2.5759 20.3549 2.57431 20.482C2.56968 20.7664 2.56505 21.0508 2.56027 21.3439C1.71529 21.3439 0.870312 21.3439 -0.000273809 21.3439C-0.0056791 20.474 -0.0056791 20.474 -0.00685416 20.0993C-0.00765549 19.845 -0.00859686 19.5907 -0.0104405 19.3364C-0.0119195 19.131 -0.0127136 18.9257 -0.0130599 18.7204C-0.0133063 18.6425 -0.0137875 18.5647 -0.0145227 18.4869C-0.0260937 17.2101 0.367116 16.1163 1.24912 15.1784C1.88897 14.5681 2.86417 14.0501 3.76755 14.0637Z" fill="#FF4242"/>
<path d="M15.0115 1.5999C15.0766 1.59966 15.1417 1.59934 15.2068 1.59895C15.3832 1.59813 15.5595 1.59845 15.7358 1.59902C15.9206 1.59947 16.1054 1.59905 16.2902 1.59877C16.6004 1.59844 16.9107 1.59887 17.2209 1.59973C17.5793 1.60071 17.9378 1.60039 18.2962 1.5994C18.6042 1.59858 18.9122 1.59847 19.2203 1.59894C19.4041 1.59922 19.5879 1.59926 19.7718 1.59866C19.9447 1.59814 20.1175 1.59851 20.2904 1.59954C20.3537 1.59978 20.417 1.59971 20.4804 1.59932C21.073 1.59594 21.073 1.59594 21.2928 1.80284C21.4326 1.96185 21.4779 2.0972 21.4791 2.30704C21.4796 2.36504 21.4796 2.36504 21.4801 2.4242C21.4802 2.46649 21.4804 2.50878 21.4805 2.55235C21.4808 2.59699 21.4811 2.64163 21.4814 2.68763C21.4823 2.8356 21.4828 2.98357 21.4832 3.13155C21.4834 3.18208 21.4836 3.23261 21.4838 3.28467C21.4847 3.55213 21.4854 3.81958 21.4858 4.08704C21.4863 4.36322 21.4878 4.63939 21.4896 4.91557C21.4908 5.12799 21.4912 5.3404 21.4913 5.55283C21.4916 5.65463 21.4921 5.75643 21.4929 5.85823C21.494 6.00082 21.494 6.14336 21.4936 6.28595C21.4945 6.34883 21.4945 6.34883 21.4954 6.41299C21.4933 6.68141 21.4495 6.83884 21.2928 7.0587C21.0726 7.22815 20.8495 7.24391 20.5786 7.2447C20.5255 7.24496 20.4724 7.24521 20.4177 7.24548C20.3599 7.24553 20.302 7.24558 20.2424 7.24563C20.1805 7.24584 20.1187 7.24606 20.0568 7.2463C19.8891 7.24689 19.7214 7.24718 19.5537 7.24738C19.4488 7.24752 19.3439 7.2477 19.239 7.2479C18.9105 7.24851 18.582 7.24895 18.2535 7.24912C17.8749 7.24932 17.4962 7.25011 17.1176 7.25141C16.8245 7.25239 16.5315 7.25284 16.2384 7.2529C16.0635 7.25294 15.8887 7.25321 15.7138 7.25401C15.5492 7.25475 15.3847 7.25485 15.2201 7.25446C15.1314 7.2544 15.0426 7.25502 14.9538 7.25566C14.6541 7.25425 14.4205 7.23777 14.1503 7.10362C13.9343 6.88216 13.9185 6.68889 13.913 6.39189C13.9118 6.34031 13.9118 6.34031 13.9105 6.28769C13.907 6.14063 13.9039 5.99356 13.9009 5.84649C13.8985 5.7391 13.896 5.63172 13.8934 5.52434C13.8928 5.49107 13.8922 5.45779 13.8915 5.42351C13.8881 5.2836 13.8804 5.17091 13.8358 5.03722C13.3763 5.02239 12.9167 5.00757 12.4432 4.9923C12.5348 4.80924 12.6362 4.70851 12.7858 4.57677C13.0339 4.35305 13.2738 4.12227 13.5101 3.8861C13.5417 3.85469 13.5733 3.82329 13.6059 3.79094C13.6352 3.76154 13.6645 3.73214 13.6947 3.70185C13.7209 3.67563 13.7471 3.64942 13.774 3.62242C13.9057 3.47832 13.8869 3.35085 13.8886 3.16103C13.8897 3.09908 13.8908 3.03714 13.8919 2.9752C13.8935 2.87771 13.8948 2.78025 13.8954 2.68275C13.8961 2.58852 13.8979 2.49437 13.8999 2.40016C13.9005 2.34381 13.9012 2.28745 13.9018 2.22938C13.9374 1.99498 14.0374 1.86727 14.2069 1.70661C14.4428 1.55622 14.7423 1.59822 15.0115 1.5999ZM15.3378 2.69414C15.2505 2.82541 15.2503 2.90614 15.2733 3.06066C15.3427 3.15215 15.3956 3.18916 15.4979 3.24034C15.6352 3.24549 15.7714 3.24788 15.9087 3.24829C15.9513 3.24859 15.9939 3.24888 16.0377 3.24919C16.1791 3.25008 16.3205 3.2506 16.4618 3.25105C16.51 3.25123 16.5582 3.25141 16.6079 3.2516C16.863 3.25254 17.1181 3.25318 17.3732 3.2536C17.637 3.2541 17.9007 3.25565 18.1645 3.25743C18.3671 3.2586 18.5697 3.25898 18.7723 3.25914C18.8695 3.25936 18.9667 3.25988 19.064 3.26071C19.2 3.26181 19.336 3.26177 19.4721 3.26145C19.5324 3.26232 19.5324 3.26232 19.5939 3.2632C19.7784 3.26165 19.8764 3.25471 20.0376 3.1576C20.1358 3.06489 20.1358 3.06489 20.153 2.92589C20.1358 2.78693 20.1358 2.78693 20.0377 2.69431C19.846 2.57869 19.6894 2.58621 19.4694 2.58819C19.4263 2.58787 19.3831 2.58756 19.3387 2.58723C19.1964 2.58644 19.0541 2.58696 18.9118 2.58757C18.8129 2.58745 18.7139 2.58728 18.6149 2.58705C18.4077 2.58679 18.2004 2.58717 17.9931 2.58801C17.7273 2.58903 17.4615 2.58844 17.1957 2.58737C16.9914 2.58672 16.7871 2.58693 16.5828 2.58739C16.4848 2.58751 16.3868 2.58736 16.2888 2.58695C16.1518 2.58649 16.015 2.58718 15.8781 2.58819C15.8375 2.58782 15.7969 2.58746 15.7551 2.58708C15.5313 2.58936 15.5313 2.58936 15.3378 2.69414ZM15.2733 4.27355C15.2396 4.43269 15.2396 4.43269 15.2733 4.588C15.3528 4.6815 15.419 4.71798 15.5407 4.73511C15.655 4.74072 15.7685 4.74148 15.8829 4.74092C15.9265 4.74122 15.97 4.74153 16.0149 4.74185C16.1589 4.74267 16.3029 4.7425 16.4469 4.74224C16.5469 4.74245 16.647 4.74269 16.747 4.74296C16.9566 4.74336 17.1663 4.74325 17.376 4.7428C17.6449 4.74229 17.9137 4.74319 18.1826 4.74451C18.3892 4.74533 18.5957 4.74532 18.8023 4.74506C18.9014 4.74505 19.0006 4.74533 19.0997 4.74588C19.2383 4.74655 19.3768 4.74607 19.5153 4.7453C19.5769 4.74595 19.5769 4.74595 19.6397 4.74662C19.8654 4.74508 19.8654 4.74508 20.0603 4.63994C20.1496 4.50598 20.1544 4.43118 20.1249 4.27355C19.9966 4.13119 19.8944 4.08246 19.7076 4.07104C19.6298 4.06998 19.552 4.0699 19.4742 4.07061C19.4316 4.07029 19.389 4.06998 19.3451 4.06965C19.2045 4.06886 19.0639 4.06939 18.9232 4.06999C18.8254 4.06987 18.7275 4.0697 18.6297 4.06947C18.4247 4.06921 18.2198 4.06959 18.0148 4.07043C17.7521 4.07146 17.4894 4.07087 17.2267 4.06979C17.0247 4.06914 16.8227 4.06935 16.6207 4.06981C16.5238 4.06993 16.427 4.06979 16.3301 4.06937C16.1947 4.06891 16.0594 4.06961 15.924 4.07061C15.884 4.07024 15.844 4.06988 15.8028 4.06951C15.5722 4.07266 15.4348 4.09143 15.2733 4.27355ZM15.2733 5.75597C15.2465 5.96377 15.2465 5.96377 15.3299 6.14656C15.4267 6.21914 15.4772 6.22212 15.5973 6.2223C15.6359 6.22268 15.6744 6.22306 15.7141 6.22345C15.7563 6.22318 15.7984 6.22291 15.8419 6.22262C15.9086 6.22298 15.9086 6.22298 15.9767 6.22334C16.1241 6.22393 16.2714 6.22354 16.4188 6.22309C16.521 6.22318 16.6233 6.22331 16.7255 6.22348C16.9398 6.22368 17.1542 6.22339 17.3685 6.22276C17.6436 6.22199 17.9187 6.22243 18.1938 6.22324C18.4049 6.22372 18.616 6.22357 18.8271 6.22322C18.9285 6.22313 19.03 6.22324 19.1314 6.22355C19.2731 6.2239 19.4147 6.22338 19.5563 6.22262C19.6196 6.22303 19.6196 6.22303 19.6841 6.22345C19.7419 6.22288 19.7419 6.22288 19.8009 6.2223C19.8344 6.22225 19.8678 6.2222 19.9023 6.22215C20.0158 6.20023 20.0555 6.16146 20.1249 6.07042C20.1478 5.91623 20.1475 5.83522 20.061 5.70386C19.8849 5.57813 19.7218 5.59646 19.5104 5.59866C19.4664 5.59842 19.4223 5.59818 19.3769 5.59793C19.2312 5.59737 19.0856 5.59811 18.9399 5.59892C18.8387 5.59891 18.7376 5.59884 18.6365 5.59872C18.4245 5.59866 18.2125 5.59922 18.0006 5.60024C17.7286 5.60152 17.4566 5.6014 17.1845 5.60082C16.9757 5.60051 16.7669 5.60086 16.558 5.60142C16.4577 5.60162 16.3574 5.60164 16.2571 5.60146C16.1171 5.60133 15.9771 5.60207 15.837 5.60305C15.7954 5.60285 15.7537 5.60265 15.7108 5.60244C15.6727 5.60288 15.6346 5.60333 15.5953 5.60379C15.5622 5.6039 15.5291 5.60401 15.495 5.60412C15.3816 5.62641 15.3419 5.664 15.2733 5.75597Z" fill="#FF4242"/>
<path d="M19.654 9.94606C20.2651 10.4886 20.7021 11.2142 20.7601 12.0445C20.7984 12.8898 20.6557 13.7166 20.0795 14.3758C19.9782 14.4859 19.8725 14.5906 19.7655 14.6953C19.7228 14.7402 19.7228 14.7402 19.6792 14.786C19.294 15.1635 18.7154 15.4012 18.1933 15.5039C18.1168 15.5192 18.1168 15.5192 18.0388 15.5348C17.0893 15.6181 16.2756 15.3792 15.5213 14.7957C14.9379 14.2783 14.5088 13.5328 14.4578 12.7458C14.4146 11.7883 14.6137 10.9532 15.2588 10.2205C16.4187 9.02935 18.3587 8.85508 19.654 9.94606Z" fill="#FF4242"/>
<path d="M11.2211 14.067C11.2847 14.0662 11.3484 14.0656 11.4121 14.0651C11.4476 14.0647 11.483 14.0643 11.5196 14.064C12.4607 14.0912 13.3991 14.6826 14.0511 15.3248C14.1647 15.4543 14.2689 15.5867 14.3656 15.7291C14.2553 15.8539 14.136 15.9186 13.9894 15.9959C13.0127 16.5575 12.4101 17.5841 12.1195 18.6491C11.895 19.5497 11.9207 20.3912 11.8949 21.3444C10.6941 21.3444 9.49337 21.3444 8.25623 21.3444C8.28751 21.188 8.31339 21.0758 8.37248 20.9338C8.39445 20.8806 8.39445 20.8806 8.41687 20.8263C8.43289 20.7881 8.4489 20.7499 8.46539 20.7106C8.48218 20.67 8.49898 20.6295 8.51627 20.5878C8.57165 20.4543 8.62732 20.321 8.68298 20.1876C8.72196 20.0938 8.76092 20 8.79986 19.9062C8.8796 19.7142 8.95945 19.5222 9.0394 19.3303C9.14311 19.0812 9.24646 18.832 9.34962 18.5827C9.61613 17.9388 9.88335 17.2952 10.1515 16.652C10.1714 16.6044 10.1912 16.5567 10.2117 16.5077C10.308 16.2768 10.4043 16.046 10.5006 15.8151C10.7434 15.2335 10.9832 14.6507 11.2211 14.067Z" fill="#FF4242"/>
<path d="M6.51334 15.9082C7.13596 15.9082 7.75857 15.9082 8.40006 15.9082C8.48993 16.1093 8.5798 16.3103 8.6724 16.5175C8.71523 16.6117 8.71523 16.6117 8.75892 16.7078C8.79192 16.7832 8.79192 16.7832 8.82559 16.8602C8.85982 16.9367 8.85982 16.9367 8.89474 17.0149C8.98462 17.321 8.86741 17.5726 8.74487 17.8505C8.72967 17.8859 8.71447 17.9212 8.6988 17.9577C8.66612 18.0335 8.63326 18.1094 8.60025 18.1851C8.51301 18.3854 8.42697 18.5862 8.34075 18.7869C8.3232 18.8276 8.30566 18.8684 8.28759 18.9103C8.1102 19.3229 7.93862 19.7378 7.76835 20.1533C7.75465 20.1867 7.74096 20.2201 7.72685 20.2545C7.65163 20.4378 7.57655 20.6212 7.50162 20.8047C7.47197 20.8047 7.44232 20.8047 7.41178 20.8047C7.36018 20.6817 7.30859 20.5588 7.25701 20.4358C7.23261 20.3777 7.23261 20.3777 7.20771 20.3183C7.11722 20.1025 7.02685 19.8867 6.93671 19.6707C6.91836 19.6268 6.9 19.5828 6.88109 19.5375C6.84363 19.4478 6.80617 19.358 6.76871 19.2682C6.66481 19.0196 6.56015 18.7713 6.45441 18.5234C6.39487 18.3836 6.33583 18.2436 6.2769 18.1036C6.24936 18.0385 6.22158 17.9735 6.19357 17.9087C6.15477 17.8188 6.11682 17.7285 6.07904 17.6382C6.0576 17.5879 6.03616 17.5377 6.01408 17.4859C5.94371 17.2381 6.02279 17.0472 6.12027 16.8172C6.14019 16.7698 6.16011 16.7224 6.18064 16.6736C6.20148 16.6249 6.22233 16.5761 6.24381 16.5259C6.26466 16.4764 6.2855 16.427 6.30698 16.376C6.45741 16.0201 6.45741 16.0201 6.51334 15.9082Z" fill="#FF4242"/>
<path d="M6.15399 14.0664C7.0138 14.0664 7.8736 14.0664 8.75946 14.0664C8.40009 15.2344 8.40009 15.2344 8.35516 15.2793C8.22233 15.2833 8.09054 15.2845 7.95771 15.2837C7.89798 15.2836 7.89798 15.2836 7.83704 15.2835C7.70933 15.2832 7.58163 15.2827 7.45392 15.2821C7.36756 15.2819 7.28119 15.2817 7.19483 15.2815C6.98265 15.281 6.77047 15.2802 6.55829 15.2793C6.38397 14.8829 6.27767 14.4869 6.15399 14.0664Z" fill="#FF4242"/>
</g>
<defs>
<clipPath id="clip0_1_3493">
<rect width="23" height="23" fill="white" transform="translate(0 0.5)"/>
</clipPath>
</defs>
</svg>
