<svg width="23" height="24" viewBox="0 0 23 24" fill="none" xmlns="http://www.w3.org/2000/svg">
<path d="M23 21.617L16.4284 15.0468C17.7535 13.4222 18.4849 11.3964 18.5024 9.30235C18.5199 7.20829 17.8224 5.17059 16.5246 3.52421C15.2268 1.87784 13.406 0.720754 11.3613 0.243148C9.31666 -0.234459 7.16992 -0.0041666 5.27391 0.896172C3.37791 1.79651 1.84547 3.31332 0.928518 5.19728C0.0115682 7.08123 -0.235335 9.22022 0.228373 11.2627C0.692082 13.3051 1.83881 15.1295 3.48008 16.4358C5.12136 17.7422 7.1595 18.4529 9.2595 18.4511C10.8694 18.4438 12.4484 18.009 13.834 17.1915L20.6616 24L23 21.617ZM3.35366 9.22555C3.35366 8.06074 3.70003 6.9221 4.34897 5.9536C4.99792 4.9851 5.92028 4.23024 6.99943 3.78448C8.07858 3.33873 9.26606 3.22209 10.4117 3.44934C11.5573 3.67658 12.6096 4.23749 13.4356 5.06113C14.2615 5.88477 14.824 6.93416 15.0519 8.07658C15.2798 9.219 15.1628 10.4032 14.7158 11.4793C14.2688 12.5554 13.5118 13.4752 12.5406 14.1224C11.5694 14.7695 10.4276 15.1149 9.2595 15.1149C7.70503 15.097 6.22033 14.4686 5.12749 13.3661C4.03465 12.2635 3.42182 10.7758 3.42192 9.22555H3.35366Z" fill="#0078BD"/>
</svg>
