<svg width="62" height="62" viewBox="0 0 62 62" fill="none" xmlns="http://www.w3.org/2000/svg">
<path d="M19.678 5.02572C19.8414 5.02504 19.8414 5.02504 20.0082 5.02435C20.3739 5.02309 20.7396 5.02326 21.1054 5.02342C21.3673 5.02282 21.6293 5.02215 21.8912 5.02139C22.5293 5.01974 23.1674 5.01919 23.8055 5.01908C24.3242 5.01898 24.8429 5.01858 25.3615 5.01794C26.8323 5.01619 28.3031 5.01527 29.7739 5.01542C29.8928 5.01543 29.8928 5.01543 30.0141 5.01544C30.0935 5.01545 30.1728 5.01546 30.2546 5.01547C31.5411 5.01555 32.8275 5.01364 34.114 5.01083C35.4351 5.00797 36.7563 5.0066 38.0774 5.00677C38.819 5.00684 39.5607 5.00629 40.3023 5.00414C40.9337 5.00233 41.5651 5.0019 42.1965 5.00325C42.5186 5.0039 42.8406 5.00369 43.1627 5.00218C43.5121 5.00065 43.8613 5.00157 44.2107 5.00311C44.3122 5.00208 44.4137 5.00106 44.5183 5C45.133 5.00599 45.5015 5.08578 46.0019 5.4508C46.355 5.90605 46.5125 6.25212 46.5122 6.8243C46.5124 6.92309 46.5126 7.02188 46.5128 7.12366C46.5126 7.23247 46.5123 7.34129 46.512 7.4534C46.5121 7.62645 46.5121 7.62645 46.5122 7.803C46.5124 8.12373 46.512 8.44446 46.5115 8.76519C46.5111 9.11086 46.5113 9.45654 46.5113 9.80222C46.5114 10.4013 46.5111 11.0004 46.5105 11.5994C46.5097 12.4656 46.5094 13.3318 46.5093 14.198C46.5091 15.6032 46.5084 17.0084 46.5075 18.4137C46.5066 19.7789 46.5059 21.1441 46.5055 22.5093C46.5054 22.6355 46.5054 22.6355 46.5054 22.7642C46.5052 23.1862 46.5051 23.6083 46.505 24.0303C46.504 27.5324 46.5022 31.0346 46.5 34.5367C46.3423 34.5218 46.1847 34.5066 46.0271 34.4913C45.8954 34.4786 45.8954 34.4786 45.761 34.4657C45.4067 34.4263 45.0644 34.3602 44.7148 34.2897C44.5701 34.2617 44.4253 34.2339 44.2806 34.2062C44.0583 34.1633 43.8363 34.1198 43.6146 34.0743C42.0539 33.7562 40.8329 33.8327 39.4526 34.7111C38.7569 35.4068 38.3668 36.2333 38.2246 37.1997C38.2073 37.3165 38.1899 37.4334 38.172 37.5537C38.1526 37.6874 38.1526 37.6874 38.1328 37.8238C38.0611 37.824 37.9895 37.8241 37.9157 37.8243C36.1706 37.828 34.4255 37.8339 32.6804 37.8422C31.8365 37.8461 30.9926 37.8493 30.1486 37.8508C29.4129 37.8521 28.6771 37.8548 27.9414 37.8592C27.552 37.8614 27.1626 37.863 26.7732 37.8629C26.4062 37.8628 26.0393 37.8646 25.6724 37.8678C25.4744 37.869 25.2764 37.8683 25.0783 37.8676C24.3713 37.8758 23.8877 37.9305 23.291 38.3219C23.0122 38.7052 22.9376 39.0564 22.9572 39.5215C23.0343 39.9509 23.2718 40.228 23.6165 40.4777C23.932 40.6344 24.1383 40.6511 24.4893 40.6526C24.6701 40.6545 24.6701 40.6545 24.8546 40.6564C24.986 40.6563 25.1174 40.6561 25.2528 40.656C25.3932 40.6569 25.5336 40.6579 25.674 40.659C26.0545 40.6618 26.435 40.6627 26.8155 40.6633C27.2134 40.6643 27.6112 40.6669 28.0091 40.6693C28.7623 40.6736 29.5154 40.6765 30.2686 40.6788C31.1262 40.6815 31.9838 40.6859 32.8413 40.6904C34.6052 40.6996 36.369 40.7068 38.1328 40.7125C38.1338 40.7852 38.1348 40.8578 38.1359 40.9327C38.1457 41.6214 38.1559 42.31 38.1666 42.9986C38.1721 43.3526 38.1774 43.7065 38.1823 44.0605C38.188 44.4685 38.1945 44.8764 38.2009 45.2844C38.2034 45.4728 38.2034 45.4728 38.2059 45.665C38.2172 46.3435 38.2493 47.0115 38.332 47.6852C38.2204 47.6853 38.2204 47.6853 38.1066 47.6853C36.2959 47.6868 34.4852 47.6911 32.6745 47.6983C31.7988 47.7018 30.9232 47.7043 30.0476 47.7047C29.2843 47.705 28.5211 47.707 27.7578 47.7111C27.3537 47.7132 26.9496 47.7145 26.5455 47.7137C26.165 47.7129 25.7846 47.7145 25.404 47.7178C25.2645 47.7187 25.125 47.7186 24.9856 47.7177C24.1452 47.6845 24.1452 47.6845 23.4111 48.0266C23.0499 48.4478 22.9453 48.7035 22.9603 49.2762C23.0271 49.699 23.2822 49.9776 23.5898 50.2563C23.9806 50.4884 24.3547 50.4874 24.8026 50.49C24.9289 50.491 25.0552 50.4919 25.1853 50.493C25.3249 50.4935 25.4646 50.4941 25.6043 50.4947C25.7516 50.4956 25.8988 50.4966 26.0461 50.4977C26.4457 50.5004 26.8453 50.5025 27.245 50.5044C27.6627 50.5066 28.0804 50.5094 28.4981 50.512C29.289 50.517 30.0799 50.5215 30.8708 50.5258C31.7713 50.5307 32.6717 50.5362 33.5722 50.5417C35.4244 50.553 37.2766 50.5637 39.1289 50.5738C39.1544 50.6284 39.18 50.6829 39.2063 50.7391C39.3232 50.9884 39.4404 51.2375 39.5577 51.4867C39.5979 51.5725 39.638 51.6583 39.6794 51.7466C39.9531 52.3271 40.2433 52.8789 40.6106 53.4065C40.6602 53.4795 40.7099 53.5525 40.761 53.6278C41.1547 54.1942 41.5904 54.703 42.0701 55.1979C42.3336 55.4727 42.572 55.7589 42.8144 56.0524C38.5482 56.0592 34.282 56.0645 30.0157 56.0676C29.5123 56.068 29.0088 56.0684 28.5053 56.0688C28.4051 56.0689 28.3048 56.0689 28.2016 56.069C26.5778 56.0703 24.9541 56.0727 23.3303 56.0754C21.6646 56.0782 19.999 56.0799 18.3333 56.0805C17.3052 56.0809 16.2771 56.0822 15.249 56.0846C14.5443 56.0862 13.8397 56.0867 13.135 56.0863C12.7282 56.0861 12.3215 56.0864 11.9147 56.088C11.5423 56.0894 11.17 56.0895 10.7976 56.0885C10.599 56.0883 10.4004 56.0896 10.2018 56.0909C10.0837 56.0903 9.96557 56.0897 9.84387 56.0891C9.74212 56.0892 9.64038 56.0894 9.53555 56.0895C9.06203 56.0288 8.6635 55.8339 8.36827 55.4547C8.05408 55.0238 8.03818 54.7355 8.03739 54.2145C8.03716 54.1487 8.03693 54.0829 8.03669 54.015C8.03602 53.7929 8.03606 53.5707 8.03611 53.3486C8.03578 53.1883 8.03541 53.028 8.035 52.8677C8.034 52.4261 8.03363 51.9844 8.03336 51.5428C8.03297 51.0669 8.03202 50.5911 8.03115 50.1152C8.02918 48.9654 8.02818 47.8155 8.02729 46.6657C8.02686 46.1244 8.02632 45.5831 8.0258 45.0418C8.0241 43.2428 8.02266 41.4437 8.02194 39.6447C8.02175 39.1777 8.02156 38.7107 8.02136 38.2437C8.02132 38.1276 8.02127 38.0115 8.02122 37.8919C8.02039 36.0114 8.01787 34.1309 8.01463 32.2503C8.01134 30.3202 8.00954 28.3902 8.00923 26.4601C8.00901 25.3761 8.00814 24.2922 8.00559 23.2083C8.00343 22.2852 8.00263 21.3622 8.0036 20.4391C8.00405 19.9681 8.00386 19.4972 8.00193 19.0262C8.00018 18.5948 8.00027 18.1635 8.00182 17.7322C8.00206 17.5763 8.00162 17.4204 8.00044 17.2646C7.99373 16.3202 8.05768 15.5792 8.60562 14.7872C9.30882 14.0893 10.0814 13.8738 11.0576 13.8675C11.2231 13.8692 11.2231 13.8692 11.392 13.8709C11.5083 13.8702 11.6246 13.8695 11.7445 13.8688C12.1132 13.8666 12.4819 13.8669 12.8507 13.8678C13.3378 13.869 13.8247 13.8676 14.3118 13.8647C14.4782 13.8664 14.4782 13.8664 14.6479 13.8681C15.2899 13.8639 15.7098 13.8272 16.2187 13.4195C16.6317 12.8837 16.5597 12.2431 16.558 11.5966C16.5596 11.4187 16.5596 11.4187 16.5613 11.2371C16.5647 10.8585 16.5663 10.4799 16.5674 10.1013C16.5688 9.60362 16.5722 9.106 16.5767 8.60834C16.5764 8.495 16.5761 8.38167 16.5758 8.2649C16.5843 7.35557 16.723 6.5685 17.3144 5.84923C18.0826 5.17625 18.6709 5.02267 19.678 5.02572ZM17.2094 17.3802C17.1277 17.4625 17.1277 17.4625 17.0444 17.5464C16.8722 17.7203 16.7011 17.8951 16.53 18.0701C16.4128 18.1887 16.2956 18.3074 16.1783 18.4259C15.8921 18.7153 15.6069 19.0056 15.3222 19.2965C15.0463 19.1683 14.8685 19.0502 14.6312 18.8483C14.2659 18.55 14.0097 18.4283 13.548 18.3564C13.0956 18.4185 12.7814 18.6063 12.4336 18.8981C12.1334 19.3295 12.079 19.6731 12.1347 20.193C12.3192 20.6233 12.5321 20.9267 12.8628 21.256C12.9454 21.3386 13.028 21.4211 13.1131 21.5062C13.1991 21.5906 13.2851 21.6749 13.3736 21.7618C13.502 21.8907 13.502 21.8907 13.633 22.0221C14.3017 22.706 14.3017 22.706 15.1977 22.9385C15.6073 22.9249 15.8026 22.8604 16.1011 22.58C16.2036 22.4848 16.2036 22.4848 16.3082 22.3877C16.3773 22.3208 16.4464 22.254 16.5176 22.1852C16.5833 22.1222 16.6491 22.0592 16.7168 21.9943C16.9227 21.7947 17.1263 21.5929 17.3292 21.3902C17.4028 21.317 17.4764 21.2438 17.5522 21.1683C17.7061 21.0148 17.86 20.8612 18.0137 20.7075C18.2492 20.4722 18.4855 20.2377 18.7218 20.0033C18.8719 19.8535 19.022 19.7036 19.172 19.5537C19.2425 19.4839 19.3131 19.414 19.3858 19.3421C19.4836 19.2438 19.4836 19.2438 19.5834 19.1435C19.6694 19.0577 19.6694 19.0577 19.7571 18.9702C20.0941 18.5768 20.1488 18.232 20.1338 17.7273C20.0843 17.3621 19.9542 17.1737 19.7051 16.9059C18.6993 16.2318 18.0169 16.5484 17.2094 17.3802ZM23.1105 18.9043C22.8682 19.2996 22.8547 19.6388 22.8926 20.0934C23.057 20.5679 23.2992 20.8558 23.7453 21.1028C24.3024 21.3006 24.9235 21.2441 25.5086 21.2406C25.6635 21.2412 25.8183 21.2419 25.9732 21.2428C26.3924 21.2446 26.8116 21.2439 27.2309 21.2426C27.6704 21.2416 28.1099 21.2425 28.5494 21.2432C29.2875 21.2439 30.0257 21.2429 30.7638 21.241C31.616 21.2389 32.4681 21.2396 33.3203 21.2418C34.0531 21.2436 34.7858 21.2438 35.5186 21.2428C35.9558 21.2422 36.3929 21.2421 36.8301 21.2434C37.2413 21.2445 37.6524 21.2437 38.0636 21.2414C38.2141 21.2409 38.3646 21.2411 38.5151 21.2419C39.305 21.2461 39.9466 21.2403 40.623 20.7906C40.8968 20.4716 41.0009 20.1037 41.0775 19.6949C40.9811 19.1809 40.7311 18.7508 40.3063 18.4408C39.9667 18.2711 39.7358 18.2626 39.3569 18.2618C39.291 18.2613 39.2251 18.2607 39.1572 18.2602C38.9371 18.2587 38.7171 18.2594 38.497 18.2602C38.3389 18.2596 38.1808 18.2589 38.0228 18.2581C37.5939 18.2563 37.165 18.2564 36.7361 18.257C36.3779 18.2573 36.0197 18.2567 35.6615 18.2561C34.8164 18.2547 33.9714 18.2548 33.1263 18.256C32.2547 18.2571 31.3832 18.2557 30.5117 18.253C29.7631 18.2508 29.0145 18.2502 28.2659 18.2508C27.819 18.2511 27.372 18.2509 26.9251 18.2491C26.5047 18.2476 26.0844 18.248 25.6641 18.2499C25.51 18.2502 25.3559 18.2499 25.2018 18.2489C24.9911 18.2476 24.7805 18.2487 24.5698 18.2505C24.452 18.2505 24.3342 18.2505 24.2128 18.2505C23.7377 18.3236 23.4247 18.5467 23.1105 18.9043ZM17.6486 26.6921C17.4936 26.8379 17.3482 26.989 17.2039 27.1454C17.1507 27.2005 17.0975 27.2556 17.0427 27.3123C16.8747 27.4864 16.7084 27.662 16.5425 27.838C16.3224 28.0713 16.1007 28.303 15.8779 28.5337C15.828 28.5878 15.7781 28.6418 15.7266 28.6975C15.5834 28.8457 15.5834 28.8457 15.3222 29.0582C14.9591 29.0466 14.7947 28.8591 14.5441 28.61C14.178 28.2805 13.9388 28.1432 13.4297 28.1617C12.8437 28.3335 12.5806 28.5796 12.2344 29.0582C12.0814 29.3642 12.1122 29.6163 12.1347 29.9547C12.4195 30.6288 12.899 31.0654 13.411 31.5734C13.544 31.7093 13.544 31.7093 13.6797 31.8481C13.7663 31.9346 13.8529 32.0211 13.9421 32.1103C14.0205 32.1889 14.099 32.2675 14.1798 32.3485C14.5613 32.6525 14.8875 32.7486 15.3721 32.7313C16.118 32.5448 16.6006 31.994 17.1288 31.4652C17.2047 31.3898 17.2805 31.3144 17.3586 31.2367C17.5182 31.0777 17.6775 30.9185 17.8365 30.759C18.0796 30.5156 18.3239 30.2737 18.5683 30.0317C18.7236 29.8767 18.8788 29.7216 19.0339 29.5664C19.1067 29.4945 19.1795 29.4225 19.2546 29.3484C19.735 28.8637 20.0692 28.4705 20.1471 27.7695C20.1277 27.3105 19.9737 27.0379 19.7051 26.6676C19.0489 26.1495 18.3084 26.1925 17.6486 26.6921ZM23.1042 28.666C22.8726 29.0649 22.8618 29.4017 22.8926 29.8551C23.0906 30.3867 23.3813 30.6971 23.8887 30.9508C24.0978 30.961 24.3073 30.9647 24.5168 30.9655C24.5819 30.9658 24.6471 30.9662 24.7142 30.9666C24.9336 30.9677 25.153 30.968 25.3724 30.9684C25.5293 30.9691 25.6862 30.9697 25.8431 30.9704C26.2701 30.9721 26.6972 30.9732 27.1243 30.974C27.3911 30.9745 27.6579 30.9751 27.9247 30.9758C28.7594 30.9777 29.5942 30.9791 30.4289 30.9799C31.3925 30.9809 32.3561 30.9835 33.3197 30.9875C34.0644 30.9905 34.8091 30.992 35.5537 30.9923C35.9986 30.9926 36.4433 30.9935 36.8881 30.996C37.3068 30.9983 37.7255 30.9987 38.1442 30.9977C38.2976 30.9976 38.451 30.9983 38.6044 30.9996C39.6835 31.0243 39.6835 31.0243 40.623 30.5524C40.8751 30.2583 41.0114 29.9323 41.0335 29.5442C40.9959 29.1205 40.8944 28.7862 40.623 28.4606C39.9548 27.9302 39.2076 28.0058 38.3947 28.0106C38.2387 28.01 38.0827 28.0093 37.9267 28.0085C37.5044 28.0066 37.0821 28.0073 36.6598 28.0086C36.2171 28.0096 35.7745 28.0087 35.3319 28.0081C34.5887 28.0073 33.8455 28.0083 33.1022 28.0102C32.2438 28.0123 31.3854 28.0116 30.527 28.0095C29.7891 28.0076 29.0512 28.0074 28.3132 28.0084C27.8729 28.0091 27.4326 28.0091 26.9922 28.0078C26.5782 28.0067 26.1642 28.0075 25.7501 28.0098C25.5985 28.0103 25.4468 28.0101 25.2952 28.0093C24.0762 27.9923 24.0762 27.9923 23.1042 28.666ZM17.0222 37.0908C16.9701 37.1433 16.9181 37.1958 16.8644 37.2499C16.7003 37.4156 16.5374 37.5823 16.3744 37.7491C16.2624 37.8626 16.1505 37.9759 16.0384 38.0892C15.7657 38.3652 15.4939 38.6421 15.2226 38.9195C15.175 38.8786 15.1275 38.8376 15.0784 38.7954C14.9846 38.7147 14.9846 38.7147 14.8888 38.6324C14.8268 38.5791 14.7649 38.5258 14.701 38.4709C14.2537 38.0915 13.9353 37.9673 13.3515 37.9877C12.9131 38.058 12.6375 38.3028 12.3526 38.6269C12.1109 39.0214 12.0963 39.3624 12.1347 39.816C12.4481 40.3654 12.8752 40.8124 13.3052 41.2728C13.3727 41.3475 13.4402 41.4223 13.5098 41.4993C13.9887 42.0128 14.4596 42.4269 15.1697 42.5471C15.605 42.4977 15.8722 42.3956 16.1974 42.0982C16.2664 42.0353 16.3354 41.9724 16.4065 41.9076C16.7447 41.5881 17.0778 41.2642 17.407 40.9355C17.4784 40.8644 17.5498 40.7934 17.6233 40.7202C17.7726 40.5714 17.9217 40.4225 18.0707 40.2735C18.299 40.0454 18.5281 39.8182 18.7572 39.5909C18.9028 39.4457 19.0483 39.3003 19.1938 39.1549C19.2622 39.0873 19.3305 39.0196 19.401 38.9499C19.4642 38.8864 19.5274 38.8229 19.5926 38.7574C19.6481 38.702 19.7037 38.6466 19.7609 38.5895C20.0955 38.1975 20.1478 37.852 20.1346 37.3503C20.0671 36.8651 19.7881 36.6007 19.4311 36.2923C18.4422 35.7979 17.7016 36.3899 17.0222 37.0908ZM16.3611 47.6101C16.0273 47.98 15.6778 48.3323 15.3222 48.6813C14.9559 48.5049 14.6936 48.2906 14.3942 48.0178C14.0365 47.7332 13.6688 47.7551 13.2305 47.7848C12.7641 47.9585 12.512 48.1703 12.2344 48.5817C12.0992 48.9871 12.0323 49.3575 12.2195 49.76C12.5603 50.3073 12.9648 50.7516 13.4234 51.2026C13.4922 51.2725 13.561 51.3425 13.6318 51.4145C14.0856 51.8657 14.543 52.3094 15.2226 52.3108C15.3151 52.3137 15.3151 52.3137 15.4094 52.3166C16.0905 52.1576 16.6037 51.5127 17.0763 51.0376C17.1568 50.9574 17.2373 50.8771 17.3202 50.7943C17.4896 50.6251 17.6586 50.4557 17.8275 50.286C18.0862 50.0262 18.346 49.7675 18.6059 49.5089C18.7705 49.3441 18.9351 49.1792 19.0996 49.0143C19.1773 48.937 19.255 48.8597 19.3351 48.7801C19.407 48.7076 19.4788 48.6351 19.5528 48.5604C19.6161 48.4971 19.6793 48.4337 19.7444 48.3684C20.0899 47.9682 20.1473 47.6279 20.1354 47.1124C20.0726 46.6711 19.8244 46.3956 19.4996 46.1101C18.1748 45.2981 17.1581 46.7265 16.3611 47.6101Z" fill="#FF7206"/>
<path d="M42.2716 36.6845C42.3623 36.6998 42.453 36.715 42.5465 36.7307C42.6452 36.7482 42.7438 36.7657 42.8455 36.7838C43.0008 36.8102 43.0008 36.8102 43.1592 36.8372C43.7764 36.9441 44.3909 37.0617 45.0046 37.1865C45.1405 37.2138 45.2765 37.2412 45.4124 37.2686C45.6745 37.3214 45.9359 37.3761 46.1973 37.4318C48.0136 37.8014 49.5407 37.49 51.331 37.1199C51.6848 37.0472 52.0386 36.9748 52.3928 36.9037C52.6118 36.8597 52.8307 36.8148 53.0493 36.7687C54.023 36.5728 54.023 36.5728 54.4686 36.7277C54.7057 36.8931 54.8467 37.0229 54.904 37.3131C54.9191 37.5554 54.9209 37.7947 54.9186 38.0375C54.9193 38.1297 54.92 38.2219 54.9208 38.3169C54.9225 38.6226 54.9213 38.9282 54.92 39.2339C54.9203 39.4477 54.9207 39.6614 54.9212 39.8752C54.9217 40.3244 54.9209 40.7737 54.919 41.2229C54.9168 41.7936 54.9181 42.3641 54.9205 42.9348C54.9219 43.3772 54.9214 43.8197 54.9204 44.2621C54.9201 44.4721 54.9205 44.6821 54.9214 44.8921C54.9343 48.5884 53.6062 51.5918 51.0302 54.2134C50.2339 54.9974 49.1063 56.0492 47.9505 56.1578C46.7161 56.0537 45.646 54.8805 44.8065 54.0598C44.7205 53.9799 44.6345 53.9 44.5458 53.8177C43.8634 53.1693 43.3308 52.4513 42.8144 51.6691C42.7507 51.574 42.687 51.4788 42.6214 51.3808C41.8307 50.1189 41.3624 48.6499 41.121 47.1867C41.1039 47.0844 41.0868 46.982 41.0691 46.8765C41.015 46.4374 41.0052 46.0097 41.0038 45.5678C41.0028 45.4333 41.0028 45.4333 41.0018 45.2961C40.9998 45.0016 40.9986 44.707 40.9976 44.4124C40.9972 44.3115 40.9968 44.2106 40.9964 44.1066C40.9943 43.5732 40.9929 43.0398 40.992 42.5063C40.9909 41.9556 40.9874 41.4048 40.9835 40.8541C40.9809 40.43 40.9801 40.006 40.9797 39.582C40.9792 39.3789 40.9781 39.1758 40.9762 38.9727C40.9738 38.689 40.9739 38.4054 40.9746 38.1216C40.9733 38.0379 40.972 37.9542 40.9707 37.8679C40.9743 37.4673 40.9916 37.2727 41.2113 36.926C41.5582 36.5961 41.8159 36.6066 42.2716 36.6845Z" fill="#FF7206"/>
<path d="M14.2266 5.35156C14.1763 5.61475 14.1207 5.87405 14.0543 6.1337C13.801 7.16553 13.7735 8.1663 13.7596 9.22388C13.7563 9.39988 13.7529 9.57588 13.7493 9.75188C13.741 10.1777 13.7343 10.6035 13.7285 11.0293C13.6176 11.0302 13.5067 11.0312 13.3925 11.0321C12.9749 11.0361 12.5574 11.0427 12.1399 11.05C11.9603 11.0528 11.7808 11.0549 11.6012 11.0563C10.6096 11.0646 9.72903 11.0966 8.79014 11.4428C8.54883 11.5273 8.54883 11.5273 8.25 11.5273C8.51487 9.67325 9.84945 7.8391 11.3015 6.72027C12.0847 6.15431 13.2388 5.35156 14.2266 5.35156Z" fill="#FF7206"/>
</svg>
