<svg width="35" height="34" viewBox="0 0 35 34" fill="none" xmlns="http://www.w3.org/2000/svg">
<g clip-path="url(#clip0_1_2456)">
<path d="M25.8992 0.485457C26.3305 0.710883 26.6542 1.0835 26.9928 1.42574C27.0716 1.50435 27.1504 1.5829 27.2293 1.66141C27.4424 1.87388 27.6547 2.08718 27.8668 2.30065C28.0893 2.52433 28.3125 2.7473 28.5356 2.97037C28.9101 3.34495 29.284 3.72003 29.6576 4.09544C30.0891 4.52908 30.5214 4.96201 30.954 5.39456C31.4153 5.85574 31.8761 6.31742 32.3367 6.77926C32.4692 6.91203 32.6018 7.04471 32.7344 7.17737C32.9429 7.38604 33.1511 7.59504 33.359 7.8043C33.4352 7.88092 33.5116 7.95743 33.588 8.03381C33.6926 8.13834 33.7968 8.24326 33.9009 8.34829C33.9883 8.4361 33.9883 8.4361 34.0776 8.52569C34.3563 8.83481 34.5375 9.07221 34.5331 9.49634C34.5338 9.56208 34.5345 9.62782 34.5352 9.69555C34.4518 10.1667 34.0561 10.4892 33.729 10.8115C33.6807 10.8596 33.6324 10.9076 33.5827 10.9572C33.4294 11.1097 33.2757 11.2618 33.122 11.4138C33.0176 11.5175 32.9132 11.6213 32.8089 11.7251C32.5539 11.9786 32.2985 12.2318 32.0429 12.4846C32.1406 12.7339 32.2514 12.9691 32.3749 13.2068C32.8257 14.1085 32.8568 15.0156 32.591 15.9857C32.3313 16.7139 31.8006 17.2772 31.246 17.7971C31.5897 18.2121 31.9657 18.5834 32.3565 18.9539C33.0611 19.6415 33.3864 20.3638 33.4001 21.3415C33.3933 22.2997 33.0688 22.9993 32.4123 23.6948C31.9064 24.1705 31.2597 24.4893 30.5555 24.5112C30.47 24.5077 30.47 24.5077 30.3827 24.5041C30.3785 24.5557 30.3743 24.6072 30.37 24.6603C30.2736 25.5111 29.9462 26.2314 29.3109 26.8157C28.7071 27.2784 28.0815 27.4975 27.328 27.5588C27.3263 27.6039 27.3246 27.6489 27.3228 27.6953C27.2676 28.6026 26.8989 29.2161 26.2448 29.8332C25.69 30.3069 25.0705 30.5585 24.3398 30.5471C24.3356 30.5986 24.3314 30.6502 24.327 30.7033C24.2305 31.5547 23.9026 32.2723 23.269 32.8586C22.5183 33.4308 21.6924 33.6771 20.7538 33.6018C19.4091 33.3861 18.6106 32.4001 17.6991 31.4768C17.4633 31.5764 17.3201 31.7117 17.1451 31.8968C17.0896 31.9542 17.0341 32.0116 16.977 32.0707C16.8624 32.1905 16.7482 32.3106 16.6346 32.4313C15.912 33.1753 15.1225 33.5891 14.0758 33.6267C13.2279 33.5972 12.3938 33.2769 11.789 32.6721C11.2761 32.0486 10.9455 31.3613 10.9257 30.5471C10.8822 30.5462 10.8387 30.5452 10.7939 30.5443C10.0288 30.5043 9.34882 30.2258 8.80069 29.6838C8.26146 29.0581 7.9214 28.3911 7.93741 27.5588C7.88588 27.5546 7.83434 27.5504 7.78125 27.5461C6.95542 27.4525 6.20058 27.127 5.63161 26.5039C5.18097 25.8982 4.868 25.271 4.88272 24.5041C4.83769 24.5024 4.79267 24.5007 4.74628 24.499C3.86635 24.4453 3.21429 24.0931 2.62491 23.4416C2.01785 22.7221 1.81117 21.9553 1.83348 21.0225C1.95638 19.9178 2.60232 19.2077 3.35538 18.4612C3.41979 18.3961 3.48413 18.3309 3.54837 18.2656C3.68223 18.1305 3.81693 17.9964 3.95303 17.8635C3.85827 17.6471 3.7409 17.5078 3.57535 17.3406C2.92997 16.6294 2.66494 15.7737 2.66641 14.8296C2.66643 14.7332 2.66643 14.7332 2.66644 14.6349C2.67463 14.1194 2.75694 13.6932 2.95694 13.2151C3.00132 13.1044 3.0456 12.9938 3.08975 12.8831C3.06122 12.8548 3.0327 12.8266 3.0033 12.7975C2.70557 12.5027 2.40832 12.2075 2.11133 11.9119C2.00054 11.8018 1.88962 11.6918 1.77859 11.5819C1.61871 11.4236 1.45926 11.2649 1.2999 11.1062C1.25043 11.0574 1.20096 11.0086 1.14999 10.9583C0.462388 10.2709 0.462388 10.2709 0.458405 9.77026C0.456179 9.70606 0.453953 9.64186 0.45166 9.57571C0.593172 8.95336 1.23165 8.47966 1.66876 8.04362C1.74671 7.96538 1.82463 7.88712 1.90253 7.80883C2.11295 7.59752 2.32379 7.38663 2.53475 7.17584C2.71112 6.99954 2.8873 6.82303 3.06349 6.64653C3.47906 6.23022 3.89499 5.81426 4.31113 5.39852C4.74008 4.96998 5.16841 4.54083 5.59645 4.11138C5.96459 3.74206 6.33312 3.37314 6.70196 3.00452C6.92198 2.78461 7.14186 2.56456 7.36137 2.34413C7.56761 2.13705 7.77433 1.93045 7.98143 1.72422C8.05725 1.64856 8.13291 1.57272 8.20838 1.49671C8.31158 1.39281 8.41537 1.28955 8.51934 1.18643C8.57722 1.12854 8.6351 1.07065 8.69473 1.011C9.00645 0.744287 9.29555 0.616846 9.70268 0.639122C10.2103 0.718765 10.5978 1.1727 10.9402 1.52266C10.9896 1.5723 11.0389 1.62195 11.0898 1.67309C11.2459 1.83026 11.4012 1.98811 11.5565 2.14599C11.6629 2.2533 11.7692 2.36056 11.8756 2.46778C12.135 2.72938 12.3939 2.99154 12.6523 3.25415C12.6931 3.2405 12.734 3.22685 12.7761 3.21278C12.8298 3.19486 12.8835 3.17694 12.9389 3.15848C12.9921 3.14072 13.0453 3.12296 13.1001 3.10466C14.2067 2.73728 15.2987 2.73788 16.3752 3.22094C16.8389 3.46488 17.1982 3.81702 17.5663 4.18383C17.6279 4.13042 17.6896 4.077 17.7531 4.02197C17.7956 3.98585 17.8382 3.94972 17.882 3.9125C17.9885 3.82178 18.094 3.73 18.199 3.63754C18.9223 3.01697 19.6785 2.69633 20.6335 2.69799C20.6882 2.69796 20.743 2.69792 20.7995 2.69788C21.2865 2.70654 21.6941 2.80955 22.1483 2.98852C22.2141 3.01044 22.2798 3.03235 22.3476 3.05493C22.3784 3.02361 22.4093 2.99229 22.4411 2.96002C22.7626 2.63411 23.0848 2.3089 23.4075 1.98409C23.5278 1.86279 23.6479 1.7413 23.7678 1.61964C23.9403 1.44477 24.1134 1.27056 24.2866 1.09646C24.3401 1.04195 24.3935 0.987439 24.4486 0.931276C24.4991 0.880765 24.5496 0.830254 24.6017 0.778212C24.6458 0.733678 24.6898 0.689145 24.7353 0.643261C25.0923 0.349244 25.4727 0.325463 25.8992 0.485457ZM25.3096 3.00901C25.2701 3.0497 25.2305 3.09039 25.1898 3.13231C25.145 3.1782 25.1002 3.22409 25.054 3.27137C24.9807 3.34669 24.9807 3.34669 24.906 3.42353C24.8028 3.52859 24.6995 3.6336 24.5962 3.73858C24.4329 3.90475 24.2698 4.07115 24.1075 4.23829C23.9511 4.39912 23.7936 4.55886 23.636 4.71846C23.5881 4.76827 23.5402 4.81808 23.4909 4.8694C23.1753 5.18658 22.879 5.43103 22.4104 5.45152C22.0809 5.42729 21.8751 5.30984 21.6171 5.11352C21.2912 4.88987 21.0717 4.77137 20.675 4.76074C20.6151 4.75826 20.5553 4.75577 20.4936 4.75322C19.9609 4.82681 19.6029 5.16294 19.2373 5.53213C19.1883 5.58054 19.1393 5.62895 19.0889 5.67883C18.9282 5.83801 18.7685 5.99815 18.6088 6.15838C18.497 6.26992 18.385 6.38142 18.2731 6.49288C18.0391 6.72623 17.8055 6.96006 17.5723 7.19423C17.2738 7.49387 16.974 7.79213 16.6738 8.09003C16.4425 8.31983 16.212 8.5504 15.9818 8.7812C15.8716 8.89148 15.7611 9.00151 15.6503 9.11128C15.4955 9.26494 15.3418 9.41962 15.1883 9.57461C15.1199 9.64191 15.1199 9.64191 15.05 9.71056C14.7336 10.0334 14.5499 10.3303 14.4904 10.7892C14.5316 11.2182 14.7168 11.4773 15.0429 11.7541C15.3669 11.9302 15.6908 11.9216 16.039 11.8206C16.4849 11.5413 16.8498 11.1551 17.2115 10.7775C17.3187 10.6676 17.426 10.5578 17.5334 10.4479C17.7 10.2768 17.8663 10.1053 18.0316 9.93292C18.193 9.76514 18.3558 9.59888 18.5188 9.43278C18.5676 9.38118 18.6164 9.32958 18.6667 9.27642C18.9342 9.00627 19.1566 8.81993 19.5405 8.76509C19.9283 8.76709 20.2368 8.89751 20.522 9.15711C20.5967 9.23358 20.6703 9.31109 20.7429 9.38946C20.7831 9.43082 20.8233 9.47218 20.8646 9.5148C20.992 9.64606 21.1179 9.77857 21.2436 9.91137C22.2624 10.9824 23.2342 11.7212 24.7597 11.7912C25.2024 11.8643 25.476 12.1318 25.7773 12.4386C25.8195 12.4808 25.8616 12.5229 25.9051 12.5663C26.0435 12.7049 26.1812 12.8441 26.319 12.9834C26.4151 13.08 26.5113 13.1765 26.6076 13.2729C26.8602 13.5263 27.1122 13.7803 27.3641 14.0344C27.6215 14.2938 27.8795 14.5527 28.1374 14.8116C28.6429 15.3192 29.1478 15.8275 29.6523 16.3362C30.1385 16.102 30.4638 15.7127 30.6483 15.2073C30.7597 14.762 30.6902 14.4147 30.4782 14.0161C30.3322 13.8326 30.1811 13.6771 30.0133 13.5139C29.7055 13.2102 29.5185 12.9701 29.4821 12.5303C29.5108 11.9445 30.0099 11.5004 30.4071 11.1127C30.4522 11.0678 30.4974 11.023 30.5439 10.9768C30.6861 10.8356 30.8291 10.6951 30.9721 10.5547C31.0695 10.4583 31.1668 10.3618 31.2642 10.2653C31.5011 10.0306 31.7386 9.7965 31.9765 9.56274C31.8797 9.34016 31.7573 9.1942 31.5861 9.02315C31.5324 8.96915 31.4787 8.91514 31.4233 8.8595C31.3643 8.80085 31.3052 8.74219 31.2444 8.68176C31.1817 8.61894 31.119 8.55609 31.0563 8.49322C30.8862 8.3228 30.7157 8.1528 30.5451 7.98288C30.3668 7.80514 30.1888 7.62705 30.0107 7.449C29.7119 7.15023 29.4128 6.85173 29.1136 6.55338C28.7672 6.208 28.4211 5.86227 28.0752 5.51634C27.7428 5.18387 27.4102 4.8516 27.0774 4.51943C26.9357 4.37788 26.7939 4.23627 26.6522 4.09462C26.4548 3.89725 26.2571 3.70016 26.0593 3.50311C26.0001 3.44391 25.941 3.38472 25.88 3.32373C25.8265 3.27047 25.7729 3.21722 25.7178 3.16235C25.671 3.11568 25.6242 3.06902 25.576 3.02093C25.4413 2.89044 25.4413 2.89044 25.3096 3.00901ZM9.42135 3.28938C9.34946 3.36136 9.34946 3.36136 9.27611 3.4348C9.22126 3.48956 9.16641 3.54432 9.1099 3.60074C9.04929 3.66159 8.98867 3.72244 8.92622 3.78514C8.86211 3.84927 8.79799 3.91338 8.73385 3.97748C8.55919 4.15213 8.38473 4.32697 8.21031 4.50186C8.02821 4.68437 7.84592 4.8667 7.66365 5.04905C7.31827 5.39463 6.97306 5.74039 6.62791 6.08621C6.23507 6.47979 5.84204 6.87318 5.449 7.26656C4.64024 8.07602 3.83171 8.88571 3.02335 9.69555C3.11726 9.89122 3.20736 10.0281 3.36314 10.1801C3.42598 10.2419 3.42598 10.2419 3.49008 10.305C3.53526 10.3489 3.58043 10.3928 3.62697 10.438C3.72248 10.5321 3.81798 10.6263 3.91348 10.7204C4.06399 10.8681 4.21467 11.0155 4.36553 11.1628C4.51129 11.3054 4.65644 11.4485 4.80153 11.5918C4.84657 11.6354 4.8916 11.6789 4.93801 11.7239C5.24044 12.0231 5.5051 12.324 5.51773 12.771C5.50708 13.0896 5.37756 13.2742 5.19244 13.5256C4.83526 14.0245 4.62968 14.5152 4.72086 15.1326C4.84714 15.6902 5.20375 16.0888 5.61319 16.469C5.67957 16.4486 5.67957 16.4486 5.7473 16.4277C6.81906 16.1145 7.74303 16.1618 8.73688 16.6781C8.92005 16.7926 9.04952 16.913 9.19913 17.0666C9.24296 17.0666 9.28678 17.0666 9.33194 17.0666C9.34992 17.1051 9.36789 17.1435 9.38641 17.1831C9.4649 17.3326 9.5553 17.4583 9.65567 17.5937C9.97906 18.0713 10.1097 18.6272 10.1952 19.1916C10.2642 19.207 10.3332 19.2223 10.4043 19.2381C11.7336 19.5444 11.7336 19.5444 12.1874 20.0549C12.2312 20.0549 12.2751 20.0549 12.3202 20.0549C12.3382 20.0932 12.3562 20.1315 12.3747 20.1709C12.4537 20.3219 12.5443 20.4522 12.644 20.5903C12.9838 21.0951 13.1336 21.655 13.2499 22.2463C13.3078 22.2561 13.3656 22.2659 13.4253 22.2759C14.1208 22.4069 14.7336 22.5955 15.2421 23.1096C15.2859 23.1096 15.3298 23.1096 15.3749 23.1096C15.3929 23.1481 15.4109 23.1865 15.4294 23.2261C15.5079 23.3755 15.5983 23.5012 15.6986 23.6367C16.022 24.1143 16.1527 24.6702 16.2382 25.2346C16.3064 25.2492 16.3746 25.2637 16.4449 25.2787C17.027 25.4094 17.525 25.5702 18.0312 25.8987C18.0914 25.937 18.1517 25.9754 18.2138 26.0149C18.8407 26.6418 19.2268 27.4758 19.2431 28.364C19.2401 28.8047 19.1563 29.2697 18.9715 29.6727C18.9439 29.8321 18.9439 29.8321 19.0861 29.9838C19.1782 30.0758 19.1782 30.0758 19.2721 30.1697C19.305 30.2027 19.3379 30.2358 19.3718 30.2698C19.4417 30.3397 19.5121 30.4092 19.5829 30.4783C19.6901 30.5833 19.7957 30.6898 19.9012 30.7965C19.9695 30.8644 20.0379 30.9321 20.1064 30.9998C20.1683 31.061 20.2303 31.1223 20.2942 31.1854C20.5424 31.3883 20.7889 31.5288 21.1152 31.5575C21.549 31.5007 21.8145 31.3712 22.1027 31.0286C22.2821 30.683 22.3222 30.4253 22.2148 30.0491C22.0235 29.6709 21.7141 29.3792 21.4142 29.0862C21.3786 29.0512 21.343 29.0163 21.3063 28.9803C21.2353 28.911 21.1638 28.8422 21.0917 28.7741C20.8197 28.5103 20.7049 28.3107 20.6625 27.9365C20.6935 27.6313 20.7736 27.4094 20.953 27.1604C21.2338 26.9465 21.5042 26.9364 21.8454 26.9282C22.3681 27.0294 22.7342 27.5407 23.0832 27.9071C23.3663 28.198 23.6146 28.4443 24.0305 28.515C24.4027 28.5109 24.6894 28.4694 24.9667 28.1944C25.1869 27.9422 25.2792 27.7403 25.2902 27.4094C25.2927 27.3611 25.2952 27.3129 25.2977 27.2631C25.2101 26.7393 24.7966 26.4015 24.4311 26.0522C24.3289 25.9541 24.227 25.8556 24.1255 25.7568C24.0806 25.7138 24.0357 25.6709 23.9894 25.6266C23.7233 25.3328 23.7129 25.0674 23.7216 24.6831C23.7512 24.4248 23.8269 24.2912 24.0077 24.1057C24.3237 23.9268 24.5763 23.8671 24.9374 23.9065C25.3496 24.0591 25.6076 24.3596 25.9044 24.6702C26.0024 24.7722 26.1007 24.8738 26.1994 24.9752C26.2424 25.0202 26.2854 25.0652 26.3298 25.1115C26.6097 25.3667 26.8664 25.4784 27.2388 25.5088C27.5906 25.4895 27.8431 25.3194 28.0834 25.0728C28.2959 24.7376 28.3378 24.5215 28.3029 24.1309C28.1554 23.6146 27.6883 23.2653 27.3118 22.911C26.9943 22.6036 26.7565 22.3435 26.7161 21.885C26.7603 21.5469 26.8346 21.3179 27.0624 21.051C27.2704 20.9197 27.4408 20.8967 27.685 20.8933C27.7457 20.8914 27.8065 20.8895 27.8691 20.8876C28.4043 20.9741 28.7717 21.492 29.1262 21.8641C29.4096 22.1553 29.6571 22.3966 30.0712 22.4743C30.4531 22.475 30.6696 22.4054 30.9804 22.1799C31.2217 21.9195 31.3217 21.7161 31.329 21.3623C31.3307 21.3133 31.3324 21.2642 31.3342 21.2137C31.2865 20.8573 31.084 20.5983 30.8394 20.3472C30.7837 20.2896 30.728 20.232 30.6706 20.1726C30.5791 20.0796 30.5791 20.0796 30.4859 19.9847C30.4208 19.9179 30.3558 19.851 30.2907 19.784C30.0776 19.565 29.8633 19.347 29.6489 19.1291C29.6123 19.0919 29.5756 19.0547 29.5379 19.0163C29.1915 18.6642 28.8448 18.3124 28.4971 17.9616C28.0547 17.5153 27.6143 17.0671 27.1765 16.6162C26.8673 16.2981 26.5559 15.9823 26.2428 15.6679C26.0566 15.4808 25.8713 15.2928 25.6884 15.1024C24.8681 14.25 24.194 13.6295 22.969 13.5048C21.6168 13.297 20.5836 12.1544 19.6913 11.2229C19.4007 11.4606 19.131 11.7125 18.868 11.9803C18.8359 12.0129 18.8039 12.0455 18.7708 12.0791C18.6373 12.215 18.5039 12.3512 18.3712 12.488C17.5938 13.288 16.8143 13.8611 15.6571 13.8916C14.9063 13.8815 14.2542 13.6594 13.6483 13.2151C13.584 13.1699 13.5196 13.1247 13.4533 13.0781C12.9068 12.6107 12.5899 11.8616 12.5194 11.1565C12.4623 10.3039 12.6526 9.39765 13.2066 8.72333C13.3122 8.60584 13.4201 8.49097 13.5293 8.37677C13.5697 8.33395 13.6102 8.29113 13.6519 8.24701C14.1366 7.73694 14.6351 7.24057 15.1342 6.74463C15.2291 6.65 15.3241 6.55537 15.419 6.46071C15.6476 6.23282 15.8764 6.00514 16.1054 5.77758C15.9258 5.40255 15.6416 5.15523 15.2587 4.98901C14.7359 4.82045 14.2312 4.87389 13.7345 5.09459C13.5359 5.20567 13.373 5.33778 13.2084 5.49406C13.0233 5.66498 12.8557 5.66359 12.6107 5.67382C12.5109 5.67986 12.5109 5.67986 12.4089 5.68602C11.8983 5.59095 11.5078 5.11613 11.1563 4.75711C11.1115 4.71198 11.0667 4.66685 11.0206 4.62035C10.8793 4.47793 10.7385 4.33507 10.5978 4.19214C10.4554 4.04784 10.3128 3.90365 10.17 3.75965C10.0816 3.67041 9.99338 3.58099 9.90533 3.49139C9.80398 3.38893 9.70095 3.28814 9.59756 3.18774C9.51434 3.18022 9.51434 3.18022 9.42135 3.28938ZM5.85677 18.904C5.8064 18.954 5.75604 19.0041 5.70415 19.0556C5.59833 19.1612 5.49292 19.2672 5.38792 19.3736C5.22769 19.5356 5.06577 19.6958 4.9036 19.8558C4.80064 19.959 4.69779 20.0623 4.59505 20.1657C4.5469 20.2132 4.49876 20.2606 4.44916 20.3095C4.13269 20.6334 3.89476 20.9435 3.88222 21.4165C3.98899 21.8527 4.18495 22.1679 4.57144 22.4082C4.95134 22.4877 5.26953 22.5224 5.60696 22.3018C6.0369 22.0015 6.39875 21.6233 6.76648 21.2518C6.89147 21.1258 7.01749 21.0008 7.14365 20.8759C7.22464 20.7948 7.30558 20.7136 7.38644 20.6324C7.42353 20.5957 7.46061 20.559 7.49882 20.5212C7.82673 20.1874 8.14638 19.8338 8.16983 19.3494C8.14544 18.9759 8.02147 18.7485 7.76309 18.4778C7.03844 17.9253 6.40706 18.3459 5.85677 18.904ZM8.85568 21.9657C8.80497 22.0162 8.75426 22.0667 8.70202 22.1188C8.59529 22.2253 8.48881 22.3322 8.38257 22.4393C8.21996 22.6029 8.05631 22.7655 7.89253 22.928C7.78879 23.0319 7.68512 23.1358 7.58151 23.2398C7.53261 23.2883 7.4837 23.3368 7.43332 23.3868C7.38808 23.4327 7.34285 23.4785 7.29624 23.5258C7.25644 23.5657 7.21665 23.6057 7.17565 23.6469C6.96496 23.91 6.91427 24.1702 6.92497 24.5052C6.96429 24.8223 7.10548 25.0019 7.33145 25.218C7.66719 25.4597 7.8966 25.5399 8.30649 25.4776C8.76677 25.3534 9.13866 24.9166 9.46605 24.5869C9.50757 24.5455 9.54909 24.5041 9.59187 24.4615C9.67868 24.3747 9.76533 24.2878 9.85182 24.2008C9.98391 24.068 10.1167 23.9359 10.2496 23.8039C10.3343 23.7191 10.419 23.6342 10.5036 23.5493C10.5431 23.5101 10.5825 23.471 10.6231 23.4306C10.9518 23.0983 11.1616 22.8109 11.1996 22.3353C11.1827 22.0181 11.0427 21.7715 10.8261 21.5441C10.5393 21.2939 10.3194 21.2434 9.9449 21.2285C9.47395 21.2977 9.17436 21.6443 8.85568 21.9657ZM11.8066 25.0665C11.7588 25.1142 11.7111 25.1618 11.6619 25.2109C11.5615 25.3112 11.4613 25.4116 11.3612 25.5123C11.208 25.6662 11.054 25.8194 10.9 25.9726C10.8023 26.0704 10.7047 26.1681 10.6071 26.266C10.5611 26.3117 10.5151 26.3574 10.4678 26.4046C10.4252 26.4476 10.3826 26.4906 10.3387 26.5349C10.2826 26.5912 10.2826 26.5912 10.2253 26.6486C9.97658 26.9408 9.96756 27.2071 9.97499 27.5793C10.0148 27.9179 10.189 28.0925 10.4359 28.3101C10.6496 28.4619 10.7739 28.503 11.0336 28.5134C11.0879 28.5167 11.1421 28.5199 11.1981 28.5233C11.696 28.4334 12.0733 28.0348 12.417 27.6878C12.4614 27.6435 12.5059 27.5992 12.5517 27.5536C12.6449 27.4606 12.7378 27.3673 12.8304 27.2738C12.9719 27.1313 13.1144 26.9898 13.257 26.8485C13.3479 26.7575 13.4386 26.6665 13.5293 26.5755C13.5716 26.5335 13.614 26.4916 13.6576 26.4484C13.9205 26.1813 14.1411 25.926 14.2061 25.5438C14.202 25.172 14.1618 24.8819 13.8831 24.6076C13.6119 24.3749 13.4528 24.2933 13.1005 24.2842C13.0075 24.2805 13.0075 24.2805 12.9127 24.2767C12.45 24.3441 12.1218 24.7494 11.8066 25.0665ZM14.8507 28.0478C14.8032 28.095 14.7558 28.1421 14.707 28.1907C14.6075 28.29 14.5083 28.3897 14.4095 28.4896C14.2587 28.6419 14.1065 28.7927 13.954 28.9434C13.8572 29.0404 13.7604 29.1376 13.6637 29.2348C13.6184 29.2795 13.5732 29.3242 13.5266 29.3703C13.2021 29.7012 13.0092 29.9784 12.9594 30.4517C12.999 30.815 13.111 31.009 13.3744 31.261C13.7102 31.5027 13.9395 31.5828 14.3495 31.5206C14.8068 31.3972 15.1792 30.9631 15.5067 30.6369C15.548 30.5959 15.5894 30.555 15.632 30.5129C15.7186 30.427 15.8049 30.3409 15.8911 30.2547C16.0223 30.1239 16.1545 29.9941 16.2867 29.8644C16.3712 29.7802 16.4557 29.696 16.5401 29.6117C16.5792 29.5736 16.6183 29.5355 16.6586 29.4962C16.9482 29.2034 17.2034 28.8722 17.255 28.4527C17.1917 28.0298 17.0557 27.7637 16.7321 27.4717C16.0093 26.9713 15.3562 27.5362 14.8507 28.0478Z" fill="white"/>
</g>
<defs>
<clipPath id="clip0_1_2456">
<rect width="34" height="34" fill="white" transform="translate(0.5)"/>
</clipPath>
</defs>
</svg>
